<svg width="21" height="21" viewBox="0 0 21 21" fill="none" xmlns="http://www.w3.org/2000/svg">
<g clip-path="url(#clip0_679_1638)">
<path d="M20.9542 10.2069C20.9542 15.2738 17.2368 19.4743 12.384 20.2365V13.1613H14.7435L15.1928 10.234H12.384V8.3347C12.384 7.53352 12.7765 6.75349 14.0337 6.75349H15.3104V4.26111C15.3104 4.26111 14.1513 4.06314 13.0439 4.06314C10.7308 4.06314 9.21986 5.46499 9.21986 8.00221V10.2332H6.6488V13.1604H9.21986V20.2357C4.36792 19.4726 0.649658 15.2729 0.649658 10.2069C0.649658 4.60036 5.19533 0.0546875 10.8019 0.0546875C16.4085 0.0546875 20.9542 4.59951 20.9542 10.2069Z" fill="#423522"/>
</g>
<defs>
<clipPath id="clip0_679_1638">
<rect width="20.3045" height="20.3045" fill="white" transform="translate(0.649658 -0.00708008)"/>
</clipPath>
</defs>
</svg>
