<svg width="29" height="27" viewBox="0 0 29 27" fill="none" xmlns="http://www.w3.org/2000/svg">
<path d="M24.6367 2.82273C24.3375 1.99622 23.7962 1.28263 23.0857 0.777974C22.3752 0.273319 21.5295 0.00181613 20.6625 0H8.3375C7.47853 -0.000680897 6.6398 0.264844 5.93334 0.761112C5.22688 1.25738 4.68631 1.96076 4.38384 2.77732L1.77505 9.45C0.598914 12.7268 -0.00187956 16.1879 4.41713e-06 19.6756V22.3182C4.41713e-06 22.8705 0.44772 23.3182 1 23.3182H3.625V26C3.625 26.5523 4.07272 27 4.625 27H8.45834C9.01062 27 9.45834 26.5523 9.45834 26V23.3182H19.5417V26C19.5417 26.5523 19.9894 27 20.5417 27H24.375C24.9273 27 25.375 26.5523 25.375 26V23.3182H28C28.5523 23.3182 29 22.8705 29 22.3182V19.6756C29.0006 16.1692 28.3937 12.69 27.2068 9.39723L24.6367 2.82273ZM20.5417 17.7955C20.5417 17.3072 20.7326 16.839 21.0725 16.4937C21.4124 16.1485 21.8735 15.9545 22.3542 15.9545C22.8349 15.9545 23.2959 16.1485 23.6358 16.4937C23.9757 16.839 24.1667 17.3072 24.1667 17.7955C24.1667 18.2837 23.9757 18.7519 23.6358 19.0972C23.2959 19.4424 22.8349 19.6364 22.3542 19.6364C21.8735 19.6364 21.4124 19.4424 21.0725 19.0972C20.7326 18.7519 20.5417 18.2837 20.5417 17.7955ZM5.1608 10.757L7.772 4.08559C7.81428 3.96761 7.89116 3.86565 7.99228 3.79345C8.0934 3.72124 8.2139 3.68228 8.3375 3.68182H20.6625C20.7948 3.68516 20.9227 3.73087 21.028 3.81241C21.1332 3.89395 21.2104 4.00717 21.2485 4.13591L23.8199 10.7067C24.0048 11.2234 24.1643 11.7462 24.3105 12.2727H4.68592C4.83334 11.7622 4.98317 11.2553 5.1608 10.757ZM6.64584 19.6364C6.16513 19.6364 5.70412 19.4424 5.36421 19.0972C5.0243 18.7519 4.83334 18.2837 4.83334 17.7955C4.83334 17.3072 5.0243 16.839 5.36421 16.4937C5.70412 16.1485 6.16513 15.9545 6.64584 15.9545C7.12654 15.9545 7.58756 16.1485 7.92747 16.4937C8.26738 16.839 8.45834 17.3072 8.45834 17.7955C8.45834 18.2837 8.26738 18.7519 7.92747 19.0972C7.58756 19.4424 7.12654 19.6364 6.64584 19.6364Z" fill="#423522"/>
</svg>
