<svg width="21" height="21" viewBox="0 0 21 21" fill="none" xmlns="http://www.w3.org/2000/svg">
<g clip-path="url(#clip0_679_1653)">
<path d="M10.1523 2.21875C12.8629 2.21875 13.1844 2.2289 14.2546 2.27797C15.3612 2.32873 16.5008 2.58084 17.3071 3.3871C18.1209 4.20097 18.3654 5.32957 18.4162 6.43955C18.4653 7.50976 18.4754 7.83125 18.4754 10.5419C18.4754 13.2526 18.4653 13.574 18.4162 14.6443C18.3663 15.7449 18.1082 16.8955 17.3071 17.6967C16.4932 18.5106 15.3654 18.7551 14.2546 18.8058C13.1844 18.8549 12.8629 18.8651 10.1523 18.8651C7.4416 18.8651 7.12012 18.8549 6.0499 18.8058C4.95769 18.7559 3.79187 18.492 2.99745 17.6967C2.18781 16.8871 1.93908 15.7475 1.88832 14.6443C1.83925 13.574 1.8291 13.2526 1.8291 10.5419C1.8291 7.83125 1.83925 7.50976 1.88832 6.43955C1.93824 5.3431 2.19881 4.18575 2.99745 3.3871C3.80963 2.57492 4.94246 2.32873 6.0499 2.27797C7.12012 2.2289 7.4416 2.21875 10.1523 2.21875ZM10.1523 0.389648C7.39507 0.389648 7.04905 0.401493 5.96614 0.450562C4.39677 0.522474 2.8384 0.959021 1.70389 2.09354C0.565142 3.23228 0.132825 4.78727 0.0609135 6.35579C0.0118443 7.4387 0 7.78472 0 10.5419C0 13.2991 0.0118443 13.6451 0.0609135 14.728C0.132825 16.2957 0.571064 17.8583 1.70389 18.9903C2.84179 20.1282 4.39931 20.5613 5.96614 20.6332C7.04905 20.6823 7.39507 20.6942 10.1523 20.6942C12.9094 20.6942 13.2555 20.6823 14.3384 20.6332C15.9069 20.5613 17.467 20.1239 18.6006 18.9903C19.7402 17.8507 20.1717 16.2965 20.2436 14.728C20.2927 13.6451 20.3045 13.2991 20.3045 10.5419C20.3045 7.78472 20.2927 7.4387 20.2436 6.35579C20.1717 4.78642 19.7343 3.2272 18.6006 2.09354C17.4644 0.957329 15.9027 0.521628 14.3384 0.450562C13.2555 0.401493 12.9094 0.389648 10.1523 0.389648Z" fill="#423522"/>
<path d="M10.1523 5.32861C7.27326 5.32861 4.93909 7.66279 4.93909 10.5418C4.93909 13.4208 7.27326 15.755 10.1523 15.755C13.0313 15.755 15.3655 13.4208 15.3655 10.5418C15.3655 7.66279 13.0313 5.32861 10.1523 5.32861ZM10.1523 13.9259C8.28341 13.9259 6.76819 12.4107 6.76819 10.5418C6.76819 8.67294 8.28341 7.15771 10.1523 7.15771C12.0211 7.15771 13.5364 8.67294 13.5364 10.5418C13.5364 12.4107 12.0211 13.9259 10.1523 13.9259Z" fill="#423522"/>
<path d="M15.5719 6.34059C16.2447 6.34059 16.7902 5.79516 16.7902 5.12232C16.7902 4.44949 16.2447 3.90405 15.5719 3.90405C14.8991 3.90405 14.3536 4.44949 14.3536 5.12232C14.3536 5.79516 14.8991 6.34059 15.5719 6.34059Z" fill="#423522"/>
</g>
<defs>
<clipPath id="clip0_679_1653">
<rect width="20.3045" height="20.3045" fill="white" transform="translate(0 0.389648)"/>
</clipPath>
</defs>
</svg>
