{
	"asset":{
		"version":"2.0",
		"generator":"Created using the official Cinema 4D glTF Exporter 1.000x284978"
	},
	"scenes":[{
		"nodes":[0,
		1]
	}],
	"accessors":[{
		"bufferView":0,
		"count":36,
		"type":"SCALAR",
		"componentType":5123,
		"byteOffset":0,
		"min":[0],
		"max":[23]
	},
	{
		"bufferView":1,
		"count":24,
		"type":"VEC3",
		"componentType":5126,
		"byteOffset":0,
		"min":[-0.4044780433177948,
		-0.11348602175712586,
		-0.04590298607945442],
		"max":[0.4044780433177948,
		0.11348602175712586,
		0.04590298607945442]
	},
	{
		"bufferView":1,
		"count":24,
		"type":"VEC3",
		"componentType":5126,
		"byteOffset":12,
		"min":[-1.0,
		-1.0,
		-1.0],
		"max":[1.0,
		1.0,
		1.0]
	},
	{
		"bufferView":1,
		"count":24,
		"type":"VEC2",
		"componentType":5126,
		"byteOffset":24,
		"min":[0.0,
		0.0],
		"max":[1.0,
		1.0]
	},
	{
		"bufferView":2,
		"count":360,
		"type":"SCALAR",
		"componentType":5123,
		"byteOffset":0,
		"min":[0],
		"max":[151]
	},
	{
		"bufferView":3,
		"count":152,
		"type":"VEC3",
		"componentType":5126,
		"byteOffset":0,
		"min":[-0.463262677192688,
		-0.07859133929014206,
		-1.0926036834716797],
		"max":[0.45923301577568056,
		0.3199785649776459,
		0.608681857585907]
	},
	{
		"bufferView":3,
		"count":152,
		"type":"VEC3",
		"componentType":5126,
		"byteOffset":12,
		"min":[-0.9952960014343262,
		-0.9777207374572754,
		-0.9759061932563782],
		"max":[0.9979141354560852,
		0.9777215123176575,
		0.9759055972099304]
	},
	{
		"bufferView":3,
		"count":152,
		"type":"VEC2",
		"componentType":5126,
		"byteOffset":24,
		"min":[-0.07421565800905228,
		0.0],
		"max":[1.12795090675354,
		1.0]
	}],
	"nodes":[{
		"name":"Cube",
		"translation":[0.0,
		-0.06900050491094589,
		0.8744646310806274],
		"rotation":[0.0,
		0.0,
		0.0,
		-1.0],
		"scale":[1.0,
		1.0,
		1.0],
		"mesh":0
	},
	{
		"name":"유리",
		"translation":[0.0018250059802085162,
		0.2395074963569641,
		-0.08546680212020874],
		"rotation":[0.0,
		0.0,
		0.0,
		-1.0],
		"scale":[1.0,
		1.0,
		1.0],
		"mesh":1
	}],
	"meshes":[{
		"name":"Cube",
		"primitives":[{
			"attributes":{
				"POSITION":1,
				"NORMAL":2,
				"TEXCOORD_0":3
			},
			"indices":0,
			"material":0
		}]
	},
	{
		"name":"유리",
		"primitives":[{
			"attributes":{
				"POSITION":5,
				"NORMAL":6,
				"TEXCOORD_0":7
			},
			"indices":4,
			"material":0
		}]
	}],
	"bufferViews":[{
		"buffer":0,
		"byteOffset":0,
		"byteLength":72,
		"target":34963
	},
	{
		"buffer":0,
		"byteOffset":72,
		"byteLength":768,
		"target":34962,
		"byteStride":32
	},
	{
		"buffer":1,
		"byteOffset":0,
		"byteLength":720,
		"target":34963
	},
	{
		"buffer":1,
		"byteOffset":720,
		"byteLength":4864,
		"target":34962,
		"byteStride":32
	}],
	"buffers":[{
		"uri":"data:application/octet-stream;base64,",
		"byteLength":840
	},
	{
		"uri":"data:application/octet-stream;base64,",
		"byteLength":5584
	}],
	"materials":[{
		"pbrMetallicRoughness":{
			"baseColorFactor":[0.800000011920929,
			0.800000011920929,
			0.800000011920929,
			0.019999980926513673],
			"metallicFactor":1.0,
			"roughnessFactor":0.0
		},
		"emissiveFactor":[0.0,
		0.0,
		0.0],
		"alphaMode":"BLEND",
		"doubleSided":true,
		"name":"Clear_Glass"
	}]
}