{
	"textures":[{
		"sampler":0,
		"source":0
	}],
	"asset":{
		"version":"2.0",
		"generator":"Created using the official Cinema 4D glTF Exporter 1.000x284978"
	},
	"scenes":[{
		"nodes":[0]
	}],
	"nodes":[{
		"mesh":0,
		"name":"verre_phare",
		"translation":[0.2783338725566864,
		-0.05418040230870247,
		1.1846367120742798],
		"rotation":[-0.014451522380113602,
		-4.0580636995277839e-15,
		5.865132074241123e-17,
		-0.9998955726623535],
		"scale":[1.0,
		1.0,
		1.0]
	}],
	"meshes":[{
		"name":"verre_phare",
		"primitives":[{
			"material":0,
			"attributes":{
				"POSITION":1,
				"NORMAL":2,
				"TEXCOORD_0":3
			},
			"indices":0
		}]
	}],
	"accessors":[{
		"type":"SCALAR",
		"bufferView":0,
		"componentType":5123,
		"byteOffset":0,
		"count":1050,
		"min":[0],
		"max":[255]
	},
	{
		"type":"VEC3",
		"bufferView":1,
		"componentType":5126,
		"byteOffset":0,
		"count":256,
		"min":[-0.6155633926391602,
		-0.05820893868803978,
		-0.005549172405153513],
		"max":[0.05832402780652046,
		0.05820893868803978,
		0.007347778882831335]
	},
	{
		"type":"VEC3",
		"bufferView":1,
		"componentType":5126,
		"byteOffset":12,
		"count":256,
		"min":[-0.9991145730018616,
		-0.9997847676277161,
		-3.757233807321551e-16],
		"max":[0.9991145730018616,
		0.9997847676277161,
		1.0]
	},
	{
		"type":"VEC2",
		"bufferView":1,
		"componentType":5126,
		"byteOffset":24,
		"count":256,
		"min":[0.0,
		0.0],
		"max":[1.0,
		1.0]
	}],
	"bufferViews":[{
		"buffer":0,
		"byteOffset":0,
		"byteLength":2100,
		"target":34963
	},
	{
		"buffer":0,
		"byteOffset":2100,
		"byteLength":8192,
		"target":34962,
		"byteStride":32
	}],
	"buffers":[{
		"uri":"data:application/octet-stream;base64,",
		"byteLength":10292
	}],
	"images":[{
		"uri":"data:image/jpeg;base64,"
	}],
	"samplers":[{
		"magFilter":9729,
		"minFilter":9729,
		"wrapS":10497,
		"wrapT":10497
	}],
	"materials":[{
		"pbrMetallicRoughness":{
			"baseColorFactor":[0.8,
			0.6280000000000001,
			0.11200000000000002,
			1.0],
			"metallicFactor":0.0,
			"roughnessFactor":0.5
		},
		"normalTexture":{
			"index":0,
			"scale":0.2
		},
		"emissiveFactor":[0.0,
		0.0,
		0.0],
		"alphaMode":"OPAQUE",
		"doubleSided":true,
		"name":"Mat.8"
	}]
}