<svg width="34" height="34" viewBox="0 0 34 34" fill="none" xmlns="http://www.w3.org/2000/svg">
<path d="M17.0478 0.000858792C17.4189 0.024905 17.7856 0.0489512 18.1524 0.0721385C18.2125 0.0764325 18.2735 0.0764325 18.3336 0.0824441C18.6926 0.120231 19.0525 0.157159 19.4106 0.19924C19.6168 0.223286 19.8229 0.251626 20.0282 0.286837C20.1896 0.314318 20.3485 0.354681 20.5091 0.39075C20.632 0.418232 20.7548 0.444854 20.8767 0.474912C21.1249 0.535886 21.3757 0.58999 21.6205 0.663846C22.0585 0.7961 22.494 0.934366 22.9269 1.08208C23.1193 1.14821 23.3022 1.24267 23.4903 1.3234C23.6217 1.38008 23.7557 1.43075 23.8845 1.49086C24.1843 1.62999 24.4857 1.76654 24.7803 1.91597C25.0466 2.05165 25.3077 2.19765 25.5654 2.34966C25.9793 2.59355 26.3985 2.82886 26.7798 3.126C26.9301 3.2428 27.0942 3.34328 27.2436 3.46179C27.5932 3.73832 27.947 4.01056 28.2828 4.30255C28.5646 4.54816 28.8231 4.8204 29.0928 5.07976C29.5248 5.49455 29.8993 5.96002 30.2772 6.42291C30.5881 6.80335 30.8844 7.19496 31.1549 7.60632C31.4701 8.08553 31.7587 8.57934 32.0267 9.08516C32.2397 9.48708 32.4458 9.89157 32.6056 10.3192C32.6743 10.5039 32.7739 10.6765 32.8478 10.8586C32.9302 11.0621 33.0032 11.2699 33.0745 11.4786C33.1304 11.6409 33.1776 11.8067 33.2291 11.9698C33.2635 12.0772 33.3064 12.182 33.3339 12.291C33.3872 12.4997 33.4301 12.7118 33.4816 12.9214C33.5383 13.1524 33.607 13.38 33.6586 13.6119C33.6955 13.781 33.7101 13.9554 33.7384 14.1271C33.7745 14.341 33.814 14.5548 33.8527 14.7687C33.8544 14.7798 33.8561 14.7901 33.8578 14.8013C33.8827 15.0847 33.9085 15.3672 33.9326 15.6506C33.9489 15.8413 33.9669 16.0328 33.9798 16.2234C33.9892 16.3712 33.9953 16.5197 33.997 16.6674C33.9995 16.9311 34.003 17.1947 33.9953 17.4575C33.9892 17.643 33.9626 17.8285 33.9489 18.014C33.9403 18.1403 33.9429 18.2665 33.9326 18.3928C33.9214 18.5336 33.9008 18.6744 33.8836 18.8153C33.8802 18.8428 33.8767 18.8694 33.8741 18.8969C33.8484 19.1571 33.8295 19.419 33.7934 19.6775C33.7694 19.8484 33.7196 20.0159 33.6843 20.1851C33.6569 20.3173 33.6362 20.4521 33.607 20.5844C33.5684 20.7579 33.5237 20.9296 33.4842 21.1031C33.455 21.2293 33.4327 21.3573 33.4035 21.4835C33.3803 21.5832 33.3554 21.6836 33.3245 21.7807C33.2205 22.1036 33.1166 22.4256 33.0075 22.746C32.9448 22.9289 32.8907 23.1178 32.8014 23.2879C32.6056 23.6606 32.4716 24.0591 32.2809 24.4335C32.0155 24.9548 31.7338 25.4658 31.4358 25.969C31.1798 26.4001 30.8947 26.8089 30.5984 27.21C30.394 27.4865 30.1569 27.7399 29.9422 28.0095C29.5463 28.5068 29.0902 28.9465 28.6376 29.3896C28.3266 29.6936 27.9891 29.9667 27.6447 30.2321C27.4463 30.3849 27.2642 30.5601 27.0598 30.7053C26.6931 30.9663 26.322 31.2248 25.9398 31.461C25.5628 31.6946 25.1746 31.9127 24.7786 32.1137C24.3801 32.3164 23.9678 32.4933 23.5582 32.6753C23.3056 32.7878 23.0506 32.8952 22.7929 32.9948C22.634 33.0558 22.4674 33.0961 22.305 33.1477C22.2097 33.1786 22.1161 33.2172 22.0199 33.2473C21.9125 33.2816 21.8043 33.3108 21.6961 33.3418C21.5587 33.3813 21.4213 33.4233 21.283 33.4585C21.1584 33.4903 21.0305 33.5118 20.9051 33.541C20.7488 33.5779 20.5942 33.6174 20.4378 33.6561C20.4164 33.6612 20.3949 33.6647 20.3734 33.669C20.2729 33.6887 20.1733 33.7127 20.072 33.7274C19.8787 33.7557 19.6846 33.7763 19.4914 33.8038C19.4115 33.8149 19.3342 33.8364 19.2552 33.8527C19.2234 33.8587 19.1899 33.8648 19.1573 33.8656C18.7862 33.8785 18.4152 33.918 18.0476 33.9566C17.5314 34.0116 17.0186 33.9858 16.5042 33.9979C16.3358 34.0022 16.1684 33.9962 15.9992 33.9549C15.8635 33.9214 15.7149 33.9412 15.5723 33.936C15.4366 33.9309 15.3009 33.9446 15.1686 33.8862C15.1119 33.8613 15.0389 33.8742 14.9728 33.8708C14.8431 33.8639 14.7108 33.8854 14.588 33.8167C14.558 33.7995 14.5124 33.8081 14.4746 33.8055C14.3767 33.8003 14.2762 33.8141 14.1886 33.7523C14.1766 33.7437 14.1569 33.7462 14.1405 33.7437C13.9636 33.7188 13.7858 33.7007 13.6106 33.6664C13.4646 33.638 13.3229 33.5805 13.1769 33.5556C13.0652 33.5367 12.957 33.5084 12.8479 33.48C12.6933 33.4405 12.537 33.4096 12.385 33.3555C12.2794 33.3177 12.1668 33.3022 12.0578 33.2739C11.9702 33.2507 11.8817 33.2275 11.7967 33.1975C11.7022 33.164 11.6103 33.1219 11.5167 33.0867C11.338 33.0197 11.1611 32.9467 10.9781 32.8917C10.6526 32.7938 10.3486 32.6427 10.0411 32.5044C9.57388 32.294 9.11868 32.0561 8.66776 31.8122C8.11379 31.5125 7.58042 31.1759 7.06939 30.8075C6.79627 30.6108 6.54633 30.3806 6.27922 30.1745C5.64279 29.6816 5.06391 29.1268 4.5211 28.5359C4.17669 28.1607 3.86319 27.7579 3.53596 27.3671C3.22848 27.0004 2.95708 26.608 2.70714 26.2009C2.48727 25.8436 2.27427 25.4829 2.07415 25.1145C1.87145 24.7409 1.68508 24.3588 1.49956 23.9775C1.41968 23.8126 1.35956 23.6383 1.28913 23.4682C1.22644 23.3154 1.1603 23.1633 1.10018 23.0088C1.0392 22.8542 0.982515 22.6979 0.927546 22.5407C0.864848 22.363 0.800432 22.186 0.748041 22.0057C0.690496 21.809 0.646693 21.6089 0.594301 21.4106C0.561664 21.286 0.522155 21.1632 0.4878 21.0387C0.460316 20.9399 0.430255 20.8412 0.410501 20.7416C0.38044 20.587 0.358968 20.4315 0.332343 20.2761C0.305718 20.1206 0.278234 19.9661 0.251609 19.8115C0.234431 19.7101 0.216395 19.6088 0.201794 19.5066C0.163144 19.2369 0.125353 18.9673 0.0875627 18.6976C0.0841272 18.6762 0.0798328 18.6547 0.0789739 18.6324C0.0334533 17.8491 -0.0266683 17.0668 0.0128402 16.281C0.0283 15.9804 0.0325944 15.6764 0.0832683 15.381C0.119341 15.1688 0.121059 14.9567 0.146825 14.7455C0.170015 14.5574 0.21983 14.3727 0.256762 14.1872C0.261915 14.1606 0.264492 14.1331 0.265351 14.1057C0.276516 13.8987 0.328908 13.6995 0.383876 13.5011C0.413937 13.392 0.432832 13.2795 0.456881 13.1679C0.504978 12.9463 0.547063 12.723 0.604608 12.504C0.652705 12.3228 0.719698 12.1468 0.777243 11.9681C0.827916 11.8101 0.874296 11.6495 0.926688 11.4924C0.977361 11.3404 1.03233 11.1901 1.08816 11.0398C1.11392 10.9702 1.14398 10.9015 1.17404 10.8337C1.39821 10.3201 1.60005 9.7971 1.86888 9.30416C2.07071 8.93316 2.2674 8.55787 2.48555 8.19631C2.69856 7.84163 2.93131 7.49812 3.16407 7.15546C3.27143 6.99744 3.40284 6.85574 3.52136 6.70459C3.59351 6.6127 3.65621 6.51394 3.73007 6.42377C3.94908 6.15411 4.15693 5.87414 4.3957 5.62251C4.80195 5.19398 5.21765 4.77317 5.65052 4.37125C5.96144 4.0827 6.30327 3.82678 6.63652 3.56313C6.85725 3.38879 7.08914 3.2282 7.31331 3.05816C7.76165 2.71979 8.25293 2.45013 8.73647 2.16931C9.09463 1.96148 9.48284 1.8069 9.85044 1.61453C10.0995 1.48399 10.3752 1.41615 10.62 1.28475C11.0013 1.07864 11.4162 0.966141 11.8207 0.827876C12.1703 0.708504 12.5344 0.631212 12.8926 0.537604C13.1296 0.475771 13.3667 0.410503 13.6072 0.364128C13.9181 0.304013 14.2324 0.260214 14.5459 0.212122C14.7838 0.176052 15.0226 0.145136 15.2614 0.111643C15.3103 0.104773 15.3584 0.0927496 15.4082 0.0901732C15.9562 0.0592567 16.5033 0.0300577 17.0496 0L17.0478 0.000858792ZM17.9153 14.6665C17.9205 14.6639 17.9497 14.6613 17.9583 14.6458C20.029 11.069 22.0972 7.4921 24.1714 3.90665C24.1216 3.87573 24.0778 3.84481 24.0297 3.81991C23.7334 3.66533 23.4379 3.50817 23.1373 3.36045C22.9715 3.27887 22.7989 3.20759 22.6263 3.14146C22.4236 3.06331 22.2166 2.99547 22.0113 2.92333C21.7811 2.8426 21.5527 2.75415 21.3191 2.68287C21.1249 2.62361 20.918 2.603 20.7307 2.53C20.6302 2.4905 20.5297 2.49136 20.4318 2.46388C20.2936 2.42437 20.1561 2.37971 20.0153 2.35223C19.8409 2.31874 19.6631 2.29985 19.4862 2.27494C19.475 2.27322 19.4622 2.27494 19.4544 2.26893C19.3617 2.20452 19.256 2.21998 19.153 2.21483C19.104 2.21225 19.0473 2.22341 19.0061 2.2028C18.8704 2.13668 18.7278 2.15471 18.587 2.14784C18.5268 2.14526 18.4598 2.15557 18.4075 2.13324C18.2752 2.0757 18.1386 2.08858 18.0029 2.08515C17.844 2.08085 17.6843 2.08085 17.5254 2.07999C17.4721 2.07999 17.4189 2.08429 17.3459 2.08772V2.3591C17.3459 5.14159 17.3459 7.92494 17.3459 10.7074C17.3459 11.9097 17.3459 13.1112 17.3467 14.3135C17.3467 14.3873 17.3235 14.4698 17.382 14.5162C17.5666 14.5677 17.7341 14.6149 17.9153 14.6656V14.6665ZM9.8221 3.90493C9.99473 4.19348 10.1579 4.46057 10.316 4.73023C10.5307 5.09436 10.742 5.4602 10.9541 5.82605C11.1113 6.09743 11.2676 6.36966 11.4222 6.6419C11.703 7.13485 11.9813 7.62951 12.2639 8.1216C12.5164 8.5613 12.7775 8.99585 13.03 9.43469C13.4062 10.09 13.7755 10.7486 14.1526 11.403C14.4386 11.8994 14.734 12.3915 15.0235 12.8862C15.3533 13.4513 15.6797 14.0189 16.0095 14.584C16.0318 14.6218 16.0696 14.6493 16.085 14.6656C16.2852 14.6098 16.4578 14.5625 16.6279 14.5153C16.6691 14.3822 16.6717 2.23973 16.6296 2.08429C16.4131 2.08429 16.195 2.08257 15.976 2.08429C15.8884 2.08515 15.8008 2.09116 15.714 2.10061C15.6118 2.11263 15.5113 2.13496 15.4091 2.14612C15.166 2.1736 14.9221 2.19593 14.6791 2.2217C14.6627 2.22341 14.6473 2.23028 14.6318 2.23286C14.4472 2.26979 14.2634 2.30843 14.0787 2.3445C13.9353 2.37198 13.791 2.39431 13.6484 2.42351C13.5539 2.44241 13.4603 2.46645 13.3676 2.49222C13.2396 2.52828 13.1133 2.57208 12.9853 2.60729C12.8763 2.63735 12.7646 2.65624 12.6564 2.68716C12.5293 2.72409 12.4039 2.76703 12.2776 2.80911C12.1308 2.85806 11.9839 2.90358 11.8396 2.95854C11.6378 3.03583 11.4376 3.11913 11.2384 3.20244C11.0632 3.27629 10.8871 3.35015 10.7153 3.43087C10.5384 3.51418 10.3658 3.60521 10.1923 3.69624C10.0729 3.75893 9.95694 3.82678 9.8221 3.90235V3.90493ZM16.6588 31.9368C16.6588 31.8389 16.6588 31.7684 16.6588 31.6972C16.6588 29.2161 16.6588 26.7359 16.6588 24.2549C16.6588 22.74 16.6588 21.225 16.6579 19.7101C16.6579 19.6363 16.6459 19.5633 16.6416 19.5083C16.4389 19.4542 16.2637 19.407 16.0644 19.3537C13.9791 22.9246 11.9238 26.5298 9.82897 30.1282C11.4694 31.0539 13.231 31.5993 15.087 31.8475C15.5998 31.9162 16.1177 31.9737 16.6588 31.9359V31.9368ZM17.3742 19.5075C17.3897 19.4946 17.3845 19.4972 17.382 19.5015C17.3759 19.51 17.3699 19.5195 17.3648 19.5289C17.3622 19.5341 17.3596 19.5384 17.3579 19.5435C17.3545 19.5538 17.351 19.5641 17.3493 19.5753C17.3476 19.5865 17.3467 19.5968 17.3467 19.6079C17.3467 19.6303 17.3467 19.6517 17.3467 19.6741C17.3485 23.7473 17.351 27.8206 17.3527 31.8938C17.3527 31.899 17.3545 31.905 17.357 31.9093C17.3596 31.9136 17.3648 31.917 17.3768 31.9299C17.3931 31.9342 17.4189 31.9454 17.4455 31.9462C17.9127 31.9574 18.3774 31.9101 18.8403 31.8543C19.1925 31.8114 19.5429 31.7444 19.8916 31.6774C20.224 31.6139 20.5564 31.5469 20.8827 31.4601C21.2194 31.3708 21.5492 31.2575 21.8816 31.1518C22.3231 31.011 22.7508 30.8375 23.1708 30.6426C23.3864 30.5421 23.6028 30.4442 23.815 30.3386C23.9395 30.2759 24.0572 30.1994 24.186 30.1256C24.0108 29.8344 23.8442 29.5613 23.6818 29.2848C23.4748 28.931 23.2713 28.5746 23.066 28.2199C22.8805 27.8996 22.6941 27.5793 22.5103 27.2572C22.2518 26.8055 21.9976 26.352 21.7382 25.902C21.6325 25.7174 21.5149 25.5405 21.4075 25.3567C21.1988 24.9994 20.9935 24.6396 20.7883 24.2806C20.4439 23.6795 20.1003 23.0775 19.7559 22.4772C19.5592 22.1354 19.3617 21.7936 19.1624 21.4526C19.0181 21.2053 18.8695 20.9597 18.727 20.7106C18.5225 20.3551 18.3241 19.997 18.1197 19.6414C18.0596 19.5375 17.9892 19.4396 17.9351 19.3563C17.7384 19.4104 17.5692 19.4568 17.3759 19.5092L17.3742 19.5075ZM14.6584 16.0895C14.637 16.0723 14.6035 16.0397 14.5648 16.0165C14.302 15.8619 14.0383 15.709 13.7747 15.5562C13.292 15.2745 12.8093 14.9911 12.3257 14.7111C11.7056 14.3521 11.0855 13.9949 10.4637 13.6393C9.90884 13.3224 9.34971 13.0124 8.79745 12.6921C8.52347 12.5332 8.26237 12.3546 7.9798 12.2069C7.5538 11.9844 7.14325 11.7328 6.72756 11.4906C6.43983 11.3232 6.15726 11.148 5.86954 10.9814C5.57408 10.8096 5.27347 10.6456 4.97716 10.4747C4.69974 10.3141 4.42576 10.1483 4.1492 9.98604C4.06675 9.93794 3.98086 9.89501 3.89669 9.84949C3.86835 9.88556 3.84344 9.90875 3.82884 9.93709C3.68455 10.2162 3.53081 10.491 3.40198 10.777C3.22419 11.1712 3.05843 11.5705 2.91585 11.981C2.79733 12.322 2.68395 12.662 2.59807 13.0124C2.57402 13.112 2.54396 13.2099 2.51905 13.3096C2.4804 13.4616 2.44003 13.6127 2.40568 13.7647C2.37476 13.9021 2.35243 14.0413 2.32494 14.1795C2.28801 14.3659 2.23905 14.5497 2.21329 14.7377C2.17807 15.0022 2.15918 15.2693 2.13341 15.5356C2.1317 15.5519 2.12998 15.5682 2.12654 15.5845C2.04065 15.9306 2.08102 16.2818 2.08016 16.6314C2.08016 16.64 2.09047 16.6494 2.09648 16.658C2.3404 16.6941 14.3999 16.6803 14.5073 16.6468C14.5571 16.4656 14.6052 16.2896 14.6602 16.0903L14.6584 16.0895ZM30.1191 9.84434C29.9439 9.9431 29.7824 10.0307 29.6244 10.1243C29.3006 10.3167 28.9811 10.5151 28.6565 10.7048C28.3524 10.8835 28.0432 11.0535 27.7366 11.2278C27.4609 11.385 27.1852 11.5422 26.9086 11.6985C26.5728 11.8883 26.2353 12.0746 25.902 12.2678C25.6968 12.3864 25.4984 12.5195 25.2931 12.638C24.7391 12.9566 24.1826 13.2701 23.6286 13.587C22.8221 14.049 22.0173 14.5127 21.2117 14.9756C20.6405 15.3045 20.0694 15.6335 19.4999 15.9649C19.4381 16.001 19.3866 16.0534 19.3445 16.0869C19.4012 16.2913 19.4519 16.4716 19.5042 16.6614H31.9211C31.9262 16.6116 31.9339 16.5695 31.9339 16.5266C31.9314 16.3067 31.9279 16.0878 31.9228 15.8679C31.9219 15.8129 31.9159 15.758 31.9082 15.7039C31.8721 15.4342 31.8352 15.1646 31.7991 14.894C31.7725 14.6939 31.7476 14.4947 31.7218 14.2946C31.7201 14.2834 31.7158 14.2731 31.7132 14.2628C31.6763 14.1108 31.6368 13.9588 31.6033 13.8059C31.5732 13.6685 31.5543 13.5286 31.5243 13.3903C31.5019 13.2898 31.471 13.1919 31.4427 13.094C31.4092 12.9806 31.3722 12.8681 31.3387 12.7548C31.2872 12.5787 31.2451 12.3992 31.1867 12.2258C31.1111 12.0033 31.027 11.7826 30.9394 11.5645C30.8414 11.3223 30.7375 11.0819 30.6302 10.8431C30.534 10.6301 30.4335 10.4197 30.3287 10.211C30.266 10.0865 30.1921 9.96886 30.12 9.8409L30.1191 9.84434ZM4.23251 24.7925C5.16697 26.3847 6.39689 27.672 7.78999 28.8073C8.22974 29.1654 8.70384 29.4892 9.20972 29.7709C9.24579 29.7237 9.27413 29.6919 9.29561 29.655C9.36517 29.5364 9.43131 29.4162 9.50002 29.2977C9.79719 28.7859 10.0952 28.274 10.3924 27.7613C10.8236 27.0167 11.2538 26.273 11.6833 25.5276C12.0689 24.8586 12.452 24.1887 12.8359 23.5197C13.231 22.8319 13.6244 22.1422 14.0229 21.4561C14.284 21.0069 14.5537 20.5629 14.8182 20.1155C14.9848 19.8338 15.1497 19.5504 15.3103 19.2653C15.3627 19.1725 15.4005 19.0729 15.4332 19.0025C15.2829 18.8522 15.1532 18.7217 15.0046 18.5731C14.1156 19.0566 13.2361 19.6045 12.336 20.1155C11.4445 20.6205 10.5556 21.1289 9.67609 21.6544C8.76825 22.1963 7.84066 22.7039 6.92424 23.232C6.03015 23.7465 5.13949 24.2678 4.23251 24.7942V24.7925ZM29.7756 24.7942C29.627 24.7109 29.4973 24.6413 29.3702 24.5666C28.86 24.2669 28.3524 23.962 27.8397 23.6666C27.1972 23.2965 26.5488 22.9375 25.9072 22.5656C25.2733 22.1989 24.6472 21.8211 24.0142 21.4535C23.6543 21.2448 23.2867 21.049 22.926 20.842C22.4837 20.5878 22.0457 20.3259 21.6042 20.0691C21.1928 19.8295 20.7797 19.5933 20.3683 19.3555C20.0033 19.1442 19.6391 18.9321 19.2732 18.7234C19.1719 18.6658 19.0654 18.6178 18.976 18.5722C18.8249 18.7174 18.6917 18.8445 18.5621 18.969C18.5758 19.0128 18.5809 19.0532 18.5998 19.0858C18.824 19.4714 19.0508 19.8553 19.2741 20.24C19.4149 20.4831 19.5506 20.7304 19.6923 20.9734C19.9225 21.3702 20.1578 21.7652 20.3863 22.1629C20.7951 22.8731 21.1997 23.5859 21.6076 24.297C21.9392 24.8749 22.2724 25.452 22.6057 26.0283C23.0548 26.8055 23.5049 27.5818 23.9532 28.3582C24.1654 28.7257 24.3741 29.0959 24.5879 29.4634C24.6489 29.5674 24.7202 29.6653 24.7984 29.7829C26.8537 28.5145 28.4933 26.8613 29.7773 24.7951L29.7756 24.7942ZM9.21058 4.2493C7.14669 5.52719 5.49764 7.16662 4.23853 9.21999C4.29693 9.26122 4.34245 9.299 4.39226 9.3282C4.613 9.45702 4.83545 9.58412 5.0579 9.71122C5.36452 9.88642 5.67371 10.0573 5.97776 10.2368C6.31444 10.4343 6.6451 10.643 6.98178 10.8397C7.35797 11.0595 7.73932 11.2716 8.11808 11.4881C8.39378 11.6452 8.66776 11.805 8.94346 11.963C9.46223 12.2601 9.98099 12.5573 10.4998 12.8544C11.192 13.252 11.8843 13.6488 12.5748 14.0498C13.0343 14.3169 13.4904 14.59 13.9482 14.8597C14.2213 15.0211 14.4884 15.1929 14.7701 15.3372C14.856 15.381 14.9445 15.4797 15.014 15.4471C15.1712 15.2882 15.2906 15.1671 15.4254 15.0306C15.4203 15.0108 15.4177 14.9576 15.3945 14.9172C15.1721 14.5342 14.9427 14.1546 14.722 13.7707C14.3432 13.1129 13.9731 12.4508 13.5926 11.7938C13.2104 11.1351 12.8161 10.4833 12.4357 9.82372C12.0861 9.21828 11.7529 8.60252 11.4033 7.99707C10.9532 7.21729 10.492 6.44352 10.0385 5.66459C9.82725 5.30218 9.62541 4.93548 9.41671 4.57221C9.35659 4.46744 9.28616 4.36782 9.20972 4.2493H9.21058ZM24.801 4.25532C24.7614 4.30942 24.7279 4.34892 24.7022 4.39358C24.3174 5.05485 23.9318 5.71698 23.5496 6.37997C23.2163 6.95708 22.8899 7.53848 22.555 8.11559C22.1831 8.7571 21.8035 9.39519 21.4316 10.0367C21.2289 10.3862 21.0365 10.7426 20.8338 11.093C20.5813 11.5301 20.321 11.9621 20.0668 12.3984C19.7705 12.9076 19.4759 13.4186 19.1822 13.9305C19.0035 14.2414 18.8283 14.5531 18.6531 14.8657C18.6179 14.9284 18.5913 14.9962 18.5612 15.0624C18.5749 15.0581 18.5895 15.0546 18.6033 15.0503C18.7218 15.1731 18.8403 15.2959 18.9769 15.4376C19.0765 15.4548 19.1667 15.3664 19.2646 15.3097C19.6176 15.1053 19.9663 14.8923 20.3202 14.6888C20.8621 14.3762 21.4067 14.0696 21.9486 13.757C22.6726 13.3396 23.395 12.918 24.1181 12.498C24.4969 12.2782 24.8757 12.0574 25.2553 11.8393C25.6392 11.6186 26.0257 11.4005 26.4105 11.1806C26.7437 10.99 27.0778 10.8019 27.4094 10.6078C27.6516 10.4661 27.8878 10.3132 28.1308 10.1724C28.6255 9.88642 29.1228 9.60559 29.6193 9.32219C29.6691 9.29385 29.7129 9.25606 29.7678 9.21656C28.5036 7.16147 26.8528 5.52375 24.8027 4.25617L24.801 4.25532ZM19.3393 17.9599C22.9337 20.0356 26.5239 22.1096 30.114 24.1836C30.1406 24.1467 30.1672 24.1183 30.1844 24.0857C30.3046 23.853 30.4326 23.6245 30.5391 23.3849C30.7221 22.9736 30.9024 22.5605 31.0622 22.1397C31.1747 21.8442 31.2511 21.5351 31.343 21.2319C31.3714 21.1392 31.4014 21.0473 31.4272 20.9545C31.4641 20.8197 31.5011 20.6849 31.5337 20.5492C31.5638 20.4229 31.5844 20.2941 31.6136 20.167C31.6488 20.0142 31.6986 19.8647 31.7244 19.711C31.7596 19.5023 31.7776 19.2902 31.8034 19.0798C31.8051 19.0635 31.8051 19.0463 31.8094 19.0308C31.8979 18.7517 31.8721 18.4572 31.9185 18.1712C31.9546 17.9513 31.9331 17.722 31.9357 17.497C31.9357 17.4558 31.9245 17.4146 31.9176 17.3631C31.8403 17.3631 31.775 17.3631 31.7098 17.3631C29.4372 17.3631 27.1646 17.3631 24.892 17.3631C23.1519 17.3631 21.4118 17.3631 19.6717 17.3639C19.609 17.3639 19.5463 17.3742 19.5025 17.3785C19.4467 17.5786 19.3977 17.7547 19.3402 17.9591L19.3393 17.9599ZM14.5038 17.3897C14.3673 17.3536 2.23047 17.351 2.08274 17.388C2.07844 17.4026 2.07157 17.418 2.07071 17.4335C2.04237 17.923 2.12397 18.4056 2.15231 18.8917C2.15231 18.8969 2.15403 18.9029 2.15488 18.908C2.19268 19.1219 2.23304 19.3349 2.26912 19.5495C2.29746 19.7204 2.32065 19.8931 2.34727 20.0648C2.34985 20.0811 2.35672 20.0966 2.36102 20.1121C2.39709 20.2529 2.43488 20.3937 2.46838 20.5346C2.49844 20.6608 2.51905 20.7896 2.55169 20.915C2.5869 21.0499 2.6307 21.183 2.67107 21.3161C2.72089 21.481 2.76383 21.6476 2.82052 21.8099C2.89524 22.022 2.97855 22.2316 3.06186 22.4411C3.15977 22.685 3.25769 22.9289 3.36419 23.1685C3.4621 23.3883 3.56688 23.6048 3.67596 23.8195C3.73952 23.9466 3.81596 24.0668 3.88467 24.1887C7.48251 22.0881 11.0915 20.0459 14.6602 17.9531C14.6061 17.7564 14.5571 17.5803 14.5047 17.3905L14.5038 17.3897ZM15.6857 17.0032C15.7106 17.7263 16.2293 18.3086 16.9834 18.3215C17.7272 18.3344 18.3044 17.7478 18.3113 17.0393C18.319 16.2741 17.7289 15.7082 17.0186 15.6987C16.2843 15.6893 15.72 16.2612 15.6848 17.0032H15.6857Z" fill="#423522"/>
</svg>
