<svg width="21" height="21" viewBox="0 0 21 21" fill="none" xmlns="http://www.w3.org/2000/svg">
<g clip-path="url(#clip0_679_1659)">
<path d="M6.00342 5.38916L13.7699 15.5435H14.9599L7.28179 5.38916H6.00342Z" fill="#423522"/>
<path d="M10.5 0C4.70138 0 0 4.70138 0 10.5C0 16.2986 4.70138 21 10.5 21C16.2986 21 21 16.2986 21 10.5C21 4.70138 16.2986 0 10.5 0ZM13.1801 16.828L9.79387 12.4049L5.92462 16.828H3.77388L8.79025 11.0933L3.5 4.172H7.92925L10.9865 8.21537L14.5241 4.172H16.6723L11.9814 9.53225L17.5 16.8271L13.1801 16.828Z" fill="#423522"/>
</g>
<defs>
<clipPath id="clip0_679_1659">
<rect width="21" height="21" fill="white"/>
</clipPath>
</defs>
</svg>
