{
	"asset":{
		"version":"2.0",
		"generator":"Created using the official Cinema 4D glTF Exporter 1.000x284978"
	},
	"scenes":[{
		"nodes":[0]
	}],
	"nodes":[{
		"name":"Null.11",
		"translation":[0.0,
		0.0,
		0.0],
		"rotation":[0.0,
		0.0,
		0.0,
		-1.0],
		"scale":[1.0,
		1.0,
		1.0],
		"mesh":0
	}],
	"buffers":[{
		"uri":"data:application/octet-stream;base64,",
		"byteLength":2510532
	}],
	"meshes":[{
		"name":"Null.11",
		"primitives":[{
			"attributes":{
				"POSITION":1,
				"NORMAL":2,
				"TEXCOORD_0":3
			},
			"indices":0,
			"material":0
		}]
	}],
	"accessors":[{
		"bufferView":0,
		"type":"SCALAR",
		"componentType":5123,
		"count":320481,
		"byteOffset":0,
		"min":[0],
		"max":[58423]
	},
	{
		"bufferView":1,
		"type":"VEC3",
		"componentType":5126,
		"count":58424,
		"byteOffset":0,
		"min":[-1.1904633045196534,
		-0.7308533191680908,
		-2.422316074371338],
		"max":[1.1904633045196534,
		1.010474443435669,
		2.452040195465088]
	},
	{
		"bufferView":1,
		"type":"VEC3",
		"componentType":5126,
		"count":58424,
		"byteOffset":12,
		"min":[-0.9999959468841553,
		-1.0,
		-1.0],
		"max":[0.9999960064888,
		1.0,
		1.0]
	},
	{
		"bufferView":1,
		"type":"VEC2",
		"componentType":5126,
		"count":58424,
		"byteOffset":24,
		"min":[0.0,
		0.0],
		"max":[1.0435354709625245,
		1.0]
	}],
	"bufferViews":[{
		"buffer":0,
		"byteOffset":0,
		"byteLength":640962,
		"target":34963
	},
	{
		"buffer":0,
		"byteStride":32,
		"byteOffset":640964,
		"byteLength":1869568,
		"target":34962
	}],
	"materials":[{
		"alphaMode":"OPAQUE",
		"pbrMetallicRoughness":{
			"baseColorFactor":[0.800000011920929,
			0.800000011920929,
			0.800000011920929,
			1.0],
			"metallicFactor":0.0,
			"roughnessFactor":0.5356143810225276
		},
		"emissiveFactor":[0.0,
		0.0,
		0.0],
		"doubleSided":true,
		"name":"Mat"
	}]
}