{
	"asset":{
		"version":"2.0",
		"generator":"Created using the official Cinema 4D glTF Exporter 1.000x284978"
	},
	"nodes":[{
		"name":"Object001_id_3.3",
		"translation":[-0.06416215747594834,
		-0.11336521804332733,
		1.108736276626587],
		"rotation":[0.7071067690849304,
		0.0,
		0.0,
		-0.7071067690849304],
		"scale":[1.0,
		1.0,
		1.0],
		"mesh":0
	},
	{
		"name":"Object001_id_3.2",
		"translation":[0.701455295085907,
		-0.11336521804332733,
		1.108736276626587],
		"rotation":[0.7071067690849304,
		0.0,
		0.0,
		-0.7071067690849304],
		"scale":[1.0,
		1.0,
		1.0],
		"mesh":1
	}],
	"scenes":[{
		"nodes":[0,
		1]
	}],
	"meshes":[{
		"name":"Object001_id_3.3",
		"primitives":[{
			"attributes":{
				"POSITION":1,
				"NORMAL":2,
				"TEXCOORD_0":3
			},
			"indices":0,
			"material":0
		}]
	},
	{
		"name":"Object001_id_3.2",
		"primitives":[{
			"attributes":{
				"POSITION":5,
				"NORMAL":6,
				"TEXCOORD_0":7
			},
			"indices":4,
			"material":0
		}]
	}],
	"accessors":[{
		"bufferView":0,
		"type":"SCALAR",
		"componentType":5123,
		"count":3264,
		"byteOffset":0,
		"min":[0],
		"max":[690]
	},
	{
		"bufferView":1,
		"type":"VEC3",
		"componentType":5126,
		"count":691,
		"byteOffset":0,
		"min":[-0.3855091631412506,
		-0.05689341574907303,
		-0.007480342872440815],
		"max":[-0.2533109188079834,
		-0.042999181896448138,
		0.12471790611743927]
	},
	{
		"bufferView":1,
		"type":"VEC3",
		"componentType":5126,
		"count":691,
		"byteOffset":12,
		"min":[-0.9311484098434448,
		-1.0,
		-0.9311481714248657],
		"max":[0.9311467409133911,
		0.9999999403953552,
		0.9311473965644836]
	},
	{
		"bufferView":1,
		"type":"VEC2",
		"componentType":5126,
		"count":691,
		"byteOffset":24,
		"min":[0.0,
		0.0],
		"max":[1.000000238418579,
		0.5]
	},
	{
		"bufferView":2,
		"type":"SCALAR",
		"componentType":5123,
		"count":3264,
		"byteOffset":0,
		"min":[0],
		"max":[690]
	},
	{
		"bufferView":3,
		"type":"VEC3",
		"componentType":5126,
		"count":691,
		"byteOffset":0,
		"min":[-0.3855091631412506,
		-0.05689341574907303,
		-0.007480342872440815],
		"max":[-0.2533109188079834,
		-0.042999181896448138,
		0.12471790611743927]
	},
	{
		"bufferView":3,
		"type":"VEC3",
		"componentType":5126,
		"count":691,
		"byteOffset":12,
		"min":[-0.9311484098434448,
		-1.0,
		-0.9311481714248657],
		"max":[0.9311467409133911,
		0.9999999403953552,
		0.9311473965644836]
	},
	{
		"bufferView":3,
		"type":"VEC2",
		"componentType":5126,
		"count":691,
		"byteOffset":24,
		"min":[0.0,
		0.0],
		"max":[1.000000238418579,
		0.5]
	}],
	"bufferViews":[{
		"buffer":0,
		"byteOffset":0,
		"byteLength":6528,
		"target":34963
	},
	{
		"buffer":0,
		"byteOffset":6528,
		"byteLength":22112,
		"target":34962,
		"byteStride":32
	},
	{
		"buffer":1,
		"byteOffset":0,
		"byteLength":6528,
		"target":34963
	},
	{
		"buffer":1,
		"byteOffset":6528,
		"byteLength":22112,
		"target":34962,
		"byteStride":32
	}],
	"buffers":[{
		"uri":"data:application/octet-stream;base64,",
		"byteLength":28640
	},
	{
		"uri":"data:application/octet-stream;base64,",
		"byteLength":28640
	}],
	"materials":[{
		"pbrMetallicRoughness":{
			"baseColorFactor":[0.800000011920929,
			0.800000011920929,
			0.800000011920929,
			0.019999980926513673],
			"metallicFactor":1.0,
			"roughnessFactor":0.0
		},
		"emissiveFactor":[0.0,
		0.0,
		0.0],
		"alphaMode":"BLEND",
		"doubleSided":true,
		"name":"Clear_Glass"
	}]
}