{
	"asset":{
		"version":"2.0",
		"generator":"Created using the official Cinema 4D glTF Exporter 1.000x284978"
	},
	"nodes":[{
		"name":"Retopo_유리",
		"translation":[0.21490465104579926,
		-0.12753430008888246,
		0.20612506568431855],
		"rotation":[0.0,
		0.0,
		0.0,
		-1.0],
		"scale":[1.0,
		1.0,
		1.0],
		"mesh":0
	}],
	"scenes":[{
		"nodes":[0]
	}],
	"meshes":[{
		"name":"Retopo_유리",
		"primitives":[{
			"attributes":{
				"POSITION":1,
				"NORMAL":2
			},
			"indices":0,
			"material":0
		}]
	}],
	"accessors":[{
		"bufferView":0,
		"type":"SCALAR",
		"componentType":5123,
		"count":17760,
		"byteOffset":0,
		"min":[0],
		"max":[3254]
	},
	{
		"bufferView":1,
		"type":"VEC3",
		"componentType":5126,
		"count":3255,
		"byteOffset":0,
		"min":[-0.6830960512161255,
		0.19347414374351502,
		-1.05971097946167],
		"max":[0.2532540261745453,
		0.4970950782299042,
		0.45327460765838625]
	},
	{
		"bufferView":1,
		"type":"VEC3",
		"componentType":5126,
		"count":3255,
		"byteOffset":12,
		"min":[-0.9990893602371216,
		0.03590366244316101,
		-0.8382169008255005],
		"max":[0.9990220069885254,
		0.5998604893684387,
		0.8197059631347656]
	}],
	"bufferViews":[{
		"buffer":0,
		"byteOffset":0,
		"byteLength":35520,
		"target":34963
	},
	{
		"buffer":0,
		"byteOffset":35520,
		"byteLength":78120,
		"target":34962,
		"byteStride":24
	}],
	"buffers":[{
		"uri":"data:application/octet-stream;base64,",
		"byteLength":113640
	}],
	"materials":[{
		"pbrMetallicRoughness":{
			"baseColorFactor":[1.0,
			1.0,
			1.0,
			1.0],
			"metallicFactor":1.0,
			"roughnessFactor":1.0
		},
		"emissiveFactor":[0.0,
		0.0,
		0.0],
		"alphaMode":"OPAQUE",
		"doubleSided":true,
		"name":""
	}]
}