<?xml version="1.0" encoding="utf-8"?>
<!-- Generator: Adobe Illustrator 28.3.0, SVG Export Plug-In . SVG Version: 6.00 Build 0)  -->
<svg version="1.1" id="Layer_1" xmlns="http://www.w3.org/2000/svg" xmlns:xlink="http://www.w3.org/1999/xlink" x="0px" y="0px"
	 viewBox="0 0 192.8 192.8" style="enable-background:new 0 0 192.8 192.8;" xml:space="preserve">
<style type="text/css">
	.st0{fill:#FF0000;}
</style>
<path class="st0" d="M96.4,12c0.7,0,1.4,0,2.2,0c0.7,0,1.4,0.1,2.2,0.1c0.7,0,1.4,0.1,2.2,0.1c0.7,0.1,1.4,0.1,2.1,0.2
	s1.4,0.1,2.1,0.2c0.7,0.1,1.4,0.2,2.1,0.3c0.7,0.1,1.4,0.2,2.1,0.4c0.7,0.1,1.4,0.3,2.1,0.4c0.7,0.1,1.4,0.3,2.1,0.4s1.4,0.3,2,0.5
	s1.3,0.4,2,0.6c0.7,0.2,1.3,0.4,2,0.6c0.7,0.2,1.3,0.4,2,0.6c0.7,0.2,1.3,0.5,1.9,0.7s1.3,0.5,1.9,0.7s1.3,0.5,1.9,0.8
	s1.3,0.5,1.9,0.8c0.6,0.3,1.2,0.6,1.9,0.9c0.6,0.3,1.2,0.6,1.8,0.9s1.2,0.6,1.8,1c0.6,0.3,1.2,0.7,1.8,1s1.2,0.7,1.8,1
	c0.6,0.4,1.2,0.7,1.7,1.1c0.6,0.4,1.1,0.7,1.7,1.1s1.1,0.8,1.7,1.2s1.1,0.8,1.6,1.2s1.1,0.8,1.6,1.2c0.5,0.4,1.1,0.8,1.6,1.3
	s1,0.9,1.6,1.3c0.5,0.4,1,0.9,1.5,1.3c0.5,0.5,1,0.9,1.5,1.4c0.5,0.5,1,0.9,1.4,1.4s0.9,1,1.4,1.5s0.9,1,1.4,1.5
	c0.4,0.5,0.9,1,1.4,1.5c0.4,0.5,0.9,1,1.3,1.5s0.9,1,1.3,1.6c0.4,0.5,0.8,1.1,1.2,1.6c0.4,0.5,0.8,1.1,1.2,1.6
	c0.4,0.5,0.8,1.1,1.2,1.7c0.4,0.6,0.8,1.1,1.1,1.7s0.7,1.2,1.1,1.7c0.4,0.6,0.7,1.2,1,1.8s0.7,1.2,1,1.8s0.6,1.2,0.9,1.8
	s0.6,1.2,0.9,1.8s0.6,1.2,0.9,1.9c0.3,0.6,0.6,1.2,0.8,1.9c0.3,0.6,0.5,1.3,0.8,1.9c0.2,0.6,0.5,1.3,0.7,1.9
	c0.2,0.7,0.5,1.3,0.7,1.9c0.2,0.7,0.4,1.3,0.6,2s0.4,1.3,0.6,2s0.4,1.3,0.6,2c0.2,0.7,0.3,1.3,0.5,2s0.3,1.4,0.4,2.1
	s0.3,1.4,0.4,2.1c0.1,0.7,0.2,1.4,0.4,2.1c0.1,0.7,0.2,1.4,0.3,2.1c0.1,0.7,0.2,1.4,0.2,2.1s0.1,1.4,0.2,2.1s0.1,1.4,0.1,2.2
	s0.1,1.4,0.1,2.2s0,1.4,0,2.2s0,1.4,0,2.2c0,0.7-0.1,1.4-0.1,2.2c0,0.7-0.1,1.4-0.1,2.2c-0.1,0.7-0.1,1.4-0.2,2.1s-0.1,1.4-0.2,2.1
	c-0.1,0.7-0.2,1.4-0.3,2.1c-0.1,0.7-0.2,1.4-0.4,2.1c-0.1,0.7-0.3,1.4-0.4,2.1s-0.3,1.4-0.4,2.1s-0.3,1.4-0.5,2s-0.4,1.3-0.6,2
	s-0.4,1.3-0.6,2s-0.4,1.3-0.6,2s-0.4,1.3-0.7,1.9c-0.2,0.7-0.5,1.3-0.7,1.9s-0.5,1.3-0.8,1.9s-0.5,1.3-0.8,1.9
	c-0.3,0.6-0.6,1.2-0.9,1.9c-0.3,0.6-0.6,1.2-0.9,1.8c-0.3,0.6-0.6,1.2-0.9,1.8c-0.3,0.6-0.7,1.2-1,1.8s-0.7,1.2-1,1.8
	c-0.4,0.6-0.7,1.2-1.1,1.7c-0.4,0.6-0.7,1.1-1.1,1.7c-0.4,0.6-0.8,1.1-1.2,1.7s-0.8,1.1-1.2,1.6s-0.8,1.1-1.2,1.6
	c-0.4,0.5-0.8,1.1-1.3,1.6s-0.9,1-1.3,1.6c-0.4,0.5-0.9,1-1.4,1.5c-0.4,0.5-0.9,1-1.4,1.5c-0.5,0.5-0.9,1-1.4,1.4s-1,0.9-1.4,1.4
	c-0.5,0.5-1,0.9-1.5,1.4c-0.5,0.4-1,0.9-1.5,1.4c-0.5,0.4-1,0.9-1.6,1.3s-1.1,0.9-1.6,1.3s-1.1,0.8-1.6,1.2
	c-0.5,0.4-1.1,0.8-1.6,1.2c-0.6,0.4-1.1,0.8-1.7,1.2s-1.1,0.8-1.7,1.1c-0.6,0.4-1.1,0.7-1.7,1.1s-1.2,0.7-1.8,1s-1.2,0.7-1.8,1
	s-1.2,0.6-1.8,0.9s-1.2,0.6-1.8,0.9s-1.2,0.6-1.9,0.9c-0.6,0.3-1.2,0.6-1.9,0.8c-0.6,0.3-1.3,0.5-1.9,0.8c-0.6,0.2-1.3,0.5-1.9,0.7
	c-0.7,0.2-1.3,0.5-1.9,0.7s-1.3,0.4-2,0.6c-0.7,0.2-1.3,0.4-2,0.6s-1.3,0.4-2,0.6c-0.7,0.2-1.3,0.3-2,0.5s-1.4,0.3-2.1,0.4
	s-1.4,0.3-2.1,0.4c-0.7,0.1-1.4,0.2-2.1,0.4c-0.7,0.1-1.4,0.2-2.1,0.3c-0.7,0.1-1.4,0.2-2.1,0.2s-1.4,0.1-2.1,0.2s-1.4,0.1-2.2,0.1
	s-1.4,0.1-2.2,0.1s-1.4,0-2.2,0s-1.4,0-2.2,0c-0.7,0-1.4-0.1-2.2-0.1c-0.7,0-1.4-0.1-2.2-0.1c-0.7-0.1-1.4-0.1-2.1-0.2
	s-1.4-0.1-2.1-0.2c-0.7-0.1-1.4-0.2-2.1-0.3c-0.7-0.1-1.4-0.2-2.1-0.4c-0.7-0.1-1.4-0.3-2.1-0.4s-1.4-0.3-2.1-0.4s-1.4-0.3-2-0.5
	c-0.7-0.2-1.3-0.4-2-0.6c-0.7-0.2-1.3-0.4-2-0.6s-1.3-0.4-2-0.6s-1.3-0.4-1.9-0.7c-0.7-0.2-1.3-0.5-1.9-0.7s-1.3-0.5-1.9-0.8
	c-0.6-0.3-1.3-0.5-1.9-0.8c-0.6-0.3-1.2-0.6-1.9-0.9c-0.6-0.3-1.2-0.6-1.8-0.9s-1.2-0.6-1.8-0.9c-0.6-0.3-1.2-0.7-1.8-1
	s-1.2-0.7-1.8-1c-0.6-0.4-1.2-0.7-1.7-1.1s-1.1-0.7-1.7-1.1c-0.6-0.4-1.1-0.8-1.7-1.2s-1.1-0.8-1.6-1.2s-1.1-0.8-1.6-1.2
	c-0.5-0.4-1.1-0.8-1.6-1.3c-0.5-0.4-1-0.9-1.5-1.3s-1-0.9-1.5-1.4c-0.5-0.4-1-0.9-1.5-1.4c-0.5-0.5-1-0.9-1.5-1.4s-1-1-1.4-1.4
	c-0.5-0.5-0.9-1-1.4-1.5s-0.9-1-1.3-1.5c-0.4-0.5-0.9-1-1.3-1.6s-0.9-1.1-1.3-1.6s-0.8-1.1-1.2-1.6c-0.4-0.5-0.8-1.1-1.2-1.6
	c-0.4-0.6-0.8-1.1-1.2-1.7s-0.8-1.1-1.1-1.7c-0.4-0.6-0.7-1.1-1.1-1.7s-0.7-1.2-1-1.8s-0.7-1.2-1-1.8s-0.6-1.2-1-1.8
	c-0.3-0.6-0.6-1.2-0.9-1.8s-0.6-1.2-0.9-1.9c-0.3-0.6-0.6-1.2-0.8-1.9c-0.3-0.6-0.5-1.3-0.8-1.9c-0.2-0.6-0.5-1.3-0.7-1.9
	c-0.2-0.7-0.5-1.3-0.7-1.9s-0.4-1.3-0.6-2c-0.2-0.7-0.4-1.3-0.6-2c-0.2-0.7-0.4-1.3-0.6-2c-0.2-0.7-0.3-1.3-0.5-2s-0.3-1.4-0.4-2.1
	c-0.1-0.7-0.3-1.4-0.4-2.1c-0.1-0.7-0.2-1.4-0.4-2.1c-0.1-0.7-0.2-1.4-0.3-2.1c-0.1-0.7-0.2-1.4-0.2-2.1s-0.1-1.4-0.2-2.1
	c-0.1-0.7-0.1-1.4-0.1-2.2s-0.1-1.4-0.1-2.2c0-0.7,0-1.4,0-2.2s0-1.4,0-2.2c0-0.7,0.1-1.4,0.1-2.2c0-0.7,0.1-1.4,0.1-2.2
	c0.1-0.7,0.1-1.4,0.2-2.1s0.1-1.4,0.2-2.1c0.1-0.7,0.2-1.4,0.3-2.1c0.1-0.7,0.2-1.4,0.4-2.1c0.1-0.7,0.3-1.4,0.4-2.1
	c0.1-0.7,0.3-1.4,0.4-2.1s0.3-1.4,0.5-2c0.2-0.7,0.4-1.3,0.6-2c0.2-0.7,0.4-1.3,0.6-2c0.2-0.7,0.4-1.3,0.6-2
	c0.2-0.7,0.5-1.3,0.7-1.9c0.2-0.7,0.5-1.3,0.7-1.9s0.5-1.3,0.8-1.9c0.3-0.6,0.5-1.3,0.8-1.9c0.3-0.6,0.6-1.2,0.9-1.9
	c0.3-0.6,0.6-1.2,0.9-1.8s0.6-1.2,1-1.8c0.3-0.6,0.7-1.2,1-1.8s0.7-1.2,1-1.8s0.7-1.2,1.1-1.7s0.7-1.1,1.1-1.7
	c0.4-0.6,0.8-1.1,1.2-1.7s0.8-1.1,1.2-1.6s0.8-1.1,1.2-1.6c0.4-0.5,0.8-1.1,1.3-1.6s0.9-1,1.3-1.5c0.4-0.5,0.9-1,1.3-1.5
	c0.5-0.5,0.9-1,1.4-1.5c0.5-0.5,0.9-1,1.4-1.5s1-1,1.5-1.4c0.5-0.5,1-0.9,1.5-1.4s1-0.9,1.5-1.3c0.5-0.4,1-0.9,1.5-1.3
	s1-0.9,1.6-1.3c0.5-0.4,1.1-0.8,1.6-1.2c0.5-0.4,1.1-0.8,1.6-1.2c0.5-0.4,1.1-0.8,1.7-1.2c0.6-0.4,1.1-0.8,1.7-1.1s1.2-0.7,1.7-1.1
	c0.6-0.4,1.2-0.7,1.8-1c0.6-0.3,1.2-0.7,1.8-1s1.2-0.6,1.8-1s1.2-0.6,1.8-0.9s1.2-0.6,1.9-0.9c0.6-0.3,1.2-0.6,1.9-0.8
	s1.3-0.5,1.9-0.8c0.6-0.2,1.3-0.5,1.9-0.7c0.7-0.2,1.3-0.5,1.9-0.7c0.7-0.2,1.3-0.4,2-0.6s1.3-0.4,2-0.6c0.7-0.2,1.3-0.4,2-0.6
	c0.7-0.2,1.3-0.3,2-0.5s1.4-0.3,2.1-0.4c0.7-0.1,1.4-0.3,2.1-0.4c0.7-0.1,1.4-0.2,2.1-0.4c0.7-0.1,1.4-0.2,2.1-0.3
	c0.7-0.1,1.4-0.2,2.1-0.2s1.4-0.1,2.1-0.2c0.7-0.1,1.4-0.1,2.2-0.1s1.4-0.1,2.2-0.1C95,12,95.7,12,96.4,12 M96.4,0
	c-0.8,0-1.7,0-2.5,0c-0.8,0-1.7,0-2.5,0.1S89.8,0.2,89,0.3s-1.6,0.1-2.4,0.2c-0.8,0.1-1.6,0.2-2.4,0.3c-0.8,0.1-1.6,0.2-2.4,0.3
	c-0.8,0.1-1.6,0.2-2.4,0.4S77.8,1.8,77,2s-1.6,0.3-2.3,0.5c-0.8,0.2-1.6,0.4-2.3,0.6c-0.8,0.2-1.5,0.4-2.3,0.6
	c-0.8,0.2-1.5,0.4-2.3,0.7c-0.8,0.2-1.5,0.5-2.2,0.7c-0.8,0.2-1.5,0.5-2.2,0.8c-0.7,0.3-1.5,0.6-2.2,0.8s-1.5,0.6-2.2,0.9
	s-1.4,0.6-2.2,0.9c-0.7,0.3-1.4,0.6-2.1,1s-1.4,0.7-2.1,1s-1.4,0.7-2.1,1.1s-1.4,0.8-2,1.1s-1.3,0.8-2,1.2c-0.7,0.4-1.3,0.8-2,1.2
	s-1.3,0.8-1.9,1.3c-0.6,0.4-1.3,0.9-1.9,1.3s-1.2,0.9-1.9,1.4c-0.6,0.5-1.2,0.9-1.8,1.4s-1.2,1-1.8,1.5c-0.6,0.5-1.2,1-1.8,1.5
	s-1.2,1-1.7,1.5s-1.1,1-1.7,1.6c-0.6,0.5-1.1,1.1-1.7,1.6c-0.5,0.5-1.1,1.1-1.6,1.7c-0.5,0.6-1.1,1.1-1.6,1.7
	c-0.5,0.6-1,1.1-1.5,1.7c-0.5,0.6-1,1.2-1.5,1.8c-0.5,0.6-1,1.2-1.5,1.8s-1,1.2-1.4,1.8s-0.9,1.2-1.4,1.9c-0.5,0.6-0.9,1.3-1.3,1.9
	s-0.9,1.3-1.3,1.9c-0.4,0.7-0.8,1.3-1.2,2c-0.4,0.7-0.8,1.3-1.2,2s-0.8,1.3-1.1,2s-0.7,1.4-1.1,2.1c-0.4,0.7-0.7,1.4-1,2.1
	s-0.7,1.4-1,2.1s-0.6,1.4-0.9,2.2S7,60.3,6.7,61.1s-0.6,1.5-0.8,2.2s-0.5,1.5-0.8,2.2S4.6,67,4.4,67.7S3.9,69.3,3.7,70
	c-0.2,0.8-0.4,1.5-0.6,2.3c-0.2,0.8-0.4,1.5-0.6,2.3S2.1,76.2,2,77s-0.3,1.6-0.5,2.4s-0.3,1.6-0.4,2.4c-0.1,0.8-0.2,1.6-0.3,2.4
	c-0.1,0.8-0.2,1.6-0.3,2.4S0.4,88.2,0.3,89c-0.1,0.8-0.1,1.6-0.2,2.5c0,0.8-0.1,1.7-0.1,2.5c0,0.8,0,1.7,0,2.5s0,1.7,0,2.5
	c0,0.8,0,1.7,0.1,2.5s0.1,1.6,0.2,2.5s0.1,1.6,0.2,2.4s0.2,1.6,0.3,2.4c0.1,0.8,0.2,1.6,0.3,2.4c0.1,0.8,0.2,1.6,0.4,2.4
	s0.3,1.6,0.5,2.4s0.3,1.6,0.5,2.3c0.2,0.8,0.4,1.6,0.6,2.3c0.2,0.8,0.4,1.5,0.6,2.3c0.2,0.8,0.4,1.5,0.7,2.3
	c0.2,0.8,0.5,1.5,0.7,2.2c0.2,0.8,0.5,1.5,0.8,2.2c0.3,0.7,0.6,1.5,0.8,2.2s0.6,1.5,0.9,2.2c0.3,0.7,0.6,1.4,0.9,2.1
	c0.3,0.7,0.6,1.4,1,2.1s0.7,1.4,1,2.1s0.7,1.4,1.1,2.1s0.8,1.4,1.1,2s0.8,1.3,1.2,2c0.4,0.7,0.8,1.3,1.2,2s0.8,1.3,1.3,1.9
	c0.4,0.6,0.9,1.3,1.3,1.9c0.5,0.6,0.9,1.2,1.4,1.9c0.5,0.6,0.9,1.2,1.4,1.8s1,1.2,1.5,1.8c0.5,0.6,1,1.2,1.5,1.8
	c0.5,0.6,1,1.2,1.5,1.7c0.5,0.6,1,1.1,1.6,1.7c0.5,0.6,1.1,1.1,1.6,1.7c0.5,0.6,1.1,1.1,1.7,1.6c0.6,0.5,1.1,1.1,1.7,1.6
	c0.6,0.5,1.1,1,1.7,1.5s1.2,1,1.8,1.5c0.6,0.5,1.2,1,1.8,1.4s1.2,0.9,1.8,1.4s1.2,0.9,1.9,1.4c0.6,0.4,1.3,0.9,1.9,1.3
	c0.6,0.4,1.3,0.9,1.9,1.3c0.7,0.4,1.3,0.8,2,1.2s1.3,0.8,2,1.2c0.7,0.4,1.3,0.8,2,1.1s1.4,0.7,2.1,1.1c0.7,0.4,1.4,0.7,2.1,1
	s1.4,0.7,2.1,1s1.4,0.6,2.2,0.9s1.5,0.6,2.2,0.9s1.5,0.6,2.2,0.8c0.7,0.3,1.5,0.5,2.2,0.8s1.5,0.5,2.2,0.7s1.5,0.5,2.3,0.7
	s1.5,0.4,2.3,0.6c0.8,0.2,1.5,0.4,2.3,0.6s1.6,0.4,2.3,0.5c0.8,0.2,1.6,0.3,2.4,0.4s1.6,0.3,2.4,0.4s1.6,0.2,2.4,0.3
	c0.8,0.1,1.6,0.2,2.4,0.3c0.8,0.1,1.6,0.1,2.4,0.2s1.6,0.1,2.5,0.2c0.8,0,1.7,0.1,2.5,0.1c0.8,0,1.7,0,2.5,0s1.7,0,2.5,0
	c0.8,0,1.7-0.1,2.5-0.1s1.6-0.1,2.5-0.2c0.8-0.1,1.6-0.1,2.4-0.2c0.8-0.1,1.6-0.2,2.4-0.3c0.8-0.1,1.6-0.2,2.4-0.3
	c0.8-0.1,1.6-0.2,2.4-0.4s1.6-0.3,2.4-0.4s1.6-0.3,2.3-0.5s1.6-0.4,2.3-0.6c0.8-0.2,1.5-0.4,2.3-0.6s1.5-0.4,2.3-0.7
	c0.8-0.2,1.5-0.5,2.2-0.7c0.8-0.2,1.5-0.5,2.2-0.8c0.7-0.3,1.5-0.6,2.2-0.8s1.5-0.6,2.2-0.9c0.7-0.3,1.4-0.6,2.1-0.9
	c0.7-0.3,1.4-0.6,2.1-1c0.7-0.3,1.4-0.7,2.1-1s1.4-0.7,2.1-1.1s1.4-0.8,2-1.1s1.3-0.8,2-1.2s1.3-0.8,2-1.2s1.3-0.8,1.9-1.3
	c0.6-0.4,1.3-0.9,1.9-1.3c0.6-0.4,1.2-0.9,1.9-1.4s1.2-0.9,1.8-1.4s1.2-1,1.8-1.4s1.2-1,1.8-1.5c0.6-0.5,1.2-1,1.7-1.5
	c0.6-0.5,1.1-1,1.7-1.6c0.6-0.5,1.1-1.1,1.7-1.6s1.1-1.1,1.6-1.7c0.5-0.6,1.1-1.1,1.6-1.7s1-1.1,1.5-1.7s1-1.2,1.5-1.8
	s1-1.2,1.4-1.8c0.5-0.6,0.9-1.2,1.4-1.8s0.9-1.2,1.4-1.9c0.4-0.6,0.9-1.3,1.3-1.9c0.4-0.6,0.9-1.3,1.3-1.9s0.8-1.3,1.2-2
	s0.8-1.3,1.2-2s0.8-1.4,1.1-2s0.7-1.4,1.1-2.1s0.7-1.4,1-2.1s0.7-1.4,1-2.1c0.3-0.7,0.6-1.4,0.9-2.1s0.6-1.4,0.9-2.2
	s0.6-1.5,0.8-2.2c0.3-0.7,0.5-1.5,0.8-2.2s0.5-1.5,0.7-2.2s0.5-1.5,0.7-2.3c0.2-0.8,0.4-1.5,0.6-2.3c0.2-0.8,0.4-1.5,0.6-2.3
	c0.2-0.8,0.4-1.6,0.5-2.3c0.2-0.8,0.3-1.6,0.4-2.4s0.3-1.6,0.4-2.4c0.1-0.8,0.2-1.6,0.3-2.4c0.1-0.8,0.2-1.6,0.3-2.4
	s0.1-1.6,0.2-2.4s0.1-1.6,0.2-2.5c0-0.8,0.1-1.7,0.1-2.5c0-0.8,0-1.7,0-2.5s0-1.7,0-2.5c0-0.8-0.1-1.7-0.1-2.5s-0.1-1.6-0.2-2.5
	c-0.1-0.8-0.1-1.6-0.2-2.4s-0.2-1.6-0.3-2.4c-0.1-0.8-0.2-1.6-0.3-2.4c-0.1-0.8-0.2-1.6-0.4-2.4s-0.3-1.6-0.4-2.4s-0.3-1.6-0.5-2.3
	c-0.2-0.8-0.4-1.6-0.6-2.3c-0.2-0.8-0.4-1.5-0.6-2.3s-0.4-1.5-0.7-2.3c-0.2-0.8-0.5-1.5-0.7-2.2c-0.2-0.8-0.5-1.5-0.8-2.2
	c-0.3-0.7-0.6-1.5-0.8-2.2s-0.6-1.5-0.9-2.2c-0.3-0.7-0.6-1.4-0.9-2.2c-0.3-0.7-0.6-1.4-1-2.1c-0.3-0.7-0.7-1.4-1-2.1
	c-0.4-0.7-0.7-1.4-1.1-2.1s-0.8-1.4-1.1-2s-0.8-1.3-1.2-2s-0.8-1.3-1.2-2s-0.8-1.3-1.3-1.9c-0.4-0.6-0.9-1.3-1.3-1.9
	c-0.4-0.6-0.9-1.2-1.4-1.9s-0.9-1.2-1.4-1.8c-0.5-0.6-1-1.2-1.4-1.8c-0.5-0.6-1-1.2-1.5-1.8s-1-1.2-1.5-1.7c-0.5-0.6-1-1.1-1.6-1.7
	c-0.5-0.6-1.1-1.1-1.6-1.7s-1.1-1.1-1.7-1.6s-1.1-1.1-1.7-1.6s-1.1-1-1.7-1.5s-1.2-1-1.8-1.5s-1.2-1-1.8-1.5s-1.2-1-1.8-1.4
	s-1.2-0.9-1.9-1.4c-0.6-0.5-1.3-0.9-1.9-1.3s-1.3-0.9-1.9-1.3c-0.6-0.4-1.3-0.8-2-1.2c-0.7-0.4-1.3-0.8-2-1.2
	c-0.7-0.4-1.4-0.8-2-1.1s-1.4-0.7-2.1-1.1c-0.7-0.4-1.4-0.7-2.1-1s-1.4-0.7-2.1-1c-0.7-0.3-1.4-0.6-2.1-0.9s-1.4-0.6-2.2-0.9
	s-1.5-0.6-2.2-0.8c-0.7-0.3-1.5-0.5-2.2-0.8c-0.8-0.2-1.5-0.5-2.2-0.7s-1.5-0.5-2.3-0.7c-0.8-0.2-1.5-0.4-2.3-0.6
	c-0.8-0.2-1.5-0.4-2.3-0.6s-1.6-0.3-2.3-0.5s-1.6-0.3-2.4-0.5s-1.6-0.3-2.4-0.4c-0.8-0.1-1.6-0.2-2.4-0.3c-0.8-0.1-1.6-0.2-2.4-0.3
	c-0.8-0.1-1.6-0.2-2.4-0.2c-0.8-0.1-1.6-0.1-2.5-0.2c-0.8,0-1.7-0.1-2.5-0.1C98.1,0,97.2,0,96.4,0C96.4,0,96.4,0,96.4,0z"/>
<g>
	<g>
		<polygon class="st0" points="47.7,96.4 48.5,97 49.3,97.6 50.2,98.2 51,98.8 51.8,99.4 52.6,100.1 53.4,100.7 54.2,101.3 
			55,101.9 55.8,102.5 56.7,103.1 57.5,103.7 58.3,104.3 59.1,104.9 59.9,105.5 60.7,106.1 61.5,106.7 62.3,107.3 63.2,107.9 
			64,108.5 64.8,109.1 65.6,109.8 66.4,110.3 67.2,111 68,111.6 68.9,112.2 69.7,112.8 70.5,113.4 71.3,114 72.1,114.6 72.9,115.2 
			73.7,115.8 74.6,116.4 75.4,117 76.2,117.6 77,118.2 77.8,118.8 78.6,119.4 79.4,120.1 80.2,120.7 81.1,121.3 81.9,121.9 
			82.7,122.5 83.5,123.1 84.3,123.7 85.1,124.3 85.9,124.9 86.8,125.5 87.6,126.1 88.4,126.7 89.2,127.3 90,127.9 90.8,128.5 
			91.6,129.1 92.4,129.7 93.3,130.4 94.1,130.9 94.9,131.6 95.7,132.2 96.5,132.8 97.3,133.4 98.1,134 98.9,134.6 99.8,135.2 
			99.8,134 99.8,132.8 99.8,131.6 99.8,130.4 99.8,129.1 99.8,127.9 99.8,126.7 99.8,125.5 99.8,124.3 99.8,123.1 99.8,121.9 
			99.8,120.7 99.8,119.4 99.8,118.2 99.8,117 99.8,115.8 99.8,114.6 99.8,113.4 99.8,112.2 99.8,111 99.8,109.8 99.8,108.5 
			99.8,107.3 99.8,106.1 99.8,104.9 99.8,103.7 99.8,102.5 99.8,101.3 99.8,100.1 99.8,98.8 99.8,97.6 99.8,96.4 99.8,95.2 99.8,94 
			99.8,92.8 99.8,91.6 99.8,90.4 99.8,89.2 99.8,87.9 99.8,86.7 99.8,85.5 99.8,84.3 99.8,83.1 99.8,81.9 99.8,80.7 99.8,79.4 
			99.8,78.2 99.8,77 99.8,75.8 99.8,74.6 99.8,73.4 99.8,72.2 99.8,71 99.8,69.8 99.8,68.5 99.8,67.3 99.8,66.1 99.8,64.9 
			99.8,63.7 99.8,62.5 99.8,61.3 99.8,60.1 99.8,58.8 99.8,57.6 98.9,58.2 98.1,58.8 97.3,59.5 96.5,60.1 95.7,60.7 94.9,61.3 
			94.1,61.9 93.3,62.5 92.4,63.1 91.6,63.7 90.8,64.3 90,64.9 89.2,65.5 88.4,66.1 87.6,66.7 86.8,67.3 85.9,67.9 85.1,68.5 
			84.3,69.2 83.5,69.8 82.7,70.4 81.9,71 81.1,71.6 80.2,72.2 79.4,72.8 78.6,73.4 77.8,74 77,74.6 76.2,75.2 75.4,75.8 74.6,76.4 
			73.7,77 72.9,77.6 72.1,78.2 71.3,78.8 70.5,79.4 69.7,80.1 68.9,80.7 68,81.3 67.2,81.9 66.4,82.5 65.6,83.1 64.8,83.7 64,84.3 
			63.2,84.9 62.3,85.5 61.5,86.1 60.7,86.7 59.9,87.3 59.1,87.9 58.3,88.5 57.5,89.2 56.7,89.8 55.8,90.4 55,91 54.2,91.6 
			53.4,92.2 52.6,92.8 51.8,93.4 51,94 50.2,94.6 49.3,95.2 48.5,95.8 		"/>
		<polygon class="st0" points="70.5,113.2 70.2,113.2 69.8,113.2 69.4,113.2 69.1,113.2 68.7,113.2 68.4,113.2 68,113.2 67.7,113.2 
			67.3,113.2 66.9,113.2 66.6,113.2 66.2,113.2 65.9,113.2 65.5,113.2 65.2,113.2 64.8,113.2 64.5,113.2 64.1,113.2 63.7,113.2 
			63.4,113.2 63,113.2 62.7,113.2 62.3,113.2 62,113.2 61.6,113.2 61.2,113.2 60.9,113.2 60.5,113.2 60.2,113.2 59.8,113.2 
			59.5,113.2 59.1,113.2 58.8,113.2 58.4,113.2 58,113.2 57.7,113.2 57.3,113.2 57,113.2 56.6,113.2 56.3,113.2 55.9,113.2 
			55.5,113.2 55.2,113.2 54.8,113.2 54.5,113.2 54.1,113.2 53.8,113.2 53.4,113.2 53.1,113.2 52.7,113.2 52.3,113.2 52,113.2 
			51.6,113.2 51.3,113.2 50.9,113.2 50.6,113.2 50.2,113.2 49.8,113.2 49.5,113.2 49.1,113.2 48.8,113.2 48.4,113.2 48.1,113.2 
			47.7,113.2 47.7,112.7 47.7,112.2 47.7,111.6 47.7,111.1 47.7,110.6 47.7,110.1 47.7,109.5 47.7,109 47.7,108.5 47.7,108 
			47.7,107.4 47.7,106.9 47.7,106.4 47.7,105.9 47.7,105.3 47.7,104.8 47.7,104.3 47.7,103.8 47.7,103.2 47.7,102.7 47.7,102.2 
			47.7,101.7 47.7,101.1 47.7,100.6 47.7,100.1 47.7,99.6 47.7,99 47.7,98.5 47.7,98 47.7,97.5 47.7,96.9 47.7,96.4 47.7,95.9 
			47.7,95.4 47.7,94.8 47.7,94.3 47.7,93.8 47.7,93.3 47.7,92.7 47.7,92.2 47.7,91.7 47.7,91.2 47.7,90.6 47.7,90.1 47.7,89.6 
			47.7,89.1 47.7,88.5 47.7,88 47.7,87.5 47.7,87 47.7,86.4 47.7,85.9 47.7,85.4 47.7,84.9 47.7,84.3 47.7,83.8 47.7,83.3 
			47.7,82.8 47.7,82.2 47.7,81.7 47.7,81.2 47.7,80.7 47.7,80.2 47.7,79.6 48.1,79.6 48.4,79.6 48.8,79.6 49.1,79.6 49.5,79.6 
			49.8,79.6 50.2,79.6 50.6,79.6 50.9,79.6 51.3,79.6 51.6,79.6 52,79.6 52.3,79.6 52.7,79.6 53.1,79.6 53.4,79.6 53.8,79.6 
			54.1,79.6 54.5,79.6 54.8,79.6 55.2,79.6 55.5,79.6 55.9,79.6 56.3,79.6 56.6,79.6 57,79.6 57.3,79.6 57.7,79.6 58,79.6 
			58.4,79.6 58.8,79.6 59.1,79.6 59.5,79.6 59.8,79.6 60.2,79.6 60.5,79.6 60.9,79.6 61.2,79.6 61.6,79.6 62,79.6 62.3,79.6 
			62.7,79.6 63,79.6 63.4,79.6 63.7,79.6 64.1,79.6 64.5,79.6 64.8,79.6 65.2,79.6 65.5,79.6 65.9,79.6 66.2,79.6 66.6,79.6 
			66.9,79.6 67.3,79.6 67.7,79.6 68,79.6 68.4,79.6 68.7,79.6 69.1,79.6 69.4,79.6 69.8,79.6 70.2,79.6 70.5,79.6 70.5,80.2 
			70.5,80.7 70.5,81.2 70.5,81.7 70.5,82.2 70.5,82.8 70.5,83.3 70.5,83.8 70.5,84.3 70.5,84.9 70.5,85.4 70.5,85.9 70.5,86.4 
			70.5,87 70.5,87.5 70.5,88 70.5,88.5 70.5,89.1 70.5,89.6 70.5,90.1 70.5,90.6 70.5,91.2 70.5,91.7 70.5,92.2 70.5,92.7 
			70.5,93.3 70.5,93.8 70.5,94.3 70.5,94.8 70.5,95.4 70.5,95.9 70.5,96.4 70.5,96.9 70.5,97.5 70.5,98 70.5,98.5 70.5,99 
			70.5,99.6 70.5,100.1 70.5,100.6 70.5,101.1 70.5,101.7 70.5,102.2 70.5,102.7 70.5,103.2 70.5,103.8 70.5,104.3 70.5,104.8 
			70.5,105.3 70.5,105.9 70.5,106.4 70.5,106.9 70.5,107.4 70.5,108 70.5,108.5 70.5,109 70.5,109.5 70.5,110.1 70.5,110.6 
			70.5,111.1 70.5,111.6 70.5,112.2 70.5,112.7 		"/>
	</g>
	<path class="st0" d="M120,132.9C120,132.9,119.9,132.9,120,132.9c-0.1,0-0.1,0-0.1,0c0,0,0,0-0.1,0c0,0,0,0-0.1,0s0,0-0.1,0
		c0,0,0,0-0.1,0c0,0,0,0-0.1,0c0,0,0,0-0.1,0c0,0,0,0-0.1,0c0,0,0,0-0.1,0s0,0-0.1,0c0,0,0,0-0.1,0c0,0,0,0-0.1,0c0,0,0,0-0.1,0
		c0,0,0,0-0.1,0c0,0,0,0-0.1,0c0,0,0,0-0.1,0c0,0,0,0-0.1,0s0,0-0.1,0s0,0-0.1,0s0,0-0.1,0c0,0,0,0-0.1,0c0,0,0,0-0.1,0
		c0,0,0,0-0.1,0c0,0,0,0-0.1,0c0,0,0,0-0.1,0c0,0,0,0-0.1,0c0,0,0,0-0.1,0c0,0,0,0-0.1,0c0,0,0,0-0.1,0c0,0,0,0,0,0c0,0,0,0,0,0
		c0,0,0,0,0,0c0,0,0,0,0,0s0,0,0,0s0,0,0,0s0,0,0,0s0,0,0,0s0,0,0,0s0,0,0,0s0,0,0,0c0,0,0,0,0,0c0,0,0,0,0,0s0,0,0,0s0,0,0,0
		c0,0,0,0,0,0c0,0,0,0,0,0s0,0,0,0c0,0,0,0,0,0s0,0,0,0s0,0,0,0s0,0,0,0s0,0,0,0s0,0,0-0.1s0,0,0-0.1s0,0,0-0.1c0,0,0,0,0-0.1
		c0,0,0,0,0-0.1c0,0,0,0,0-0.1s0,0,0-0.1s0,0,0-0.1c0,0,0,0,0-0.1s0,0,0-0.1s0,0,0-0.1s0-0.1,0-0.1c0,0,0-0.1,0-0.1c0,0,0-0.1,0-0.1
		s0-0.1,0-0.1s0-0.1,0-0.1c0,0,0-0.1,0-0.1c0,0,0-0.1,0-0.1c0,0,0-0.1,0-0.1s0-0.1,0-0.1c0,0,0-0.1,0-0.1c0,0,0-0.1,0-0.1
		s0-0.1,0-0.1s0-0.1,0-0.1s0-0.1,0-0.1s0-0.1,0-0.1s0-0.1,0-0.1s0-0.1,0-0.1s0-0.1,0-0.1s0-0.1,0-0.1s0-0.1,0-0.1s0-0.1,0-0.1
		s0-0.1,0-0.1s0-0.1,0-0.1c0,0,0-0.1,0-0.1c0,0,0-0.1,0-0.1c0,0,0-0.1,0-0.1c0,0,0-0.1,0-0.1c0,0,0-0.1,0-0.1c0,0,0,0,0-0.1
		c0,0,0,0,0-0.1c0,0,0,0,0-0.1c0,0,0,0,0-0.1c0,0,0,0,0-0.1c0,0,0,0,0-0.1c0,0,0,0,0-0.1s0,0,0-0.1s0,0,0-0.1s0,0,0-0.1s0,0,0-0.1
		c0,0,0,0,0-0.1c0,0,0,0,0-0.1s0,0,0-0.1s0,0,0-0.1s0,0,0-0.1s0,0,0-0.1c0,0,0,0,0.1-0.1c0,0,0,0,0.1-0.1c0,0,0,0,0.1-0.1
		c0,0,0,0,0.1-0.1c0,0,0,0,0.1-0.1c0,0,0,0,0.1-0.1c0,0,0,0,0.1-0.1c0,0,0,0,0.1-0.1c0,0,0,0,0.1,0s0,0,0.1,0s0,0,0.1,0s0,0,0.1,0
		s0,0,0.1,0s0,0,0.1,0s0,0,0.1,0c0,0,0,0,0.1,0c0,0,0,0,0.1,0c0,0,0.1,0,0.1,0s0.1,0,0.1,0c0.2-0.1,0.4-0.2,0.6-0.2
		c0.2-0.1,0.4-0.2,0.6-0.3c0.2-0.1,0.4-0.2,0.6-0.3s0.4-0.2,0.6-0.3c0.2-0.1,0.4-0.2,0.6-0.3s0.4-0.2,0.6-0.3
		c0.2-0.1,0.4-0.2,0.5-0.3c0.2-0.1,0.4-0.2,0.5-0.3c0.2-0.1,0.3-0.2,0.5-0.3s0.3-0.2,0.5-0.3c0.2-0.1,0.3-0.2,0.5-0.3
		c0.2-0.1,0.3-0.2,0.5-0.3c0.2-0.1,0.3-0.2,0.5-0.4c0.2-0.1,0.3-0.2,0.5-0.4s0.3-0.2,0.5-0.4s0.3-0.3,0.5-0.4
		c0.2-0.1,0.3-0.3,0.5-0.4s0.3-0.3,0.5-0.4c0.1-0.1,0.3-0.3,0.4-0.4s0.3-0.3,0.4-0.4c0.1-0.1,0.3-0.3,0.4-0.4
		c0.1-0.1,0.3-0.3,0.4-0.4c0.1-0.2,0.3-0.3,0.4-0.4s0.3-0.3,0.4-0.4c0.1-0.2,0.3-0.3,0.4-0.4c0.1-0.2,0.3-0.3,0.4-0.5
		s0.3-0.3,0.4-0.5c0.1-0.2,0.2-0.3,0.4-0.5c0.1-0.2,0.2-0.3,0.4-0.5s0.2-0.3,0.4-0.5c0.1-0.2,0.2-0.3,0.4-0.5s0.2-0.3,0.3-0.5
		s0.2-0.3,0.3-0.5c0.1-0.2,0.2-0.3,0.3-0.5c0.1-0.2,0.2-0.3,0.3-0.5c0.1-0.2,0.2-0.3,0.3-0.5c0.1-0.2,0.2-0.3,0.3-0.5
		c0.1-0.2,0.2-0.4,0.3-0.5c0.1-0.2,0.2-0.4,0.3-0.5c0.1-0.2,0.2-0.4,0.3-0.6c0.1-0.2,0.2-0.4,0.2-0.6s0.2-0.4,0.2-0.6
		s0.2-0.4,0.2-0.6c0.1-0.2,0.1-0.4,0.2-0.6c0.1-0.2,0.1-0.4,0.2-0.6s0.1-0.4,0.2-0.6c0.1-0.2,0.1-0.4,0.2-0.6
		c0.1-0.2,0.1-0.4,0.2-0.6s0.1-0.4,0.2-0.6c0.1-0.2,0.1-0.4,0.2-0.6s0.1-0.4,0.1-0.6c0.1-0.2,0.1-0.4,0.1-0.6s0.1-0.4,0.1-0.6
		s0.1-0.4,0.1-0.6s0.1-0.4,0.1-0.6s0.1-0.4,0.1-0.6s0.1-0.4,0.1-0.6c0-0.2,0.1-0.4,0.1-0.6s0-0.4,0.1-0.6s0-0.4,0.1-0.6
		c0-0.2,0-0.4,0-0.6c0-0.2,0-0.4,0-0.6c0-0.2,0-0.4,0-0.6c0-0.2,0-0.4,0-0.6s0-0.4,0-0.6s0-0.4,0-0.6s0-0.4,0-0.6s0-0.4,0-0.6
		c0-0.2,0-0.4-0.1-0.6s0-0.4-0.1-0.6s-0.1-0.4-0.1-0.6c0-0.2-0.1-0.4-0.1-0.6s-0.1-0.4-0.1-0.6s-0.1-0.4-0.1-0.6s-0.1-0.4-0.1-0.6
		s-0.1-0.4-0.1-0.6c0-0.2-0.1-0.4-0.1-0.6s-0.1-0.4-0.1-0.6c-0.1-0.2-0.1-0.4-0.2-0.6c-0.1-0.2-0.1-0.4-0.2-0.6
		c-0.1-0.2-0.1-0.4-0.2-0.6s-0.1-0.4-0.2-0.6c-0.1-0.2-0.1-0.4-0.2-0.6c-0.1-0.2-0.1-0.4-0.2-0.6s-0.1-0.4-0.2-0.6
		c-0.1-0.2-0.1-0.4-0.2-0.6c-0.1-0.2-0.2-0.4-0.2-0.6c-0.1-0.2-0.2-0.4-0.2-0.6c-0.1-0.2-0.2-0.4-0.3-0.6c-0.1-0.2-0.2-0.4-0.3-0.5
		c-0.1-0.2-0.2-0.4-0.3-0.5c-0.1-0.2-0.2-0.3-0.3-0.5c-0.1-0.2-0.2-0.3-0.3-0.5s-0.2-0.3-0.3-0.5c-0.1-0.2-0.2-0.3-0.3-0.5
		c-0.1-0.2-0.2-0.3-0.3-0.5c-0.1-0.2-0.2-0.3-0.3-0.5s-0.2-0.3-0.4-0.5c-0.1-0.2-0.2-0.3-0.4-0.5c-0.1-0.2-0.2-0.3-0.4-0.5
		s-0.2-0.3-0.4-0.5c-0.1-0.2-0.2-0.3-0.4-0.5c-0.1-0.2-0.3-0.3-0.4-0.5s-0.3-0.3-0.4-0.4c-0.1-0.2-0.3-0.3-0.4-0.4
		c-0.1-0.2-0.3-0.3-0.4-0.4s-0.3-0.3-0.4-0.4s-0.3-0.3-0.4-0.4c-0.1-0.1-0.3-0.3-0.4-0.4c-0.1-0.1-0.3-0.3-0.4-0.4
		c-0.1-0.1-0.3-0.3-0.5-0.4c-0.2-0.1-0.3-0.3-0.5-0.4c-0.2-0.1-0.3-0.3-0.5-0.4s-0.3-0.2-0.5-0.4c-0.2-0.1-0.3-0.2-0.5-0.4
		c-0.2-0.1-0.3-0.2-0.5-0.4s-0.3-0.2-0.5-0.3c-0.2-0.1-0.3-0.2-0.5-0.3c-0.2-0.1-0.3-0.2-0.5-0.3c-0.2-0.1-0.3-0.2-0.5-0.3
		c-0.2-0.1-0.3-0.2-0.5-0.3c-0.2-0.1-0.4-0.2-0.5-0.3s-0.4-0.2-0.6-0.3c-0.2-0.1-0.4-0.2-0.6-0.3c-0.2-0.1-0.4-0.2-0.6-0.3
		c-0.2-0.1-0.4-0.2-0.6-0.3s-0.4-0.2-0.6-0.3c-0.2-0.1-0.4-0.2-0.6-0.2c0,0-0.1,0-0.1,0s-0.1,0-0.1,0s0,0-0.1,0c0,0,0,0-0.1,0
		c0,0,0,0-0.1,0c0,0,0,0-0.1,0c0,0,0,0-0.1,0s0,0-0.1,0s0,0-0.1,0s0,0-0.1,0s0,0-0.1,0s0,0-0.1-0.1c0,0,0,0-0.1-0.1c0,0,0,0-0.1-0.1
		c0,0,0,0-0.1-0.1c0,0,0,0-0.1-0.1c0,0,0,0-0.1-0.1c0,0,0,0-0.1-0.1c0,0,0,0-0.1-0.1c0,0,0,0,0-0.1c0,0,0,0,0-0.1s0,0,0-0.1
		s0,0,0-0.1s0,0,0-0.1s0,0,0-0.1s0,0,0-0.1c0,0,0,0,0-0.1s0,0,0-0.1s0,0,0-0.1s0,0,0-0.1c0,0,0,0,0-0.1c0,0,0,0,0-0.1c0,0,0,0,0-0.1
		c0,0,0,0,0-0.1c0,0,0,0,0-0.1c0,0,0,0,0-0.1c0,0,0,0,0-0.1c0,0,0,0,0-0.1c0,0,0,0,0-0.1c0,0,0,0,0-0.1c0,0,0,0,0-0.1c0,0,0,0,0-0.1
		c0,0,0,0,0-0.1s0,0,0-0.1s0,0,0-0.1s0,0,0-0.1s0,0,0-0.1s0,0,0-0.1s0,0,0-0.1s0,0,0-0.1s0,0,0-0.1s0,0,0-0.1s0,0,0-0.1s0,0,0-0.1
		s0,0,0-0.1c0,0,0,0,0-0.1s0,0,0-0.1c0,0,0,0,0-0.1c0,0,0,0,0-0.1c0,0,0,0,0-0.1c0,0,0,0,0-0.1c0,0,0,0,0-0.1s0,0,0-0.1
		c0,0,0,0,0-0.1c0,0,0,0,0-0.1s0,0,0-0.1s0,0,0-0.1c0,0,0,0,0-0.1c0,0,0,0,0-0.1c0,0,0,0,0-0.1c0,0,0,0,0-0.1s0,0,0-0.1s0,0,0-0.1
		s0,0,0-0.1s0,0,0-0.1s0,0,0.1-0.1s0,0,0.1,0c0,0,0,0,0.1,0c0,0,0,0,0.1,0c0,0,0,0,0.1,0c0,0,0,0,0.1,0c0,0,0,0,0.1,0c0,0,0,0,0.1,0
		c0,0,0,0,0.1,0c0,0,0,0,0.1,0c0,0,0,0,0.1,0c0,0,0,0,0.1,0c0,0,0,0,0.1,0c0,0,0,0,0.1,0c0,0,0,0,0.1,0c0,0,0,0,0.1,0s0,0,0.1,0
		s0,0,0.1,0s0,0,0.1,0s0,0,0.1,0c0,0,0,0,0.1,0c0,0,0,0,0.1,0c0,0,0,0,0.1,0c0,0,0,0,0.1,0c0,0,0,0,0.1,0c0,0,0,0,0.1,0
		c0,0,0.1,0,0.1,0c0,0,0.1,0,0.1,0c0,0,0.1,0,0.1,0c0,0,0.1,0,0.1,0c0,0,0.1,0,0.1,0c0,0,0.1,0,0.1,0s0.1,0,0.1,0s0.1,0,0.1,0
		s0.1,0,0.1,0s0.1,0,0.1,0s0.1,0,0.1,0s0.1,0,0.1,0s0.1,0,0.1,0s0.1,0,0.1,0s0.1,0,0.1,0s0.1,0,0.1,0s0.1,0,0.1,0s0.1,0,0.1,0
		c0,0,0.1,0,0.1,0c0,0,0.1,0,0.1,0c0,0,0.1,0,0.1,0s0.1,0,0.1,0c0,0,0.1,0,0.1,0c0,0,0.1,0,0.1,0c0,0,0.1,0,0.1,0s0.1,0,0.1,0
		c0,0,0.1,0,0.1,0c0.2,0.1,0.4,0.2,0.7,0.3s0.4,0.2,0.7,0.3c0.2,0.1,0.4,0.2,0.7,0.3s0.4,0.2,0.7,0.3s0.4,0.2,0.7,0.3
		s0.4,0.2,0.6,0.3s0.4,0.2,0.6,0.4s0.4,0.2,0.6,0.4c0.2,0.1,0.4,0.2,0.6,0.4s0.4,0.3,0.6,0.4s0.4,0.3,0.6,0.4
		c0.2,0.1,0.4,0.3,0.6,0.4c0.2,0.1,0.4,0.3,0.6,0.4s0.4,0.3,0.6,0.4c0.2,0.2,0.4,0.3,0.6,0.4c0.2,0.2,0.4,0.3,0.6,0.4
		c0.2,0.2,0.4,0.3,0.6,0.5c0.2,0.2,0.4,0.3,0.5,0.5s0.4,0.3,0.5,0.5c0.2,0.2,0.4,0.3,0.5,0.5s0.3,0.3,0.5,0.5s0.3,0.3,0.5,0.5
		c0.2,0.2,0.3,0.3,0.5,0.5c0.2,0.2,0.3,0.3,0.5,0.5c0.2,0.2,0.3,0.3,0.5,0.5c0.1,0.2,0.3,0.4,0.5,0.5s0.3,0.4,0.4,0.6
		s0.3,0.4,0.4,0.6c0.1,0.2,0.3,0.4,0.4,0.6s0.3,0.4,0.4,0.6s0.3,0.4,0.4,0.6c0.1,0.2,0.3,0.4,0.4,0.6c0.1,0.2,0.3,0.4,0.4,0.6
		s0.2,0.4,0.4,0.6c0.1,0.2,0.2,0.4,0.4,0.6c0.1,0.2,0.2,0.4,0.4,0.6s0.2,0.4,0.3,0.6s0.2,0.4,0.3,0.6s0.2,0.4,0.3,0.6
		s0.2,0.4,0.3,0.6c0.1,0.2,0.2,0.4,0.3,0.7s0.2,0.4,0.3,0.7c0.1,0.2,0.2,0.4,0.3,0.7c0.1,0.2,0.2,0.4,0.3,0.7
		c0.1,0.2,0.2,0.4,0.2,0.7c0.1,0.2,0.2,0.4,0.2,0.7c0.1,0.2,0.1,0.4,0.2,0.7c0.1,0.2,0.1,0.4,0.2,0.7c0.1,0.2,0.1,0.5,0.2,0.7
		c0.1,0.2,0.1,0.5,0.2,0.7s0.1,0.5,0.2,0.7c0.1,0.2,0.1,0.5,0.2,0.7c0.1,0.2,0.1,0.5,0.1,0.7c0.1,0.2,0.1,0.5,0.1,0.7
		s0.1,0.5,0.1,0.7c0,0.2,0.1,0.5,0.1,0.7c0,0.2,0.1,0.5,0.1,0.7s0.1,0.5,0.1,0.7s0.1,0.5,0.1,0.7c0,0.2,0,0.5,0.1,0.7
		c0,0.2,0,0.5,0.1,0.7s0,0.5,0,0.7s0,0.5,0,0.7s0,0.5,0,0.7s0,0.5,0,0.7s0,0.5,0,0.7c0,0.2,0,0.5,0,0.7s0,0.5-0.1,0.7
		c0,0.2,0,0.5-0.1,0.7c0,0.2-0.1,0.5-0.1,0.7s-0.1,0.5-0.1,0.7s-0.1,0.5-0.1,0.7c0,0.2-0.1,0.5-0.1,0.7s-0.1,0.5-0.1,0.7
		c0,0.2-0.1,0.5-0.1,0.7s-0.1,0.5-0.1,0.7c-0.1,0.2-0.1,0.5-0.2,0.7s-0.1,0.5-0.2,0.7c-0.1,0.2-0.1,0.5-0.2,0.7s-0.1,0.5-0.2,0.7
		s-0.1,0.5-0.2,0.7s-0.1,0.4-0.2,0.7s-0.2,0.4-0.2,0.7s-0.2,0.4-0.2,0.7c-0.1,0.2-0.2,0.4-0.3,0.7s-0.2,0.4-0.3,0.7
		c-0.1,0.2-0.2,0.4-0.3,0.7c-0.1,0.2-0.2,0.4-0.3,0.7c-0.1,0.2-0.2,0.4-0.3,0.6c-0.1,0.2-0.2,0.4-0.3,0.6s-0.2,0.4-0.3,0.6
		s-0.2,0.4-0.3,0.6c-0.1,0.2-0.2,0.4-0.4,0.6c-0.1,0.2-0.2,0.4-0.4,0.6s-0.2,0.4-0.4,0.6s-0.3,0.4-0.4,0.6c-0.1,0.2-0.3,0.4-0.4,0.6
		c-0.1,0.2-0.3,0.4-0.4,0.6s-0.3,0.4-0.4,0.6s-0.3,0.4-0.4,0.6s-0.3,0.4-0.4,0.6s-0.3,0.4-0.4,0.6s-0.3,0.4-0.5,0.5
		c-0.1,0.2-0.3,0.4-0.5,0.5c-0.2,0.2-0.3,0.3-0.5,0.5c-0.2,0.2-0.3,0.3-0.5,0.5c-0.2,0.2-0.3,0.3-0.5,0.5c-0.2,0.2-0.3,0.3-0.5,0.5
		s-0.3,0.3-0.5,0.5c-0.2,0.2-0.4,0.3-0.5,0.5s-0.4,0.3-0.5,0.5c-0.2,0.2-0.4,0.3-0.6,0.5c-0.2,0.2-0.4,0.3-0.6,0.4
		c-0.2,0.2-0.4,0.3-0.6,0.4s-0.4,0.3-0.6,0.4s-0.4,0.3-0.6,0.4c-0.2,0.1-0.4,0.3-0.6,0.4c-0.2,0.1-0.4,0.3-0.6,0.4
		c-0.2,0.1-0.4,0.3-0.6,0.4s-0.4,0.3-0.6,0.4c-0.2,0.1-0.4,0.2-0.6,0.4s-0.4,0.2-0.6,0.4s-0.4,0.2-0.6,0.4s-0.4,0.2-0.7,0.3
		s-0.4,0.2-0.7,0.3s-0.4,0.2-0.7,0.3s-0.4,0.2-0.7,0.3c-0.2,0.1-0.4,0.2-0.7,0.3c0,0,0,0,0,0h0c0,0,0,0,0,0c0,0,0,0,0,0c0,0,0,0,0,0
		c0,0,0,0,0,0c0,0,0,0,0,0c0,0,0,0,0,0c0,0,0,0,0,0c0,0,0,0,0,0c0,0,0,0,0,0s0,0,0,0c0,0,0,0,0,0c0,0,0,0,0,0c0,0,0,0,0,0
		c0,0,0,0,0,0s0,0,0,0c0,0,0,0,0,0c0,0,0,0,0,0c0,0,0,0,0,0c0,0,0,0,0,0c0,0,0,0,0,0c0,0,0,0,0,0c0,0,0,0,0,0c0,0,0,0,0,0
		c0,0,0,0,0,0c0,0,0,0,0,0c0,0,0,0,0,0c0,0,0,0,0,0c0,0,0,0,0,0c0,0,0,0,0,0c0,0,0,0,0,0c0,0,0,0,0,0c0,0,0,0,0,0c0,0,0,0,0,0
		c0,0,0,0,0,0c0,0,0,0,0,0s0,0,0,0c0,0,0,0,0,0c0,0,0,0,0,0c0,0,0,0,0,0c0,0,0,0,0,0c0,0,0,0,0,0c0,0,0,0,0,0c0,0,0,0,0,0
		c0,0,0,0,0,0c0,0,0,0,0,0c0,0,0,0,0,0c0,0,0,0,0,0c0,0,0,0,0,0s0,0,0,0c0,0,0,0,0,0c0,0,0,0,0,0c0,0,0,0,0,0c0,0,0,0,0,0
		c0,0,0,0,0,0c0,0,0,0,0,0c0,0,0,0,0,0c0,0,0,0,0,0c0,0,0,0,0,0c0,0,0,0,0,0c0,0,0,0,0,0c0,0,0,0,0,0h0L120,132.9z"/>
	<path class="st0" d="M114.8,120.8C114.8,120.8,114.8,120.8,114.8,120.8c-0.1,0-0.1,0-0.1,0c0,0,0,0-0.1,0c0,0,0,0-0.1,0s0,0-0.1,0
		c0,0,0,0-0.1,0c0,0,0,0-0.1,0c0,0,0,0-0.1,0c0,0,0,0-0.1,0c0,0,0,0-0.1,0c0,0,0,0-0.1,0c0,0,0,0-0.1,0c0,0,0,0-0.1,0s0,0-0.1,0
		c0,0,0,0-0.1,0c0,0,0,0-0.1,0c0,0,0,0-0.1,0c0,0,0,0-0.1,0c0,0,0,0-0.1,0c0,0,0,0-0.1,0s0,0-0.1,0c0,0,0,0-0.1,0c0,0,0,0-0.1,0
		c0,0,0,0-0.1,0c0,0,0,0-0.1,0c0,0,0,0-0.1,0c0,0,0,0-0.1,0c0,0,0,0-0.1,0s0,0-0.1,0c0,0,0,0-0.1,0c0,0,0,0,0,0s0,0,0,0c0,0,0,0,0,0
		c0,0,0,0,0,0s0,0,0,0s0,0,0,0s0,0,0,0s0,0,0,0s0,0,0,0s0,0,0,0s0,0,0,0s0,0,0,0c0,0,0,0,0,0c0,0,0,0,0,0s0,0,0,0s0,0,0,0
		c0,0,0,0,0,0c0,0,0,0,0,0s0,0,0,0s0,0,0,0s0,0,0,0s0,0,0,0s0,0,0,0s0,0,0-0.1c0,0,0,0,0-0.1c0,0,0,0,0-0.1c0,0,0,0,0-0.1
		c0,0,0,0,0-0.1c0,0,0,0,0-0.1c0,0,0,0,0-0.1c0,0,0,0,0-0.1c0,0,0,0,0-0.1c0,0,0,0,0-0.1c0,0,0,0,0-0.1c0,0,0-0.1,0-0.1
		c0,0,0-0.1,0-0.1c0,0,0-0.1,0-0.1s0-0.1,0-0.1s0-0.1,0-0.1c0,0,0-0.1,0-0.1c0,0,0-0.1,0-0.1c0,0,0-0.1,0-0.1s0-0.1,0-0.1
		c0,0,0-0.1,0-0.1c0,0,0-0.1,0-0.1s0-0.1,0-0.1s0-0.1,0-0.1s0-0.1,0-0.1s0-0.1,0-0.1s0-0.1,0-0.1s0-0.1,0-0.1s0-0.1,0-0.1
		s0-0.1,0-0.1s0-0.1,0-0.1s0-0.1,0-0.1s0-0.1,0-0.1s0-0.1,0-0.1c0,0,0-0.1,0-0.1c0,0,0-0.1,0-0.1c0,0,0-0.1,0-0.1c0,0,0-0.1,0-0.1
		c0,0,0-0.1,0-0.1c0,0,0,0,0-0.1c0,0,0,0,0-0.1c0,0,0,0,0-0.1c0,0,0,0,0-0.1c0,0,0,0,0-0.1c0,0,0,0,0-0.1c0,0,0,0,0-0.1s0,0,0-0.1
		s0,0,0-0.1s0,0,0-0.1s0,0,0-0.1c0,0,0,0,0-0.1c0,0,0,0,0-0.1s0,0,0-0.1s0,0,0-0.1s0,0,0-0.1s0,0,0-0.1c0,0,0,0,0.1-0.1
		c0,0,0,0,0.1-0.1s0,0,0.1-0.1c0,0,0,0,0.1-0.1c0,0,0,0,0.1-0.1c0,0,0,0,0.1-0.1c0,0,0,0,0.1-0.1s0,0,0.1-0.1c0,0,0,0,0.1,0
		s0,0,0.1,0s0,0,0.1,0s0,0,0.1,0s0,0,0.1,0s0,0,0.1,0s0,0,0.1,0c0,0,0,0,0.1,0c0,0,0,0,0.1,0c0,0,0.1,0,0.1,0s0.1,0,0.1,0
		c0.1-0.1,0.2-0.1,0.3-0.2c0.1-0.1,0.2-0.1,0.3-0.2c0.1-0.1,0.2-0.1,0.3-0.2c0.1-0.1,0.2-0.1,0.3-0.2c0.1-0.1,0.2-0.1,0.3-0.2
		c0.1-0.1,0.2-0.1,0.3-0.2s0.2-0.1,0.3-0.2c0.1-0.1,0.2-0.1,0.3-0.2c0.1-0.1,0.2-0.1,0.3-0.2s0.2-0.1,0.3-0.2s0.2-0.1,0.3-0.2
		s0.2-0.1,0.3-0.2c0.1-0.1,0.2-0.2,0.3-0.2s0.2-0.2,0.3-0.2c0.1-0.1,0.2-0.2,0.3-0.2c0.1-0.1,0.2-0.2,0.3-0.2s0.2-0.2,0.3-0.2
		c0.1-0.1,0.2-0.2,0.3-0.2c0.1-0.1,0.2-0.2,0.3-0.2s0.2-0.2,0.3-0.2c0.1-0.1,0.2-0.2,0.3-0.3c0.1-0.1,0.2-0.2,0.3-0.3
		c0.1-0.1,0.2-0.2,0.2-0.3s0.2-0.2,0.2-0.3s0.2-0.2,0.2-0.3c0.1-0.1,0.2-0.2,0.2-0.3c0.1-0.1,0.2-0.2,0.2-0.3
		c0.1-0.1,0.2-0.2,0.2-0.3c0.1-0.1,0.2-0.2,0.2-0.3s0.1-0.2,0.2-0.3c0.1-0.1,0.1-0.2,0.2-0.3c0.1-0.1,0.1-0.2,0.2-0.3
		c0.1-0.1,0.1-0.2,0.2-0.3c0.1-0.1,0.1-0.2,0.2-0.3c0.1-0.1,0.1-0.2,0.2-0.3c0.1-0.1,0.1-0.2,0.2-0.3s0.1-0.2,0.2-0.3
		s0.1-0.2,0.2-0.3c0.1-0.1,0.1-0.2,0.2-0.3c0.1-0.1,0.1-0.2,0.2-0.3s0.1-0.2,0.2-0.3s0.1-0.2,0.2-0.3c0.1-0.1,0.1-0.2,0.1-0.3
		c0.1-0.1,0.1-0.2,0.1-0.3c0-0.1,0.1-0.2,0.1-0.3c0-0.1,0.1-0.2,0.1-0.3c0-0.1,0.1-0.2,0.1-0.3c0-0.1,0.1-0.2,0.1-0.3
		c0-0.1,0.1-0.2,0.1-0.4s0.1-0.2,0.1-0.4s0.1-0.2,0.1-0.4s0.1-0.2,0.1-0.4s0.1-0.2,0.1-0.4s0.1-0.2,0.1-0.4s0-0.2,0.1-0.4
		c0-0.1,0-0.2,0.1-0.4s0-0.2,0.1-0.4c0-0.1,0-0.2,0.1-0.4s0-0.2,0-0.4s0-0.2,0-0.4c0-0.1,0-0.2,0-0.4s0-0.2,0-0.4c0-0.1,0-0.2,0-0.4
		c0-0.1,0-0.3,0-0.4s0-0.3,0-0.4s0-0.2,0-0.4c0-0.1,0-0.2,0-0.4c0-0.1,0-0.2,0-0.4s0-0.2,0-0.4s0-0.2,0-0.4c0-0.1,0-0.2-0.1-0.4
		c0-0.1,0-0.2-0.1-0.4s0-0.2-0.1-0.4s0-0.2-0.1-0.4c0-0.1-0.1-0.2-0.1-0.4c0-0.1-0.1-0.2-0.1-0.4s-0.1-0.2-0.1-0.4s-0.1-0.2-0.1-0.4
		s-0.1-0.2-0.1-0.4c0-0.1-0.1-0.2-0.1-0.4s-0.1-0.2-0.1-0.3c0-0.1-0.1-0.2-0.1-0.3s-0.1-0.2-0.1-0.3c0-0.1-0.1-0.2-0.1-0.3
		s-0.1-0.2-0.1-0.3s-0.1-0.2-0.1-0.3c-0.1-0.1-0.1-0.2-0.2-0.3c-0.1-0.1-0.1-0.2-0.2-0.3s-0.1-0.2-0.2-0.3s-0.1-0.2-0.2-0.3
		s-0.1-0.2-0.2-0.3c-0.1-0.1-0.1-0.2-0.2-0.3s-0.1-0.2-0.2-0.3s-0.1-0.2-0.2-0.3c-0.1-0.1-0.1-0.2-0.2-0.3c-0.1-0.1-0.1-0.2-0.2-0.3
		s-0.1-0.2-0.2-0.3c-0.1-0.1-0.1-0.2-0.2-0.3c-0.1-0.1-0.1-0.2-0.2-0.3c-0.1-0.1-0.2-0.2-0.2-0.3c-0.1-0.1-0.2-0.2-0.2-0.3
		s-0.2-0.2-0.2-0.3s-0.2-0.2-0.2-0.3c-0.1-0.1-0.2-0.2-0.2-0.3c-0.1-0.1-0.2-0.2-0.2-0.3s-0.2-0.2-0.2-0.3c-0.1-0.1-0.2-0.2-0.3-0.3
		c-0.1-0.1-0.2-0.2-0.3-0.3c-0.1-0.1-0.2-0.2-0.3-0.2s-0.2-0.2-0.3-0.2s-0.2-0.2-0.3-0.2c-0.1-0.1-0.2-0.2-0.3-0.2
		c-0.1-0.1-0.2-0.2-0.3-0.2c-0.1-0.1-0.2-0.2-0.3-0.2s-0.2-0.2-0.3-0.2s-0.2-0.2-0.3-0.2c-0.1-0.1-0.2-0.1-0.3-0.2
		c-0.1-0.1-0.2-0.1-0.3-0.2s-0.2-0.1-0.3-0.2c-0.1-0.1-0.2-0.1-0.3-0.2s-0.2-0.1-0.3-0.2c-0.1-0.1-0.2-0.1-0.3-0.2
		c-0.1-0.1-0.2-0.1-0.3-0.2s-0.2-0.1-0.3-0.2c-0.1-0.1-0.2-0.1-0.3-0.2c-0.1-0.1-0.2-0.1-0.3-0.2c-0.1-0.1-0.2-0.1-0.3-0.2
		c-0.1-0.1-0.2-0.1-0.3-0.2c0,0-0.1,0-0.1,0s-0.1,0-0.1,0s0,0-0.1,0c0,0,0,0-0.1,0c0,0,0,0-0.1,0c0,0,0,0-0.1,0c0,0,0,0-0.1,0
		s0,0-0.1,0s0,0-0.1,0s0,0-0.1,0s0,0-0.1,0s0,0-0.1-0.1c0,0,0,0-0.1-0.1s0,0-0.1-0.1c0,0,0,0-0.1-0.1c0,0,0,0-0.1-0.1
		c0,0,0,0-0.1-0.1s0,0-0.1-0.1c0,0,0,0-0.1-0.1c0,0,0,0,0-0.1c0,0,0,0,0-0.1s0,0,0-0.1s0,0,0-0.1s0,0,0-0.1s0,0,0-0.1s0,0,0-0.1
		c0,0,0,0,0-0.1s0,0,0-0.1s0,0,0-0.1s0,0,0-0.1c0,0,0,0,0-0.1c0,0,0,0,0-0.1s0,0,0-0.1c0,0,0,0,0-0.1c0,0,0,0,0-0.1c0,0,0,0,0-0.1
		c0,0,0,0,0-0.1c0,0,0-0.1,0-0.1c0,0,0-0.1,0-0.1c0,0,0-0.1,0-0.1c0,0,0-0.1,0-0.1c0,0,0-0.1,0-0.1c0,0,0-0.1,0-0.1s0-0.1,0-0.1
		s0-0.1,0-0.1s0-0.1,0-0.1s0-0.1,0-0.1s0-0.1,0-0.1s0-0.1,0-0.1s0-0.1,0-0.1s0-0.1,0-0.1s0-0.1,0-0.1s0-0.1,0-0.1s0-0.1,0-0.1
		s0-0.1,0-0.1c0,0,0-0.1,0-0.1s0-0.1,0-0.1c0,0,0-0.1,0-0.1c0,0,0-0.1,0-0.1c0,0,0-0.1,0-0.1c0,0,0-0.1,0-0.1c0,0,0-0.1,0-0.1
		s0-0.1,0-0.1c0,0,0-0.1,0-0.1c0,0,0-0.1,0-0.1s0-0.1,0-0.1s0,0,0-0.1c0,0,0,0,0-0.1c0,0,0,0,0-0.1c0,0,0,0,0-0.1c0,0,0,0,0-0.1
		s0,0,0-0.1s0,0,0-0.1s0,0,0-0.1s0,0,0-0.1s0,0,0.1-0.1c0,0,0,0,0.1-0.1c0,0,0,0,0.1-0.1c0,0,0,0,0.1-0.1c0,0,0,0,0.1-0.1
		c0,0,0,0,0.1-0.1s0,0,0.1-0.1c0,0,0,0,0.1-0.1c0,0,0,0,0.1,0c0,0,0,0,0.1,0s0,0,0.1,0s0,0,0.1,0s0,0,0.1,0s0,0,0.1,0s0,0,0.1,0
		c0,0,0,0,0.1,0s0,0,0.1,0s0,0,0.1,0s0,0,0.1,0c0,0,0,0,0.1,0c0,0,0,0,0.1,0c0,0,0,0,0.1,0c0,0,0,0,0.1,0s0,0,0.1,0c0,0,0,0,0.1,0
		c0,0,0,0,0.1,0s0.1,0,0.1,0c0,0,0.1,0,0.1,0c0,0,0.1,0,0.1,0s0.1,0,0.1,0s0.1,0,0.1,0c0,0,0.1,0,0.1,0s0.1,0,0.1,0s0.1,0,0.1,0
		s0.1,0,0.1,0s0.1,0,0.1,0s0.1,0,0.1,0s0.1,0,0.1,0s0.1,0,0.1,0s0.1,0,0.1,0s0.1,0,0.1,0s0.1,0,0.1,0s0.1,0,0.1,0s0.1,0,0.1,0
		c0,0,0.1,0,0.1,0s0.1,0,0.1,0c0,0,0.1,0,0.1,0c0,0,0.1,0,0.1,0c0,0,0.1,0,0.1,0c0,0,0.1,0,0.1,0c0,0,0.1,0,0.1,0s0.1,0,0.1,0
		c0,0,0.1,0,0.1,0c0.2,0.1,0.3,0.1,0.4,0.2c0.2,0.1,0.3,0.1,0.4,0.2c0.2,0.1,0.3,0.1,0.4,0.2c0.2,0.1,0.3,0.1,0.4,0.2
		c0.1,0.1,0.3,0.2,0.4,0.2s0.3,0.2,0.4,0.2s0.3,0.2,0.4,0.2c0.1,0.1,0.3,0.2,0.4,0.2c0.1,0.1,0.3,0.2,0.4,0.3
		c0.1,0.1,0.3,0.2,0.4,0.3c0.1,0.1,0.3,0.2,0.4,0.3c0.1,0.1,0.3,0.2,0.4,0.3s0.3,0.2,0.4,0.3c0.1,0.1,0.3,0.2,0.4,0.3
		c0.1,0.1,0.2,0.2,0.4,0.3c0.1,0.1,0.2,0.2,0.4,0.3c0.1,0.1,0.2,0.2,0.4,0.3c0.1,0.1,0.2,0.2,0.4,0.3c0.1,0.1,0.2,0.2,0.3,0.3
		c0.1,0.1,0.2,0.2,0.3,0.3c0.1,0.1,0.2,0.2,0.3,0.3c0.1,0.1,0.2,0.2,0.3,0.3c0.1,0.1,0.2,0.2,0.3,0.3c0.1,0.1,0.2,0.2,0.3,0.3
		c0.1,0.1,0.2,0.2,0.3,0.4s0.2,0.2,0.3,0.4c0.1,0.1,0.2,0.2,0.3,0.4s0.2,0.2,0.3,0.4c0.1,0.1,0.2,0.2,0.3,0.4
		c0.1,0.1,0.2,0.2,0.3,0.4s0.2,0.3,0.3,0.4s0.2,0.3,0.3,0.4c0.1,0.1,0.2,0.3,0.3,0.4c0.1,0.1,0.2,0.3,0.2,0.4
		c0.1,0.1,0.2,0.3,0.2,0.4c0.1,0.1,0.2,0.3,0.2,0.4c0.1,0.1,0.1,0.3,0.2,0.4c0.1,0.1,0.1,0.3,0.2,0.4s0.1,0.3,0.2,0.4
		s0.1,0.3,0.2,0.4c0.1,0.1,0.1,0.3,0.2,0.4c0.1,0.1,0.1,0.3,0.2,0.4c0.1,0.2,0.1,0.3,0.2,0.4s0.1,0.3,0.2,0.4
		c0.1,0.2,0.1,0.3,0.2,0.4c0.1,0.2,0.1,0.3,0.2,0.4s0.1,0.3,0.1,0.4c0.1,0.2,0.1,0.3,0.1,0.4c0.1,0.2,0.1,0.3,0.1,0.5
		s0.1,0.3,0.1,0.5c0,0.2,0.1,0.3,0.1,0.5s0.1,0.3,0.1,0.5s0.1,0.3,0.1,0.5s0.1,0.3,0.1,0.5s0.1,0.3,0.1,0.5c0,0.2,0.1,0.3,0.1,0.5
		s0.1,0.3,0.1,0.5s0,0.3,0.1,0.5s0,0.3,0.1,0.5c0,0.2,0,0.3,0,0.5c0,0.2,0,0.3,0,0.5c0,0.2,0,0.3,0,0.5c0,0.2,0,0.3,0,0.5
		c0,0.2,0,0.3,0,0.5s0,0.3,0,0.5c0,0.2,0,0.3,0,0.5c0,0.2,0,0.3,0,0.5c0,0.2,0,0.3,0,0.5c0,0.2,0,0.3,0,0.5c0,0.2,0,0.3-0.1,0.5
		s0,0.3-0.1,0.5s0,0.3-0.1,0.5c0,0.2-0.1,0.3-0.1,0.5s-0.1,0.3-0.1,0.5c0,0.2-0.1,0.3-0.1,0.5s-0.1,0.3-0.1,0.5
		c0,0.2-0.1,0.3-0.1,0.5s-0.1,0.3-0.1,0.5s-0.1,0.3-0.1,0.5s-0.1,0.3-0.1,0.5c-0.1,0.2-0.1,0.3-0.1,0.4c-0.1,0.2-0.1,0.3-0.1,0.4
		s-0.1,0.3-0.2,0.4c-0.1,0.2-0.1,0.3-0.2,0.4c-0.1,0.2-0.1,0.3-0.2,0.4c-0.1,0.2-0.1,0.3-0.2,0.4s-0.1,0.3-0.2,0.4s-0.1,0.3-0.2,0.4
		c-0.1,0.1-0.1,0.3-0.2,0.4s-0.1,0.3-0.2,0.4s-0.1,0.3-0.2,0.4s-0.1,0.3-0.2,0.4c-0.1,0.1-0.2,0.3-0.2,0.4c-0.1,0.1-0.2,0.3-0.2,0.4
		c-0.1,0.1-0.2,0.3-0.2,0.4c-0.1,0.1-0.2,0.3-0.3,0.4c-0.1,0.1-0.2,0.3-0.3,0.4c-0.1,0.1-0.2,0.3-0.3,0.4s-0.2,0.3-0.3,0.4
		c-0.1,0.1-0.2,0.2-0.3,0.4c-0.1,0.1-0.2,0.2-0.3,0.4s-0.2,0.2-0.3,0.4c-0.1,0.1-0.2,0.2-0.3,0.4c-0.1,0.1-0.2,0.2-0.3,0.4
		c-0.1,0.1-0.2,0.2-0.3,0.3c-0.1,0.1-0.2,0.2-0.3,0.3c-0.1,0.1-0.2,0.2-0.3,0.3s-0.2,0.2-0.3,0.3c-0.1,0.1-0.2,0.2-0.3,0.3
		s-0.2,0.2-0.3,0.3c-0.1,0.1-0.2,0.2-0.4,0.3s-0.2,0.2-0.4,0.3s-0.2,0.2-0.4,0.3s-0.2,0.2-0.4,0.3c-0.1,0.1-0.2,0.2-0.4,0.3
		s-0.3,0.2-0.4,0.3s-0.3,0.2-0.4,0.3s-0.3,0.2-0.4,0.3c-0.1,0.1-0.3,0.2-0.4,0.3c-0.1,0.1-0.3,0.2-0.4,0.3c-0.1,0.1-0.3,0.2-0.4,0.2
		s-0.3,0.2-0.4,0.2c-0.1,0.1-0.3,0.2-0.4,0.2c-0.1,0.1-0.3,0.2-0.4,0.2c-0.1,0.1-0.3,0.2-0.4,0.2s-0.3,0.1-0.4,0.2s-0.3,0.1-0.4,0.2
		c-0.2,0.1-0.3,0.1-0.4,0.2c0,0,0,0,0,0c0,0,0,0,0,0c0,0,0,0,0,0c0,0,0,0,0,0s0,0,0,0c0,0,0,0,0,0c0,0,0,0,0,0c0,0,0,0,0,0
		c0,0,0,0,0,0c0,0,0,0,0,0c0,0,0,0,0,0s0,0,0,0s0,0,0,0h0c0,0,0,0,0,0c0,0,0,0,0,0c0,0,0,0,0,0s0,0,0,0h0c0,0,0,0,0,0c0,0,0,0,0,0
		c0,0,0,0,0,0c0,0,0,0,0,0c0,0,0,0,0,0c0,0,0,0,0,0c0,0,0,0,0,0c0,0,0,0,0,0c0,0,0,0,0,0c0,0,0,0,0,0c0,0,0,0,0,0c0,0,0,0,0,0
		c0,0,0,0,0,0c0,0,0,0,0,0c0,0,0,0,0,0h0c0,0,0,0,0,0c0,0,0,0,0,0s0,0,0,0c0,0,0,0,0,0c0,0,0,0,0,0s0,0,0,0c0,0,0,0,0,0h0
		c0,0,0,0,0,0c0,0,0,0,0,0h0c0,0,0,0,0,0s0,0,0,0c0,0,0,0,0,0c0,0,0,0,0,0c0,0,0,0,0,0c0,0,0,0,0,0
		C114.9,120.7,114.9,120.7,114.8,120.8C114.9,120.7,114.9,120.7,114.8,120.8C114.9,120.7,114.9,120.7,114.8,120.8
		C114.9,120.7,114.9,120.7,114.8,120.8C114.9,120.7,114.9,120.7,114.8,120.8C114.8,120.7,114.8,120.7,114.8,120.8
		C114.8,120.7,114.8,120.7,114.8,120.8C114.8,120.7,114.8,120.7,114.8,120.8C114.8,120.7,114.8,120.7,114.8,120.8
		C114.8,120.7,114.8,120.7,114.8,120.8c-0.1,0-0.1,0-0.1,0h0L114.8,120.8z"/>
	<path class="st0" d="M109.8,108.9C109.8,108.9,109.8,108.9,109.8,108.9c-0.1,0-0.1,0-0.1,0c0,0,0,0-0.1,0s0,0-0.1,0c0,0,0,0-0.1,0
		c0,0,0,0-0.1,0c0,0,0,0-0.1,0c0,0,0,0-0.1,0c0,0,0,0-0.1,0c0,0,0,0-0.1,0c0,0,0,0-0.1,0c0,0,0,0-0.1,0c0,0,0,0-0.1,0c0,0,0,0-0.1,0
		c0,0,0,0-0.1,0s0,0-0.1,0s0,0-0.1,0c0,0,0,0-0.1,0c0,0,0,0-0.1,0s0,0-0.1,0s0,0-0.1,0c0,0,0,0-0.1,0s0,0-0.1,0c0,0,0,0-0.1,0
		c0,0,0,0-0.1,0c0,0,0,0-0.1,0c0,0,0,0-0.1,0s0,0-0.1,0c0,0,0,0-0.1,0s0,0-0.1,0c0,0,0,0,0,0c0,0,0,0,0,0c0,0,0,0,0,0c0,0,0,0,0,0
		s0,0,0,0s0,0,0,0s0,0,0,0s0,0,0,0s0,0,0,0s0,0,0,0s0,0,0,0c0,0,0,0,0,0c0,0,0,0,0,0s0,0,0,0s0,0,0,0c0,0,0,0,0,0c0,0,0,0,0,0
		c0,0,0,0,0,0c0,0,0,0,0,0s0,0,0,0s0,0,0,0s0,0,0,0s0,0,0,0s0,0,0-0.1c0,0,0,0,0-0.1c0,0,0,0,0-0.1c0,0,0,0,0-0.1c0,0,0,0,0-0.1
		c0,0,0,0,0-0.1c0,0,0,0,0-0.1c0,0,0,0,0-0.1c0,0,0,0,0-0.1c0,0,0,0,0-0.1c0,0,0,0,0-0.1c0,0,0-0.1,0-0.1s0-0.1,0-0.1
		c0,0,0-0.1,0-0.1s0-0.1,0-0.1s0-0.1,0-0.1c0,0,0-0.1,0-0.1c0,0,0-0.1,0-0.1s0-0.1,0-0.1c0,0,0-0.1,0-0.1c0,0,0-0.1,0-0.1
		c0,0,0-0.1,0-0.1s0-0.1,0-0.1s0-0.1,0-0.1s0-0.1,0-0.1s0-0.1,0-0.1s0-0.1,0-0.1s0-0.1,0-0.1s0-0.1,0-0.1s0-0.1,0-0.1s0-0.1,0-0.1
		s0-0.1,0-0.1s0-0.1,0-0.1s0-0.1,0-0.1c0,0,0-0.1,0-0.1c0,0,0-0.1,0-0.1c0,0,0-0.1,0-0.1c0,0,0-0.1,0-0.1c0,0,0-0.1,0-0.1
		c0,0,0,0,0-0.1c0,0,0,0,0-0.1c0,0,0,0,0-0.1c0,0,0,0,0-0.1c0,0,0,0,0-0.1c0,0,0,0,0-0.1c0,0,0,0,0-0.1s0,0,0-0.1s0,0,0-0.1
		s0,0,0-0.1s0,0,0-0.1c0,0,0,0,0-0.1c0,0,0,0,0-0.1s0,0,0-0.1s0,0,0-0.1s0,0,0-0.1s0,0,0-0.1c0,0,0,0,0.1-0.1c0,0,0,0,0.1-0.1
		c0,0,0,0,0.1-0.1c0,0,0,0,0.1-0.1c0,0,0,0,0.1-0.1c0,0,0,0,0.1-0.1c0,0,0,0,0.1-0.1c0,0,0,0,0.1-0.1c0,0,0,0,0.1,0s0,0,0.1,0
		s0,0,0.1,0s0,0,0.1,0s0,0,0.1,0s0,0,0.1,0s0,0,0.1,0c0,0,0,0,0.1,0c0,0,0,0,0.1,0c0,0,0.1,0,0.1,0s0.1,0,0.1,0c0,0,0.1,0,0.1-0.1
		s0.1,0,0.1-0.1c0,0,0.1,0,0.1-0.1c0,0,0.1,0,0.1-0.1s0.1,0,0.1-0.1s0.1,0,0.1-0.1c0,0,0.1-0.1,0.1-0.1s0.1-0.1,0.1-0.1
		s0.1-0.1,0.1-0.1s0.1-0.1,0.1-0.1c0,0,0.1-0.1,0.1-0.1c0,0,0.1-0.1,0.1-0.1s0.1-0.1,0.1-0.1s0.1-0.1,0.1-0.1s0.1-0.1,0.1-0.1
		c0,0,0.1-0.1,0.1-0.1s0.1-0.1,0.1-0.1s0.1-0.1,0.1-0.1s0.1-0.1,0.1-0.1s0.1-0.1,0.1-0.1s0.1-0.1,0.1-0.1s0.1-0.1,0.1-0.1
		c0,0,0.1-0.1,0.1-0.1s0.1-0.1,0.1-0.1s0.1-0.1,0.1-0.1s0.1-0.1,0.1-0.1s0.1-0.1,0.1-0.1c0,0,0.1-0.1,0.1-0.1c0,0,0.1-0.1,0.1-0.1
		s0.1-0.1,0.1-0.1s0.1-0.1,0.1-0.1s0.1-0.1,0.1-0.1s0.1-0.1,0.1-0.1s0.1-0.1,0.1-0.1c0,0,0.1-0.1,0.1-0.1c0,0,0-0.1,0.1-0.1
		s0-0.1,0.1-0.1s0-0.1,0.1-0.1s0-0.1,0.1-0.1s0-0.1,0.1-0.1s0-0.1,0.1-0.1s0-0.1,0.1-0.1c0,0,0-0.1,0.1-0.1c0,0,0-0.1,0.1-0.1
		c0,0,0-0.1,0.1-0.1c0,0,0-0.1,0-0.1c0,0,0-0.1,0-0.1s0-0.1,0-0.1s0-0.1,0-0.1s0-0.1,0-0.1c0,0,0-0.1,0-0.1s0-0.1,0-0.1
		c0,0,0-0.1,0-0.1s0-0.1,0-0.1c0,0,0-0.1,0-0.1s0-0.1,0-0.1c0-0.1,0-0.1,0-0.1c0-0.1,0-0.1,0-0.1c0-0.1,0-0.1,0-0.1
		c0-0.1,0-0.1,0-0.1c0-0.1,0-0.1,0-0.1s0-0.1,0-0.1s0-0.1,0-0.1s0-0.1,0-0.1s0-0.1,0-0.1s0-0.1,0-0.1s0-0.1,0-0.1s0-0.1,0-0.1
		s0-0.1,0-0.1c0-0.1,0-0.1,0-0.1c0-0.1,0-0.1,0-0.1c0-0.1,0-0.1,0-0.1c0-0.1,0-0.1,0-0.1c0,0,0-0.1,0-0.1s0-0.1,0-0.1
		c0,0,0-0.1,0-0.1s0-0.1,0-0.1s0-0.1,0-0.1s0-0.1,0-0.1c0,0,0-0.1,0-0.1s0-0.1,0-0.1s0-0.1,0-0.1s0-0.1,0-0.1c0,0,0-0.1-0.1-0.1
		c0,0,0-0.1-0.1-0.1c0,0,0-0.1-0.1-0.1c0,0,0-0.1-0.1-0.1c0,0,0-0.1-0.1-0.1s0-0.1-0.1-0.1s0-0.1-0.1-0.1s0-0.1-0.1-0.1
		s0-0.1-0.1-0.1s0-0.1-0.1-0.1s-0.1-0.1-0.1-0.1c0,0-0.1-0.1-0.1-0.1c0,0-0.1-0.1-0.1-0.1s-0.1-0.1-0.1-0.1c0,0-0.1-0.1-0.1-0.1
		s-0.1-0.1-0.1-0.1s-0.1-0.1-0.1-0.1s-0.1-0.1-0.1-0.1c0,0-0.1-0.1-0.1-0.1c0,0-0.1-0.1-0.1-0.1s-0.1-0.1-0.1-0.1s-0.1-0.1-0.1-0.1
		s-0.1-0.1-0.1-0.1s-0.1-0.1-0.1-0.1c0,0-0.1-0.1-0.1-0.1c0,0-0.1-0.1-0.1-0.1c0,0-0.1-0.1-0.1-0.1s-0.1-0.1-0.1-0.1
		s-0.1-0.1-0.1-0.1s-0.1-0.1-0.1-0.1c0,0-0.1-0.1-0.1-0.1c0,0-0.1-0.1-0.1-0.1s-0.1-0.1-0.1-0.1s-0.1-0.1-0.1-0.1s-0.1-0.1-0.1-0.1
		c0,0-0.1-0.1-0.1-0.1c0,0-0.1-0.1-0.1-0.1s-0.1-0.1-0.1-0.1s-0.1-0.1-0.1-0.1s-0.1,0-0.1-0.1c0,0-0.1,0-0.1-0.1s-0.1,0-0.1-0.1
		s-0.1,0-0.1-0.1c0,0-0.1,0-0.1-0.1c0,0-0.1,0-0.1-0.1c0,0-0.1,0-0.1,0s-0.1,0-0.1,0s0,0-0.1,0c0,0,0,0-0.1,0c0,0,0,0-0.1,0
		c0,0,0,0-0.1,0c0,0,0,0-0.1,0s0,0-0.1,0s0,0-0.1,0s0,0-0.1,0s0,0-0.1,0s0,0-0.1-0.1c0,0,0,0-0.1-0.1c0,0,0,0-0.1-0.1
		c0,0,0,0-0.1-0.1c0,0,0,0-0.1-0.1c0,0,0,0-0.1-0.1c0,0,0,0-0.1-0.1c0,0,0,0-0.1-0.1c0,0,0,0,0-0.1c0,0,0,0,0-0.1s0,0,0-0.1
		s0,0,0-0.1s0,0,0-0.1s0,0,0-0.1s0,0,0-0.1c0,0,0,0,0-0.1s0,0,0-0.1s0,0,0-0.1s0,0,0-0.1c0,0,0,0,0-0.1s0,0,0-0.1c0,0,0,0,0-0.1
		c0,0,0,0,0-0.1c0,0,0,0,0-0.1c0,0,0,0,0-0.1c0,0,0,0,0-0.1c0,0,0-0.1,0-0.1c0,0,0-0.1,0-0.1c0,0,0-0.1,0-0.1c0,0,0-0.1,0-0.1
		c0,0,0-0.1,0-0.1c0,0,0-0.1,0-0.1s0-0.1,0-0.1s0-0.1,0-0.1s0-0.1,0-0.1s0-0.1,0-0.1s0-0.1,0-0.1s0-0.1,0-0.1s0-0.1,0-0.1
		s0-0.1,0-0.1s0-0.1,0-0.1s0-0.1,0-0.1s0-0.1,0-0.1s0-0.1,0-0.1c0,0,0-0.1,0-0.1c0,0,0-0.1,0-0.1s0-0.1,0-0.1c0,0,0-0.1,0-0.1
		c0,0,0-0.1,0-0.1c0,0,0-0.1,0-0.1s0-0.1,0-0.1s0-0.1,0-0.1c0,0,0-0.1,0-0.1c0,0,0-0.1,0-0.1s0-0.1,0-0.1s0,0,0-0.1c0,0,0,0,0-0.1
		c0,0,0,0,0-0.1c0,0,0,0,0-0.1c0,0,0,0,0-0.1s0,0,0-0.1s0,0,0-0.1s0,0,0-0.1s0,0,0-0.1s0,0,0.1-0.1c0,0,0,0,0.1-0.1c0,0,0,0,0.1-0.1
		c0,0,0,0,0.1-0.1c0,0,0,0,0.1-0.1c0,0,0,0,0.1-0.1c0,0,0,0,0.1-0.1c0,0,0,0,0.1-0.1s0,0,0.1,0c0,0,0,0,0.1,0s0,0,0.1,0s0,0,0.1,0
		s0,0,0.1,0s0,0,0.1,0s0,0,0.1,0c0,0,0,0,0.1,0s0,0,0.1,0s0,0,0.1,0s0,0,0.1,0c0,0,0,0,0.1,0c0,0,0,0,0.1,0s0,0,0.1,0c0,0,0,0,0.1,0
		c0,0,0,0,0.1,0c0,0,0,0,0.1,0s0,0,0.1,0c0,0,0.1,0,0.1,0c0,0,0.1,0,0.1,0c0,0,0.1,0,0.1,0c0,0,0.1,0,0.1,0c0,0,0.1,0,0.1,0
		c0,0,0.1,0,0.1,0s0.1,0,0.1,0s0.1,0,0.1,0s0.1,0,0.1,0s0.1,0,0.1,0s0.1,0,0.1,0s0.1,0,0.1,0s0.1,0,0.1,0s0.1,0,0.1,0s0.1,0,0.1,0
		s0.1,0,0.1,0s0.1,0,0.1,0s0.1,0,0.1,0s0.1,0,0.1,0c0,0,0.1,0,0.1,0c0,0,0.1,0,0.1,0c0,0,0.1,0,0.1,0c0,0,0.1,0,0.1,0
		c0,0,0.1,0,0.1,0s0.1,0,0.1,0s0.1,0,0.1,0c0,0,0.1,0,0.1,0c0.1,0,0.2,0.1,0.2,0.1s0.2,0.1,0.2,0.1s0.2,0.1,0.2,0.1s0.2,0.1,0.2,0.1
		s0.2,0.1,0.2,0.1c0.1,0,0.1,0.1,0.2,0.1c0.1,0,0.1,0.1,0.2,0.1s0.1,0.1,0.2,0.1c0.1,0,0.1,0.1,0.2,0.1s0.1,0.1,0.2,0.1
		s0.1,0.1,0.2,0.1c0.1,0.1,0.1,0.1,0.2,0.1s0.1,0.1,0.2,0.1c0.1,0.1,0.1,0.1,0.2,0.2c0.1,0.1,0.1,0.1,0.2,0.2
		c0.1,0.1,0.1,0.1,0.2,0.2c0.1,0.1,0.1,0.1,0.2,0.2c0.1,0.1,0.1,0.1,0.2,0.2s0.1,0.1,0.2,0.2s0.1,0.1,0.2,0.2
		c0.1,0.1,0.1,0.1,0.2,0.2s0.1,0.1,0.2,0.2s0.1,0.1,0.2,0.2c0.1,0.1,0.1,0.1,0.2,0.2s0.1,0.1,0.2,0.2s0.1,0.1,0.2,0.2
		s0.1,0.1,0.2,0.2c0.1,0.1,0.1,0.1,0.2,0.2c0.1,0.1,0.1,0.1,0.1,0.2c0.1,0.1,0.1,0.1,0.1,0.2c0.1,0.1,0.1,0.1,0.1,0.2
		s0.1,0.1,0.1,0.2s0.1,0.1,0.1,0.2s0.1,0.1,0.1,0.2s0.1,0.1,0.1,0.2s0.1,0.1,0.1,0.2s0.1,0.1,0.1,0.2s0.1,0.1,0.1,0.2
		c0,0.1,0.1,0.1,0.1,0.2s0.1,0.1,0.1,0.2c0,0.1,0.1,0.1,0.1,0.2s0.1,0.2,0.1,0.2c0,0.1,0.1,0.2,0.1,0.2s0.1,0.2,0.1,0.2
		s0.1,0.2,0.1,0.2c0,0.1,0.1,0.2,0.1,0.2s0.1,0.2,0.1,0.2c0,0.1,0.1,0.2,0.1,0.2s0.1,0.2,0.1,0.2s0,0.2,0.1,0.2c0,0.1,0,0.2,0.1,0.2
		c0,0.1,0,0.2,0.1,0.2c0,0.1,0,0.2,0.1,0.2c0,0.1,0,0.2,0.1,0.2c0,0.1,0,0.2,0,0.2c0,0.1,0,0.2,0,0.2s0,0.2,0,0.2c0,0.1,0,0.2,0,0.2
		c0,0.1,0,0.2,0,0.2c0,0.1,0,0.2,0,0.2s0,0.2,0,0.2c0,0.1,0,0.2,0,0.2c0,0.1,0,0.2,0,0.2s0,0.2,0,0.2s0,0.2,0,0.2s0,0.2,0,0.2
		s0,0.2,0,0.2c0,0.1,0,0.2,0,0.2s0,0.2,0,0.2c0,0.1,0,0.2,0,0.2c0,0.1,0,0.2,0,0.2c0,0.1,0,0.2,0,0.2s0,0.2,0,0.2c0,0.1,0,0.2,0,0.2
		c0,0.1,0,0.2-0.1,0.2c0,0.1,0,0.2-0.1,0.2c0,0.1,0,0.2-0.1,0.2c0,0.1,0,0.2-0.1,0.2c0,0.1,0,0.2-0.1,0.2c0,0.1,0,0.2-0.1,0.2
		c0,0.1-0.1,0.2-0.1,0.2s-0.1,0.2-0.1,0.2s-0.1,0.2-0.1,0.2s-0.1,0.2-0.1,0.2c0,0.1-0.1,0.2-0.1,0.2s-0.1,0.2-0.1,0.2
		s-0.1,0.2-0.1,0.2c0,0.1-0.1,0.2-0.1,0.2s-0.1,0.1-0.1,0.2c0,0.1-0.1,0.1-0.1,0.2s-0.1,0.1-0.1,0.2s-0.1,0.1-0.1,0.2
		s-0.1,0.1-0.1,0.2s-0.1,0.1-0.1,0.2s-0.1,0.1-0.1,0.2c0,0.1-0.1,0.1-0.1,0.2s-0.1,0.1-0.1,0.2c-0.1,0.1-0.1,0.1-0.1,0.2
		c-0.1,0.1-0.1,0.1-0.1,0.2c-0.1,0.1-0.1,0.1-0.1,0.2c-0.1,0.1-0.1,0.1-0.2,0.2c-0.1,0.1-0.1,0.1-0.2,0.2s-0.1,0.1-0.2,0.2
		s-0.1,0.1-0.2,0.2c-0.1,0.1-0.1,0.1-0.2,0.2s-0.1,0.1-0.2,0.2c-0.1,0.1-0.1,0.1-0.2,0.2s-0.1,0.1-0.2,0.2s-0.1,0.1-0.2,0.2
		c-0.1,0.1-0.1,0.1-0.2,0.2s-0.1,0.1-0.2,0.2s-0.1,0.1-0.2,0.2c-0.1,0.1-0.1,0.1-0.2,0.2c-0.1,0.1-0.1,0.1-0.2,0.2
		c-0.1,0.1-0.1,0.1-0.2,0.2c-0.1,0.1-0.1,0.1-0.2,0.1c-0.1,0.1-0.1,0.1-0.2,0.1s-0.1,0.1-0.2,0.1c-0.1,0-0.1,0.1-0.2,0.1
		s-0.1,0.1-0.2,0.1s-0.1,0.1-0.2,0.1c-0.1,0-0.1,0.1-0.2,0.1s-0.1,0.1-0.2,0.1c-0.1,0-0.2,0.1-0.2,0.1c-0.1,0-0.2,0.1-0.2,0.1
		s-0.2,0.1-0.2,0.1s-0.2,0.1-0.2,0.1s-0.2,0.1-0.2,0.1c0,0,0,0,0,0h0c0,0,0,0,0,0c0,0,0,0,0,0c0,0,0,0,0,0c0,0,0,0,0,0c0,0,0,0,0,0
		c0,0,0,0,0,0c0,0,0,0,0,0c0,0,0,0,0,0c0,0,0,0,0,0c0,0,0,0,0,0s0,0,0,0c0,0,0,0,0,0c0,0,0,0,0,0c0,0,0,0,0,0c0,0,0,0,0,0s0,0,0,0h0
		c0,0,0,0,0,0c0,0,0,0,0,0s0,0,0,0c0,0,0,0,0,0c0,0,0,0,0,0c0,0,0,0,0,0c0,0,0,0,0,0c0,0,0,0,0,0c0,0,0,0,0,0c0,0,0,0,0,0
		c0,0,0,0,0,0c0,0,0,0,0,0c0,0,0,0,0,0c0,0,0,0,0,0c0,0,0,0,0,0c0,0,0,0,0,0c0,0,0,0,0,0c0,0,0,0,0,0c0,0,0,0,0,0c0,0,0,0,0,0
		c0,0,0,0,0,0c0,0,0,0,0,0c0,0,0,0,0,0c0,0,0,0,0,0c0,0,0,0,0,0c0,0,0,0,0,0c0,0,0,0,0,0c0,0,0,0,0,0c0,0,0,0,0,0c0,0,0,0,0,0
		c0,0,0,0,0,0c0,0,0,0,0,0c0,0,0,0,0,0C109.9,108.8,109.9,108.8,109.8,108.9C109.9,108.8,109.9,108.8,109.8,108.9
		C109.9,108.8,109.9,108.8,109.8,108.9C109.9,108.8,109.9,108.8,109.8,108.9C109.8,108.8,109.8,108.8,109.8,108.9
		C109.8,108.8,109.8,108.8,109.8,108.9C109.8,108.8,109.8,108.8,109.8,108.9C109.8,108.8,109.8,108.8,109.8,108.9
		C109.8,108.8,109.8,108.8,109.8,108.9C109.7,108.8,109.7,108.8,109.8,108.9c-0.1-0.1-0.1-0.1-0.1-0.1h0L109.8,108.9z"/>
</g>
</svg>
