<?xml version="1.0" encoding="UTF-8"?>
<svg id="Layer_1" data-name="Layer 1" xmlns="http://www.w3.org/2000/svg" viewBox="0 0 192.83 192.83">
  <defs>
    <style>
      .cls-1 {
        fill: #010101;
        stroke-width: 0px;
      }
    </style>
  </defs>
  <path class="cls-1" d="M96.42,12.03c.73,0,1.45,0,2.17.03.72.02,1.44.05,2.16.08.72.04,1.43.08,2.15.14.71.05,1.42.12,2.13.19.71.07,1.41.15,2.12.24.7.09,1.4.19,2.1.29.7.11,1.39.22,2.08.35.69.12,1.38.26,2.07.4.69.14,1.37.29,2.05.45.68.16,1.36.32,2.03.5s1.34.36,2.01.55c.67.19,1.33.39,1.99.59.66.21,1.32.42,1.97.64.65.22,1.3.45,1.95.69s1.29.48,1.93.73c.64.25,1.27.51,1.9.78s1.26.54,1.88.82c.62.28,1.24.57,1.86.87.61.3,1.23.6,1.83.91s1.21.63,1.81.95c.6.33,1.19.66,1.78,1,.59.34,1.17.69,1.75,1.04.58.35,1.16.71,1.73,1.08.57.37,1.14.74,1.7,1.12s1.12.77,1.67,1.16c.55.39,1.1.79,1.64,1.2.54.41,1.08.82,1.61,1.23.53.42,1.06.84,1.58,1.27.52.43,1.04.87,1.55,1.31.51.44,1.02.89,1.52,1.35.5.45.99.91,1.48,1.38.49.47.97.94,1.45,1.42s.95.96,1.42,1.45c.47.49.93.98,1.38,1.48.45.5.9,1.01,1.35,1.52.44.51.88,1.03,1.31,1.55s.85,1.05,1.27,1.58c.42.53.83,1.07,1.23,1.61.41.54.8,1.09,1.2,1.64.39.55.78,1.11,1.16,1.67.38.56.75,1.13,1.12,1.7.37.57.73,1.15,1.08,1.73.35.58.7,1.16,1.04,1.75s.67,1.18,1,1.78c.33.6.64,1.2.95,1.81s.61,1.22.91,1.83c.3.61.59,1.23.87,1.86.28.62.56,1.25.82,1.88.27.63.53,1.27.78,1.9.25.64.5,1.28.73,1.93.24.65.47,1.3.69,1.95.22.65.44,1.31.64,1.97s.4,1.32.59,1.99.37,1.34.55,2.01c.17.67.34,1.35.5,2.03.16.68.31,1.36.45,2.05.14.69.27,1.38.4,2.07.12.69.24,1.39.35,2.08.11.7.21,1.4.29,2.1.09.7.17,1.41.24,2.12.07.71.14,1.42.19,2.13.05.71.1,1.43.14,2.15.04.72.06,1.44.08,2.16.02.72.03,1.45.03,2.17s0,1.45-.03,2.17c-.02.72-.05,1.44-.08,2.16-.04.72-.08,1.43-.14,2.15-.05.71-.12,1.42-.19,2.13-.07.71-.15,1.41-.24,2.12-.09.7-.19,1.4-.29,2.1-.11.7-.22,1.39-.35,2.08-.12.69-.26,1.38-.4,2.07-.14.69-.29,1.37-.45,2.05-.16.68-.32,1.36-.5,2.03s-.36,1.34-.55,2.01-.39,1.33-.59,1.99-.42,1.32-.64,1.97-.45,1.3-.69,1.95c-.24.65-.48,1.29-.73,1.93-.25.64-.51,1.27-.78,1.9-.27.63-.54,1.26-.82,1.88-.28.62-.57,1.24-.87,1.86-.3.61-.6,1.23-.91,1.83-.31.61-.63,1.21-.95,1.81-.33.6-.66,1.19-1,1.78s-.69,1.17-1.04,1.75c-.35.58-.71,1.16-1.08,1.73-.37.57-.74,1.14-1.12,1.7-.38.56-.77,1.12-1.16,1.67-.39.55-.79,1.1-1.2,1.64-.41.54-.82,1.08-1.23,1.61-.42.53-.84,1.06-1.27,1.58s-.87,1.04-1.31,1.55c-.44.51-.89,1.02-1.35,1.52-.45.5-.91.99-1.38,1.48-.47.49-.94.97-1.42,1.45s-.96.95-1.45,1.42c-.49.47-.98.93-1.48,1.38-.5.45-1.01.9-1.52,1.35-.51.44-1.03.88-1.55,1.31-.52.43-1.05.85-1.58,1.27-.53.42-1.07.83-1.61,1.23-.54.41-1.09.8-1.64,1.2-.55.39-1.11.78-1.67,1.16s-1.13.75-1.7,1.12c-.57.37-1.15.73-1.73,1.08-.58.35-1.16.7-1.75,1.04-.59.34-1.18.67-1.78,1-.6.33-1.2.64-1.81.95s-1.22.61-1.83.91c-.61.3-1.23.59-1.86.87-.62.28-1.25.56-1.88.82-.63.27-1.27.53-1.9.78-.64.25-1.28.5-1.93.73-.65.24-1.3.47-1.95.69s-1.31.44-1.97.64c-.66.21-1.32.4-1.99.59-.67.19-1.34.37-2.01.55-.67.17-1.35.34-2.03.5-.68.16-1.36.31-2.05.45-.69.14-1.38.27-2.07.4-.69.12-1.39.24-2.08.35-.7.11-1.4.21-2.1.29-.7.09-1.41.17-2.12.24-.71.07-1.42.14-2.13.19-.71.05-1.43.1-2.15.14-.72.04-1.44.06-2.16.08-.72.02-1.45.03-2.17.03s-1.45,0-2.17-.03c-.72-.02-1.44-.05-2.16-.08-.72-.04-1.43-.08-2.15-.14-.71-.05-1.42-.12-2.13-.19-.71-.07-1.41-.15-2.12-.24-.7-.09-1.4-.19-2.1-.29-.7-.11-1.39-.22-2.08-.35-.69-.12-1.38-.26-2.07-.4-.69-.14-1.37-.29-2.05-.45-.68-.16-1.36-.32-2.03-.5-.67-.17-1.34-.36-2.01-.55-.67-.19-1.33-.39-1.99-.59s-1.32-.42-1.97-.64c-.65-.22-1.3-.45-1.95-.69-.65-.24-1.29-.48-1.93-.73-.64-.25-1.27-.51-1.9-.78-.63-.27-1.26-.54-1.88-.82-.62-.28-1.24-.57-1.86-.87-.61-.3-1.23-.6-1.83-.91s-1.21-.63-1.81-.95c-.6-.33-1.19-.66-1.78-1-.59-.34-1.17-.69-1.75-1.04-.58-.35-1.16-.71-1.73-1.08-.57-.37-1.14-.74-1.7-1.12-.56-.38-1.12-.77-1.67-1.16-.55-.39-1.1-.79-1.64-1.2-.54-.41-1.08-.82-1.61-1.23-.53-.42-1.06-.84-1.58-1.27-.52-.43-1.04-.87-1.55-1.31-.51-.44-1.02-.89-1.52-1.35-.5-.45-.99-.91-1.48-1.38-.49-.47-.97-.94-1.45-1.42-.48-.48-.95-.96-1.42-1.45-.47-.49-.93-.98-1.38-1.48-.45-.5-.9-1-1.35-1.52-.44-.51-.88-1.03-1.31-1.55s-.85-1.05-1.27-1.58c-.42-.53-.83-1.07-1.23-1.61-.41-.54-.8-1.09-1.2-1.64-.39-.55-.78-1.11-1.16-1.67-.38-.56-.75-1.13-1.12-1.7-.37-.57-.73-1.15-1.08-1.73-.35-.58-.7-1.16-1.04-1.75s-.67-1.18-1-1.78c-.33-.6-.64-1.2-.95-1.81-.31-.61-.61-1.22-.91-1.83-.3-.61-.59-1.23-.87-1.86-.28-.62-.56-1.25-.82-1.88-.27-.63-.53-1.27-.78-1.9-.25-.64-.5-1.28-.73-1.93-.24-.65-.47-1.3-.69-1.95s-.44-1.31-.64-1.97c-.21-.66-.4-1.32-.59-1.99-.19-.67-.37-1.34-.55-2.01-.17-.67-.34-1.35-.5-2.03-.16-.68-.31-1.36-.45-2.05-.14-.69-.27-1.38-.4-2.07-.12-.69-.24-1.39-.35-2.08-.11-.7-.21-1.4-.29-2.1-.09-.7-.17-1.41-.24-2.12-.07-.71-.14-1.42-.19-2.13-.05-.71-.1-1.43-.14-2.15-.04-.72-.06-1.44-.08-2.16-.02-.72-.03-1.45-.03-2.17s0-1.45.03-2.17c.02-.72.05-1.44.08-2.16.04-.72.08-1.43.14-2.15.05-.71.12-1.42.19-2.13.07-.71.15-1.41.24-2.12.09-.7.19-1.4.29-2.1.11-.7.22-1.39.35-2.08.12-.69.26-1.38.4-2.07.14-.69.29-1.37.45-2.05.16-.68.32-1.36.5-2.03.17-.67.36-1.34.55-2.01.19-.67.39-1.33.59-1.99.21-.66.42-1.32.64-1.97.22-.65.45-1.3.69-1.95.24-.65.48-1.29.73-1.93.25-.64.51-1.27.78-1.9.27-.63.54-1.26.82-1.88.28-.62.57-1.24.87-1.86.3-.61.6-1.23.91-1.83s.63-1.21.95-1.81c.33-.6.66-1.19,1-1.78s.69-1.17,1.04-1.75c.35-.58.71-1.16,1.08-1.73.37-.57.74-1.14,1.12-1.7.38-.56.77-1.12,1.16-1.67.39-.55.79-1.1,1.2-1.64.41-.54.82-1.08,1.23-1.61.42-.53.84-1.06,1.27-1.58s.87-1.04,1.31-1.55c.44-.51.89-1.02,1.35-1.52.45-.5.91-.99,1.38-1.48.47-.49.94-.97,1.42-1.45.48-.48.96-.95,1.45-1.42.49-.47.98-.93,1.48-1.38.5-.45,1.01-.9,1.52-1.35.51-.44,1.03-.88,1.55-1.31.52-.43,1.05-.85,1.58-1.27.53-.42,1.07-.83,1.61-1.23.54-.41,1.09-.8,1.64-1.2.55-.39,1.11-.78,1.67-1.16.56-.38,1.13-.75,1.7-1.12.57-.37,1.15-.73,1.73-1.08.58-.35,1.16-.7,1.75-1.04.59-.34,1.18-.67,1.78-1,.6-.33,1.2-.64,1.81-.95s1.22-.61,1.83-.91c.61-.3,1.23-.59,1.86-.87.62-.28,1.25-.56,1.88-.82s1.27-.53,1.9-.78c.64-.25,1.28-.5,1.93-.73.65-.24,1.3-.47,1.95-.69.65-.22,1.31-.44,1.97-.64s1.32-.4,1.99-.59c.67-.19,1.34-.37,2.01-.55.67-.17,1.35-.34,2.03-.5.68-.16,1.36-.31,2.05-.45.69-.14,1.38-.27,2.07-.4.69-.12,1.39-.24,2.08-.35.7-.11,1.4-.21,2.1-.29.7-.09,1.41-.17,2.12-.24.71-.07,1.42-.14,2.13-.19.71-.05,1.43-.1,2.15-.14.72-.04,1.44-.06,2.16-.08.72-.02,1.45-.03,2.17-.03M96.42,0c-.83,0-1.66.01-2.49.03-.83.02-1.65.05-2.47.09-.82.04-1.64.09-2.46.16s-1.63.13-2.44.22c-.81.08-1.62.17-2.42.28-.8.1-1.61.21-2.4.34-.8.12-1.59.25-2.38.39-.79.14-1.58.29-2.36.45-.78.16-1.57.33-2.34.51-.78.18-1.55.37-2.32.57-.77.2-1.54.41-2.3.62-.76.22-1.52.44-2.28.68-.75.23-1.51.48-2.25.73-.75.25-1.49.51-2.23.78-.74.27-1.47.55-2.2.84-.73.29-1.46.58-2.18.89-.72.31-1.44.62-2.15.94-.71.32-1.42.65-2.12.99-.7.34-1.4.69-2.09,1.04-.69.35-1.38.72-2.06,1.09-.68.37-1.36.75-2.03,1.14-.67.39-1.34.78-2,1.18-.66.4-1.32.81-1.97,1.23-.65.42-1.3.84-1.94,1.28-.64.43-1.28.87-1.91,1.32s-1.25.9-1.87,1.37c-.62.46-1.23.93-1.84,1.41s-1.21.96-1.8,1.45c-.6.49-1.18.99-1.77,1.49s-1.16,1.02-1.73,1.54c-.57.52-1.14,1.04-1.69,1.58-.56.53-1.11,1.07-1.66,1.62-.55.55-1.08,1.1-1.62,1.66-.53.56-1.06,1.12-1.58,1.69-.52.57-1.03,1.15-1.54,1.73-.51.58-1,1.17-1.49,1.77-.49.6-.98,1.2-1.45,1.8s-.95,1.22-1.41,1.84c-.46.62-.92,1.24-1.37,1.87-.45.63-.89,1.27-1.32,1.91-.43.64-.86,1.29-1.28,1.94-.42.65-.83,1.31-1.23,1.97-.4.66-.8,1.33-1.18,2s-.77,1.35-1.14,2.03c-.37.68-.73,1.37-1.09,2.06-.35.69-.7,1.39-1.04,2.09-.34.7-.67,1.41-.99,2.12-.32.71-.64,1.43-.94,2.15-.3.72-.6,1.45-.89,2.18-.29.73-.57,1.46-.84,2.2-.27.74-.53,1.48-.78,2.23-.25.75-.5,1.5-.73,2.25-.23.75-.46,1.51-.68,2.28-.22.76-.42,1.53-.62,2.3-.2.77-.39,1.54-.57,2.32-.18.78-.35,1.56-.51,2.34-.16.78-.31,1.57-.45,2.36-.14.79-.27,1.59-.39,2.38-.12.8-.23,1.6-.34,2.4-.1.8-.19,1.61-.28,2.42s-.15,1.62-.22,2.44c-.06.82-.11,1.64-.16,2.46-.04.82-.07,1.65-.09,2.47-.02.83-.03,1.66-.03,2.49s.01,1.66.03,2.49c.02.83.05,1.65.09,2.47.04.82.09,1.64.16,2.46s.13,1.63.22,2.44.17,1.62.28,2.42c.1.8.21,1.61.34,2.4.12.8.25,1.59.39,2.38.14.79.29,1.58.45,2.36.16.78.33,1.57.51,2.34.18.78.37,1.55.57,2.32.2.77.41,1.54.62,2.3.22.76.44,1.52.68,2.28.23.75.48,1.51.73,2.25.25.75.51,1.49.78,2.23.27.74.55,1.47.84,2.2.29.73.58,1.46.89,2.18.3.72.62,1.44.94,2.15.32.71.65,1.42.99,2.12.34.7.69,1.4,1.04,2.09s.72,1.38,1.09,2.06c.37.68.75,1.36,1.14,2.03s.78,1.34,1.18,2c.4.66.81,1.32,1.23,1.97s.84,1.3,1.28,1.94c.43.64.87,1.28,1.32,1.91.45.63.9,1.25,1.37,1.87.46.62.93,1.23,1.41,1.84s.96,1.21,1.45,1.8c.49.6.99,1.18,1.49,1.77.51.58,1.02,1.16,1.54,1.73.52.57,1.04,1.14,1.58,1.69.53.56,1.07,1.11,1.62,1.66.55.55,1.1,1.08,1.66,1.62.56.53,1.12,1.06,1.69,1.58.57.52,1.15,1.03,1.73,1.54.58.51,1.17,1,1.77,1.49.6.49,1.2.98,1.8,1.45s1.22.95,1.84,1.41,1.24.92,1.87,1.37c.63.45,1.27.89,1.91,1.32.64.43,1.29.86,1.94,1.28.65.42,1.31.83,1.97,1.23.66.4,1.33.8,2,1.18.67.39,1.35.77,2.03,1.14.68.37,1.37.73,2.06,1.09.69.35,1.39.7,2.09,1.04.7.34,1.41.67,2.12.99.71.32,1.43.64,2.15.94.72.3,1.45.6,2.18.89.73.29,1.46.57,2.2.84.74.27,1.48.53,2.23.78.75.25,1.5.5,2.25.73.75.23,1.51.46,2.28.68s1.53.42,2.3.62c.77.2,1.54.39,2.32.57s1.56.35,2.34.51c.78.16,1.57.31,2.36.45s1.59.27,2.38.39,1.6.23,2.4.34c.8.1,1.61.19,2.42.28.81.08,1.62.15,2.44.22s1.63.11,2.46.16c.82.04,1.65.07,2.47.09.83.02,1.66.03,2.49.03s1.66-.01,2.49-.03c.83-.02,1.65-.05,2.47-.09.82-.04,1.64-.09,2.46-.16.82-.06,1.63-.13,2.44-.22.81-.08,1.62-.17,2.42-.28.8-.1,1.61-.21,2.4-.34.8-.12,1.59-.25,2.38-.39.79-.14,1.58-.29,2.36-.45.78-.16,1.57-.33,2.34-.51s1.55-.37,2.32-.57c.77-.2,1.54-.41,2.3-.62s1.52-.44,2.28-.68c.75-.23,1.51-.48,2.25-.73.75-.25,1.49-.51,2.23-.78.74-.27,1.47-.55,2.2-.84.73-.29,1.46-.58,2.18-.89.72-.3,1.44-.62,2.15-.94.71-.32,1.42-.65,2.12-.99.7-.34,1.4-.69,2.09-1.04s1.38-.72,2.06-1.09c.68-.37,1.36-.75,2.03-1.14.67-.39,1.34-.78,2-1.18.66-.4,1.32-.81,1.97-1.23.65-.42,1.3-.84,1.94-1.28.64-.43,1.28-.87,1.91-1.32.63-.45,1.25-.9,1.87-1.37s1.23-.93,1.84-1.41,1.21-.96,1.8-1.45,1.18-.99,1.77-1.49c.58-.51,1.16-1.02,1.73-1.54.57-.52,1.14-1.04,1.69-1.58.56-.53,1.11-1.07,1.66-1.62s1.08-1.1,1.62-1.66c.53-.56,1.06-1.12,1.58-1.69.52-.57,1.03-1.15,1.54-1.73.51-.58,1-1.17,1.49-1.77.49-.6.98-1.2,1.45-1.8.48-.61.95-1.22,1.41-1.84s.92-1.24,1.37-1.87c.45-.63.89-1.27,1.32-1.91.43-.64.86-1.29,1.28-1.94s.83-1.31,1.23-1.97c.4-.66.8-1.33,1.18-2s.77-1.35,1.14-2.03c.37-.68.73-1.37,1.09-2.06s.7-1.39,1.04-2.09c.34-.7.67-1.41.99-2.12.32-.71.64-1.43.94-2.15.3-.72.6-1.45.89-2.18.29-.73.57-1.46.84-2.2.27-.74.53-1.48.78-2.23s.5-1.5.73-2.25c.23-.75.46-1.51.68-2.28.22-.76.42-1.53.62-2.3.2-.77.39-1.54.57-2.32.18-.78.35-1.56.51-2.34.16-.78.31-1.57.45-2.36.14-.79.27-1.59.39-2.38.12-.8.23-1.6.34-2.4.1-.8.19-1.61.28-2.42s.15-1.62.22-2.44.11-1.63.16-2.46c.04-.82.07-1.65.09-2.47.02-.83.03-1.66.03-2.49s-.01-1.66-.03-2.49c-.02-.83-.05-1.65-.09-2.47-.04-.82-.09-1.64-.16-2.46-.06-.82-.13-1.63-.22-2.44s-.17-1.62-.28-2.42c-.1-.8-.21-1.61-.34-2.4-.12-.8-.25-1.59-.39-2.38-.14-.79-.29-1.58-.45-2.36-.16-.78-.33-1.57-.51-2.34-.18-.78-.37-1.55-.57-2.32-.2-.77-.41-1.54-.62-2.3s-.44-1.52-.68-2.28c-.23-.75-.48-1.51-.73-2.25-.25-.75-.51-1.49-.78-2.23-.27-.74-.55-1.47-.84-2.2s-.58-1.46-.89-2.18c-.3-.72-.62-1.44-.94-2.15-.32-.71-.65-1.42-.99-2.12-.34-.7-.69-1.4-1.04-2.09-.35-.69-.72-1.38-1.09-2.06-.37-.68-.75-1.36-1.14-2.03s-.78-1.34-1.18-2-.81-1.32-1.23-1.97c-.42-.65-.84-1.3-1.28-1.94-.43-.64-.87-1.28-1.32-1.91-.45-.63-.9-1.25-1.37-1.87s-.93-1.23-1.41-1.84c-.48-.61-.96-1.21-1.45-1.8-.49-.6-.99-1.18-1.49-1.77s-1.02-1.16-1.54-1.73c-.52-.57-1.04-1.14-1.58-1.69-.53-.56-1.07-1.11-1.62-1.66s-1.1-1.08-1.66-1.62-1.12-1.06-1.69-1.58c-.57-.52-1.15-1.03-1.73-1.54s-1.17-1-1.77-1.49c-.6-.49-1.2-.98-1.8-1.45s-1.22-.95-1.84-1.41c-.62-.46-1.24-.92-1.87-1.37-.63-.45-1.27-.89-1.91-1.32s-1.29-.86-1.94-1.28c-.65-.42-1.31-.83-1.97-1.23-.66-.4-1.33-.8-2-1.18-.67-.39-1.35-.77-2.03-1.14-.68-.37-1.37-.73-2.06-1.09-.69-.35-1.39-.7-2.09-1.04-.7-.34-1.41-.67-2.12-.99-.71-.32-1.43-.64-2.15-.94-.72-.3-1.45-.6-2.18-.89-.73-.29-1.46-.57-2.2-.84-.74-.27-1.48-.53-2.23-.78-.75-.25-1.5-.5-2.25-.73-.75-.23-1.51-.46-2.28-.68-.76-.22-1.53-.42-2.3-.62-.77-.2-1.54-.39-2.32-.57-.78-.18-1.56-.35-2.34-.51-.78-.16-1.57-.31-2.36-.45-.79-.14-1.59-.27-2.38-.39-.8-.12-1.6-.23-2.4-.34-.8-.1-1.61-.19-2.42-.28-.81-.08-1.62-.15-2.44-.22-.82-.06-1.64-.11-2.46-.16-.82-.04-1.65-.07-2.47-.09-.83-.02-1.66-.03-2.49-.03h0Z"/>
  <g>
    <g>
      <polygon class="cls-1" points="47.71 96.42 48.53 97.02 49.34 97.63 50.15 98.23 50.97 98.84 51.78 99.45 52.59 100.05 53.41 100.66 54.22 101.26 55.03 101.87 55.85 102.48 56.66 103.08 57.47 103.69 58.29 104.29 59.1 104.9 59.91 105.5 60.73 106.11 61.54 106.72 62.35 107.32 63.17 107.93 63.98 108.53 64.79 109.14 65.6 109.75 66.42 110.35 67.23 110.96 68.04 111.56 68.86 112.17 69.67 112.78 70.48 113.38 71.3 113.99 72.11 114.59 72.92 115.2 73.74 115.81 74.55 116.41 75.36 117.02 76.18 117.62 76.99 118.23 77.8 118.83 78.62 119.44 79.43 120.05 80.24 120.65 81.06 121.26 81.87 121.86 82.68 122.47 83.5 123.08 84.31 123.68 85.12 124.29 85.94 124.89 86.75 125.5 87.56 126.11 88.38 126.71 89.19 127.32 90 127.92 90.82 128.53 91.63 129.14 92.44 129.74 93.26 130.35 94.07 130.95 94.88 131.56 95.7 132.16 96.51 132.77 97.32 133.38 98.14 133.98 98.95 134.59 99.76 135.19 99.76 133.98 99.76 132.77 99.76 131.56 99.76 130.35 99.76 129.14 99.76 127.92 99.76 126.71 99.76 125.5 99.76 124.29 99.76 123.08 99.76 121.86 99.76 120.65 99.76 119.44 99.76 118.23 99.76 117.02 99.76 115.81 99.76 114.59 99.76 113.38 99.76 112.17 99.76 110.96 99.76 109.75 99.76 108.53 99.76 107.32 99.76 106.11 99.76 104.9 99.76 103.69 99.76 102.48 99.76 101.26 99.76 100.05 99.76 98.84 99.76 97.63 99.76 96.42 99.76 95.2 99.76 93.99 99.76 92.78 99.76 91.57 99.76 90.36 99.76 89.15 99.76 87.93 99.76 86.72 99.76 85.51 99.76 84.3 99.76 83.09 99.76 81.87 99.76 80.66 99.76 79.45 99.76 78.24 99.76 77.03 99.76 75.82 99.76 74.6 99.76 73.39 99.76 72.18 99.76 70.97 99.76 69.76 99.76 68.54 99.76 67.33 99.76 66.12 99.76 64.91 99.76 63.7 99.76 62.49 99.76 61.27 99.76 60.06 99.76 58.85 99.76 57.64 98.95 58.24 98.14 58.85 97.32 59.46 96.51 60.06 95.7 60.67 94.88 61.27 94.07 61.88 93.26 62.49 92.44 63.09 91.63 63.7 90.82 64.3 90 64.91 89.19 65.51 88.38 66.12 87.56 66.73 86.75 67.33 85.94 67.94 85.12 68.54 84.31 69.15 83.5 69.76 82.68 70.36 81.87 70.97 81.06 71.57 80.24 72.18 79.43 72.79 78.62 73.39 77.8 74 76.99 74.6 76.18 75.21 75.36 75.82 74.55 76.42 73.74 77.03 72.92 77.63 72.11 78.24 71.3 78.84 70.48 79.45 69.67 80.06 68.86 80.66 68.04 81.27 67.23 81.87 66.42 82.48 65.6 83.09 64.79 83.69 63.98 84.3 63.17 84.9 62.35 85.51 61.54 86.12 60.73 86.72 59.91 87.33 59.1 87.93 58.29 88.54 57.47 89.15 56.66 89.75 55.85 90.36 55.03 90.96 54.22 91.57 53.41 92.17 52.59 92.78 51.78 93.39 50.97 93.99 50.15 94.6 49.34 95.2 48.53 95.81 47.71 96.42"/>
      <polygon class="cls-1" points="70.51 113.21 70.16 113.21 69.8 113.21 69.44 113.21 69.09 113.21 68.73 113.21 68.38 113.21 68.02 113.21 67.66 113.21 67.31 113.21 66.95 113.21 66.59 113.21 66.24 113.21 65.88 113.21 65.53 113.21 65.17 113.21 64.81 113.21 64.46 113.21 64.1 113.21 63.74 113.21 63.39 113.21 63.03 113.21 62.68 113.21 62.32 113.21 61.96 113.21 61.61 113.21 61.25 113.21 60.89 113.21 60.54 113.21 60.18 113.21 59.83 113.21 59.47 113.21 59.11 113.21 58.76 113.21 58.4 113.21 58.04 113.21 57.69 113.21 57.33 113.21 56.98 113.21 56.62 113.21 56.26 113.21 55.91 113.21 55.55 113.21 55.19 113.21 54.84 113.21 54.48 113.21 54.13 113.21 53.77 113.21 53.41 113.21 53.06 113.21 52.7 113.21 52.34 113.21 51.99 113.21 51.63 113.21 51.28 113.21 50.92 113.21 50.56 113.21 50.21 113.21 49.85 113.21 49.49 113.21 49.14 113.21 48.78 113.21 48.43 113.21 48.07 113.21 47.71 113.21 47.71 112.68 47.71 112.16 47.71 111.64 47.71 111.11 47.71 110.59 47.71 110.06 47.71 109.54 47.71 109.01 47.71 108.49 47.71 107.96 47.71 107.44 47.71 106.91 47.71 106.39 47.71 105.86 47.71 105.34 47.71 104.81 47.71 104.29 47.71 103.76 47.71 103.24 47.71 102.71 47.71 102.19 47.71 101.66 47.71 101.14 47.71 100.61 47.71 100.09 47.71 99.56 47.71 99.04 47.71 98.52 47.71 97.99 47.71 97.47 47.71 96.94 47.71 96.42 47.71 95.89 47.71 95.37 47.71 94.84 47.71 94.32 47.71 93.79 47.71 93.27 47.71 92.74 47.71 92.22 47.71 91.69 47.71 91.17 47.71 90.64 47.71 90.12 47.71 89.59 47.71 89.07 47.71 88.54 47.71 88.02 47.71 87.49 47.71 86.97 47.71 86.45 47.71 85.92 47.71 85.4 47.71 84.87 47.71 84.35 47.71 83.82 47.71 83.3 47.71 82.77 47.71 82.25 47.71 81.72 47.71 81.2 47.71 80.67 47.71 80.15 47.71 79.62 48.07 79.62 48.43 79.62 48.78 79.62 49.14 79.62 49.49 79.62 49.85 79.62 50.21 79.62 50.56 79.62 50.92 79.62 51.28 79.62 51.63 79.62 51.99 79.62 52.34 79.62 52.7 79.62 53.06 79.62 53.41 79.62 53.77 79.62 54.13 79.62 54.48 79.62 54.84 79.62 55.19 79.62 55.55 79.62 55.91 79.62 56.26 79.62 56.62 79.62 56.98 79.62 57.33 79.62 57.69 79.62 58.04 79.62 58.4 79.62 58.76 79.62 59.11 79.62 59.47 79.62 59.83 79.62 60.18 79.62 60.54 79.62 60.89 79.62 61.25 79.62 61.61 79.62 61.96 79.62 62.32 79.62 62.68 79.62 63.03 79.62 63.39 79.62 63.74 79.62 64.1 79.62 64.46 79.62 64.81 79.62 65.17 79.62 65.53 79.62 65.88 79.62 66.24 79.62 66.59 79.62 66.95 79.62 67.31 79.62 67.66 79.62 68.02 79.62 68.38 79.62 68.73 79.62 69.09 79.62 69.44 79.62 69.8 79.62 70.16 79.62 70.51 79.62 70.51 80.15 70.51 80.67 70.51 81.2 70.51 81.72 70.51 82.25 70.51 82.77 70.51 83.3 70.51 83.82 70.51 84.35 70.51 84.87 70.51 85.4 70.51 85.92 70.51 86.45 70.51 86.97 70.51 87.49 70.51 88.02 70.51 88.54 70.51 89.07 70.51 89.59 70.51 90.12 70.51 90.64 70.51 91.17 70.51 91.69 70.51 92.22 70.51 92.74 70.51 93.27 70.51 93.79 70.51 94.32 70.51 94.84 70.51 95.37 70.51 95.89 70.51 96.42 70.51 96.94 70.51 97.47 70.51 97.99 70.51 98.52 70.51 99.04 70.51 99.56 70.51 100.09 70.51 100.61 70.51 101.14 70.51 101.66 70.51 102.19 70.51 102.71 70.51 103.24 70.51 103.76 70.51 104.29 70.51 104.81 70.51 105.34 70.51 105.86 70.51 106.39 70.51 106.91 70.51 107.44 70.51 107.96 70.51 108.49 70.51 109.01 70.51 109.54 70.51 110.06 70.51 110.59 70.51 111.11 70.51 111.64 70.51 112.16 70.51 112.68 70.51 113.21"/>
    </g>
    <path class="cls-1" d="M119.97,132.89s-.04,0-.05,0c-.02,0-.04,0-.05,0-.02,0-.04,0-.05,0-.02,0-.04,0-.05,0s-.04,0-.05,0c-.02,0-.04,0-.05,0-.02,0-.04,0-.05,0-.02,0-.03,0-.05,0-.02,0-.03,0-.05,0-.02,0-.03,0-.05,0s-.03,0-.05,0c-.02,0-.03,0-.05-.01-.02,0-.03,0-.05-.01-.02,0-.03,0-.05-.01-.02,0-.03,0-.05-.01-.02,0-.03,0-.05-.01-.02,0-.03-.01-.05-.02-.02,0-.03-.01-.05-.02s-.03-.01-.05-.02-.03-.01-.05-.02-.03-.01-.05-.02c-.02,0-.03-.01-.05-.02-.02,0-.03-.01-.05-.02-.02,0-.03-.01-.05-.02-.02,0-.03-.01-.05-.02-.02,0-.03-.02-.05-.02-.02,0-.03-.02-.05-.02-.02,0-.03-.02-.05-.03-.02,0-.03-.02-.05-.03-.02,0-.03-.02-.05-.03-.01,0-.03-.02-.04-.03-.01,0-.03-.02-.04-.03-.01,0-.03-.02-.04-.03-.01,0-.03-.02-.04-.03s-.03-.02-.04-.03c-.01-.01-.03-.02-.04-.03-.01-.01-.03-.02-.04-.03-.01-.01-.03-.02-.04-.03-.01-.01-.03-.02-.04-.03-.01-.01-.03-.02-.04-.03-.01-.01-.03-.02-.04-.04-.01-.01-.03-.02-.04-.04-.01-.01-.03-.02-.04-.04s-.03-.03-.04-.04c-.01-.01-.02-.03-.04-.04-.01-.01-.02-.03-.04-.04-.01-.01-.02-.03-.04-.04s-.02-.03-.04-.04c-.01-.01-.02-.03-.03-.04-.01-.01-.02-.03-.03-.04s-.02-.03-.03-.04c-.01-.01-.02-.03-.03-.04-.01-.01-.02-.03-.03-.04-.01-.01-.02-.03-.03-.05-.01-.02-.02-.03-.03-.05s-.02-.03-.03-.05c0-.02-.02-.03-.03-.05,0-.02-.02-.03-.03-.05,0-.02-.02-.03-.03-.05s-.02-.03-.03-.05-.02-.03-.03-.05c0-.02-.02-.03-.02-.05,0-.02-.02-.03-.02-.05,0-.02-.02-.03-.02-.05,0-.02-.02-.05-.03-.07,0-.02-.02-.05-.03-.07,0-.02-.02-.05-.02-.07,0-.02-.02-.05-.02-.07,0-.02-.01-.05-.02-.07,0-.02-.01-.05-.02-.07,0-.02-.01-.05-.02-.07,0-.02-.01-.05-.02-.07s0-.05-.01-.07c0-.02,0-.05-.01-.07,0-.02,0-.05,0-.07,0-.02,0-.05,0-.07,0-.02,0-.05,0-.07,0-.02,0-.05,0-.07,0-.02,0-.05,0-.07s0-.05,0-.07,0-.05,0-.07c0-.02,0-.05,0-.07,0-.02,0-.05,0-.07,0-.02,0-.05,0-.07,0-.02,0-.05,0-.07,0-.02,0-.05,0-.07,0-.02,0-.05.01-.07,0-.02,0-.05.01-.07,0-.02,0-.05.01-.07,0-.02.01-.05.02-.07,0-.02.01-.05.02-.07,0-.02.01-.05.02-.07,0-.02.01-.04.02-.07,0-.02.01-.04.02-.07,0-.02.02-.04.02-.07,0-.02.02-.04.03-.07,0-.02.02-.04.03-.06,0-.02.02-.04.03-.06,0-.02.02-.04.03-.06s.02-.04.03-.06c.01-.02.02-.04.03-.06.01-.02.02-.04.03-.06.01-.02.02-.04.04-.06.01-.02.02-.04.04-.06.01-.02.03-.04.04-.06.01-.02.03-.04.04-.06.01-.02.03-.04.04-.06.01-.02.03-.04.04-.06.01-.02.03-.04.04-.05.02-.02.03-.04.05-.05.02-.02.03-.04.05-.05.02-.02.03-.03.05-.05.02-.02.03-.03.05-.05.02-.02.03-.03.05-.05.02-.02.03-.03.05-.05.02-.02.04-.03.05-.05.02-.02.04-.03.06-.05.02-.02.04-.03.06-.04.02-.01.04-.03.06-.04s.04-.03.06-.04c.02-.01.04-.03.06-.04.02-.01.04-.03.06-.04.02-.01.04-.03.06-.04.02-.01.04-.02.06-.04.02-.01.04-.02.07-.03.02-.01.04-.02.07-.03.02-.01.05-.02.07-.03.02-.01.05-.02.07-.03.19-.08.39-.17.58-.25.19-.09.38-.17.57-.26.19-.09.38-.18.57-.27.19-.09.37-.19.56-.28.19-.1.37-.19.55-.29.18-.1.36-.2.55-.3.18-.1.36-.2.54-.31.18-.1.36-.21.53-.32.18-.11.35-.22.52-.33.17-.11.35-.22.52-.34.17-.11.34-.23.51-.34.17-.12.34-.23.5-.35.17-.12.33-.24.5-.36.16-.12.33-.25.49-.37s.32-.25.48-.38c.16-.13.32-.26.47-.39.16-.13.31-.26.46-.39.15-.13.31-.27.46-.4.15-.14.3-.27.45-.41s.3-.28.44-.42c.15-.14.29-.28.43-.43.14-.14.28-.29.42-.43.14-.15.28-.29.42-.44.14-.15.27-.3.41-.45.13-.15.27-.3.4-.45.13-.15.26-.31.39-.46.13-.15.26-.31.38-.47.13-.16.25-.32.37-.47.12-.16.24-.32.36-.48.12-.16.24-.32.36-.49.12-.16.23-.33.35-.49s.23-.33.34-.5c.11-.17.22-.34.33-.51.11-.17.21-.34.32-.51.11-.17.21-.34.31-.52.1-.17.2-.35.3-.52.1-.18.2-.35.29-.53.1-.18.19-.36.28-.53.09-.18.18-.36.27-.54.09-.18.18-.36.26-.55.09-.18.17-.37.25-.55.08-.18.16-.37.24-.56s.16-.37.23-.56c.08-.19.15-.38.22-.56.07-.19.14-.38.21-.57.07-.19.14-.38.2-.57.07-.19.13-.38.19-.58.06-.19.12-.39.18-.58.06-.19.12-.39.17-.59.06-.2.11-.39.16-.59.05-.2.1-.4.15-.59.05-.2.1-.4.14-.6.04-.2.09-.4.13-.6s.08-.4.12-.6.07-.4.11-.61.07-.41.1-.61c.03-.2.06-.41.09-.61.03-.21.05-.41.07-.62.02-.21.04-.41.06-.62.02-.21.04-.41.05-.62.02-.21.03-.42.04-.62.01-.21.02-.42.03-.63,0-.21.01-.42.02-.63,0-.21,0-.42,0-.63s0-.42,0-.63c0-.21,0-.42-.02-.63s-.02-.42-.03-.63c-.01-.21-.03-.42-.04-.62-.02-.21-.03-.42-.05-.62s-.04-.41-.06-.62c-.02-.21-.05-.41-.07-.62-.03-.21-.06-.41-.09-.61-.03-.2-.06-.41-.1-.61s-.07-.41-.11-.61-.08-.4-.12-.6-.08-.4-.13-.6c-.04-.2-.09-.4-.14-.6-.05-.2-.1-.4-.15-.59-.05-.2-.11-.39-.16-.59-.06-.2-.11-.39-.17-.59-.06-.19-.12-.39-.18-.58s-.13-.39-.19-.58c-.07-.19-.13-.38-.2-.57-.07-.19-.14-.38-.21-.57-.07-.19-.15-.38-.22-.56-.08-.19-.15-.37-.23-.56-.08-.19-.16-.37-.24-.56-.08-.18-.17-.37-.25-.55-.09-.18-.17-.36-.26-.55-.09-.18-.18-.36-.27-.54-.09-.18-.19-.36-.28-.53-.1-.18-.19-.35-.29-.53-.1-.18-.2-.35-.3-.52-.1-.17-.21-.35-.31-.52-.11-.17-.21-.34-.32-.51-.11-.17-.22-.34-.33-.51-.11-.17-.22-.33-.34-.5s-.23-.33-.35-.49c-.12-.16-.24-.33-.36-.49-.12-.16-.24-.32-.36-.48-.12-.16-.25-.32-.37-.47-.13-.16-.25-.31-.38-.47-.13-.15-.26-.31-.39-.46-.13-.15-.26-.3-.4-.45-.13-.15-.27-.3-.41-.45-.14-.15-.28-.29-.42-.44s-.28-.29-.42-.43c-.14-.14-.29-.29-.43-.43-.15-.14-.29-.28-.44-.42-.15-.14-.3-.27-.45-.41-.15-.14-.3-.27-.46-.4-.15-.13-.31-.26-.46-.39-.16-.13-.31-.26-.47-.39-.16-.13-.32-.25-.48-.38-.16-.12-.32-.25-.49-.37-.16-.12-.33-.24-.5-.36-.17-.12-.33-.24-.5-.35-.17-.12-.34-.23-.51-.34-.17-.11-.34-.23-.52-.34-.17-.11-.35-.22-.52-.33-.18-.11-.35-.21-.53-.32-.18-.1-.36-.21-.54-.31-.18-.1-.36-.2-.55-.3-.18-.1-.37-.19-.55-.29-.19-.1-.37-.19-.56-.28-.19-.09-.38-.18-.57-.27-.19-.09-.38-.18-.57-.26-.19-.09-.38-.17-.58-.25-.02,0-.05-.02-.07-.03-.02-.01-.05-.02-.07-.03-.02-.01-.04-.02-.07-.03-.02-.01-.04-.02-.07-.03-.02-.01-.04-.02-.06-.04-.02-.01-.04-.02-.06-.04-.02-.01-.04-.03-.06-.04-.02-.01-.04-.03-.06-.04-.02-.01-.04-.03-.06-.04-.02-.01-.04-.03-.06-.04s-.04-.03-.06-.04c-.02-.01-.04-.03-.06-.05-.02-.02-.04-.03-.05-.05-.02-.02-.04-.03-.05-.05-.02-.02-.03-.03-.05-.05-.02-.02-.03-.03-.05-.05-.02-.02-.03-.03-.05-.05-.02-.02-.03-.03-.05-.05-.02-.02-.03-.04-.05-.05-.02-.02-.03-.04-.04-.05-.01-.02-.03-.04-.04-.06-.01-.02-.03-.04-.04-.06-.01-.02-.03-.04-.04-.06-.01-.02-.03-.04-.04-.06-.01-.02-.03-.04-.04-.06-.01-.02-.02-.04-.04-.06-.01-.02-.02-.04-.03-.06-.01-.02-.02-.04-.03-.06-.01-.02-.02-.04-.03-.06s-.02-.04-.03-.06c0-.02-.02-.04-.03-.06,0-.02-.02-.04-.03-.06,0-.02-.02-.04-.03-.07,0-.02-.02-.04-.02-.07,0-.02-.02-.04-.02-.07,0-.02-.01-.04-.02-.07,0-.02-.01-.04-.02-.07,0-.02-.01-.05-.02-.07,0-.02-.01-.05-.02-.07,0-.02,0-.05-.01-.07,0-.02,0-.05-.01-.07,0-.02,0-.05-.01-.07,0-.02,0-.05,0-.07,0-.02,0-.05,0-.07,0-.02,0-.05,0-.07,0-.02,0-.05,0-.07,0-.02,0-.05,0-.07,0-.02,0-.05,0-.07s0-.05,0-.07,0-.05,0-.07,0-.05,0-.07c0-.02,0-.05,0-.07,0-.02,0-.05,0-.07,0-.02,0-.05,0-.07,0-.02,0-.05.01-.07,0-.02,0-.05.01-.07s0-.05.02-.07c0-.02.01-.05.02-.07,0-.02.01-.05.02-.07,0-.02.01-.05.02-.07,0-.02.01-.05.02-.07,0-.02.02-.05.02-.07,0-.02.02-.05.03-.07,0-.02.02-.05.03-.07,0-.02.02-.05.03-.07s.02-.05.03-.07c.01-.02.02-.04.03-.07.01-.02.02-.04.03-.07.01-.02.02-.04.04-.06.01-.02.02-.04.04-.06.01-.02.03-.04.04-.06.01-.02.03-.04.04-.06.01-.02.03-.04.04-.06.01-.02.03-.04.04-.06.01-.02.03-.04.04-.06.01-.02.03-.04.05-.06s.03-.04.05-.05c.02-.02.03-.04.05-.05.02-.02.03-.03.05-.05.02-.02.03-.03.05-.05.02-.02.03-.03.05-.05.02-.02.03-.03.05-.05.02-.02.04-.03.05-.05.02-.02.04-.03.05-.04.02-.01.04-.03.06-.04.02-.01.04-.03.06-.04.02-.01.04-.03.06-.04.02-.01.04-.03.06-.04.02-.01.04-.03.06-.04.02-.01.04-.02.06-.04.02-.01.04-.02.06-.03.02-.01.04-.02.06-.03.02-.01.04-.02.06-.03.02-.01.04-.02.06-.03s.04-.02.06-.03c.02,0,.04-.02.06-.03.02,0,.04-.02.07-.03.02,0,.04-.02.07-.02.02,0,.04-.02.07-.02.02,0,.04-.01.07-.02.02,0,.04-.01.07-.02.02,0,.05-.01.07-.02.02,0,.05-.01.07-.02.02,0,.05,0,.07-.01.02,0,.05,0,.07-.01.02,0,.05,0,.07-.01.02,0,.05,0,.07,0,.02,0,.05,0,.07,0s.05,0,.07,0c.02,0,.05,0,.07,0,.02,0,.05,0,.07,0,.02,0,.05,0,.07,0s.05,0,.07,0c.02,0,.05,0,.07,0,.02,0,.05,0,.07,0,.02,0,.05,0,.07,0,.02,0,.05,0,.07,0,.02,0,.05,0,.07,0,.02,0,.05,0,.07.01.02,0,.05,0,.07.01.02,0,.05,0,.07.02.02,0,.05.01.07.02s.05.01.07.02c.02,0,.05.01.07.02.02,0,.05.01.07.02.02,0,.05.02.07.02.02,0,.05.02.07.03.02,0,.05.02.07.03.23.1.45.19.68.29s.45.2.67.31c.22.1.44.21.66.32s.44.22.66.33c.22.11.43.23.65.34s.43.23.64.35c.21.12.42.24.63.36s.42.25.62.37c.21.13.41.25.62.38s.41.26.61.39c.2.13.4.27.6.4.2.14.39.27.59.41.2.14.39.28.58.42.19.14.38.29.57.43.19.15.38.29.56.44.19.15.37.3.55.45.18.15.37.31.55.46.18.16.36.31.54.47.18.16.35.32.53.48.17.16.35.33.52.49s.34.33.51.5c.17.17.33.34.5.51.16.17.33.34.49.52.16.17.32.35.48.53.16.18.31.35.47.53.15.18.31.36.46.54s.3.37.45.55c.15.18.29.37.44.56.14.19.29.38.43.57.14.19.28.38.42.57.14.19.27.39.41.58.13.19.27.39.4.59.13.2.26.4.39.6.13.2.25.4.38.6.12.2.25.4.36.61.12.2.24.41.35.62s.23.41.34.62c.11.21.22.42.33.63.11.21.22.42.32.63.1.21.21.43.31.64.1.21.2.43.3.65.1.22.19.43.29.65.09.22.18.44.27.66.09.22.18.44.26.66.09.22.17.44.25.67.08.22.16.45.24.67.08.23.15.45.23.68.07.23.15.45.21.68.07.23.14.46.2.69.07.23.13.46.19.69.06.23.12.46.18.7.06.23.11.47.16.7.05.23.1.47.15.71.05.24.1.47.14.71.04.24.09.48.13.71.04.24.08.48.11.72.04.24.07.48.1.72.03.24.06.48.09.72s.05.48.07.73c.02.24.04.49.06.73.02.24.03.49.05.73s.03.49.03.74c0,.25.02.49.02.74s0,.49,0,.74,0,.49,0,.74c0,.25-.01.49-.02.74,0,.25-.02.49-.03.74-.01.25-.03.49-.05.73-.02.24-.04.49-.06.73-.02.24-.05.49-.07.73s-.06.48-.09.72-.06.48-.1.72c-.04.24-.07.48-.11.72-.04.24-.08.48-.13.71-.04.24-.09.47-.14.71-.05.24-.1.47-.15.71-.05.23-.11.47-.16.7s-.12.47-.18.7c-.06.23-.12.46-.19.69-.07.23-.13.46-.2.69s-.14.46-.21.68-.15.45-.23.68c-.08.23-.16.45-.24.67-.08.22-.17.45-.25.67-.09.22-.17.44-.26.66-.09.22-.18.44-.27.66-.09.22-.19.44-.29.65-.1.22-.2.43-.3.65-.1.21-.2.43-.31.64-.1.21-.21.42-.32.63-.11.21-.22.42-.33.63-.11.21-.23.42-.34.62-.12.21-.23.41-.35.62-.12.2-.24.41-.36.61-.12.2-.25.4-.38.6-.13.2-.26.4-.39.59-.13.2-.26.39-.4.59-.13.19-.27.39-.41.58-.14.19-.28.38-.42.57-.14.19-.28.38-.43.57s-.29.37-.44.56-.3.37-.45.55c-.15.18-.3.36-.46.54-.15.18-.31.36-.47.53-.16.18-.32.35-.48.53-.16.17-.32.35-.49.52-.16.17-.33.34-.5.51-.17.17-.34.33-.51.5s-.34.33-.52.49c-.17.16-.35.32-.53.48s-.36.32-.54.47c-.18.16-.36.31-.55.46-.18.15-.37.3-.55.45-.19.15-.37.3-.56.44s-.38.29-.57.43c-.19.14-.39.29-.58.43-.2.14-.39.28-.59.41-.2.14-.4.27-.6.4-.2.13-.4.26-.61.39s-.41.26-.62.38c-.21.13-.41.25-.62.37-.21.12-.42.24-.63.36s-.43.24-.64.35-.43.23-.65.34-.44.22-.66.33c-.22.11-.44.21-.66.32s-.45.21-.67.31c-.23.1-.45.2-.68.29,0,0-.01,0-.02,0h-.02s-.01.01-.02.01c0,0-.01,0-.02,0,0,0-.01,0-.02,0,0,0-.01,0-.02,0,0,0-.01,0-.02,0,0,0-.01,0-.02,0,0,0-.01,0-.02,0,0,0-.01,0-.02,0,0,0-.01,0-.02,0s-.01,0-.02,0c0,0-.01,0-.02,0,0,0-.01,0-.02,0,0,0-.01,0-.02,0,0,0-.01,0-.02,0s-.01,0-.02,0c0,0-.01,0-.02,0,0,0-.01,0-.02,0,0,0-.01,0-.02,0,0,0-.01,0-.02,0,0,0-.01,0-.02,0,0,0-.01,0-.02,0,0,0-.01,0-.02,0,0,0-.01,0-.02,0,0,0-.01,0-.02,0,0,0-.01,0-.02,0,0,0-.01,0-.02,0,0,0-.01,0-.02,0,0,0-.01,0-.02,0,0,0-.01,0-.02,0,0,0-.01,0-.02,0,0,0-.01,0-.02,0,0,0-.01,0-.02,0,0,0-.01,0-.02,0,0,0-.01,0-.02,0,0,0-.01,0-.02,0s-.01,0-.02,0c0,0-.01,0-.02,0,0,0-.01,0-.02,0,0,0-.01,0-.02,0,0,0-.01,0-.02,0,0,0-.01,0-.02,0,0,0-.01,0-.02,0,0,0-.01,0-.02,0,0,0-.01,0-.02,0,0,0-.01,0-.02,0,0,0-.01,0-.02,0,0,0-.01,0-.02,0,0,0-.01,0-.02,0s-.01,0-.02,0c0,0-.01,0-.02,0,0,0-.01,0-.02,0,0,0-.01,0-.02,0,0,0-.01,0-.02,0,0,0-.01,0-.02,0,0,0-.01,0-.02,0,0,0-.01,0-.02,0,0,0-.01,0-.02,0,0,0-.01,0-.02,0,0,0-.01,0-.02,0,0,0-.01,0-.02,0,0,0-.01,0-.02,0h-.02Z"/>
    <path class="cls-1" d="M114.84,120.76s-.04,0-.05,0c-.02,0-.04,0-.05,0-.02,0-.04,0-.05,0-.02,0-.04,0-.05,0s-.04,0-.05,0c-.02,0-.04,0-.05,0-.02,0-.04,0-.05,0-.02,0-.03,0-.05,0-.02,0-.03,0-.05,0-.02,0-.03,0-.05,0-.02,0-.03,0-.05-.01-.02,0-.03,0-.05-.01-.02,0-.03,0-.05-.01s-.03,0-.05-.01c-.02,0-.03,0-.05-.01-.02,0-.03,0-.05-.01-.02,0-.03-.01-.05-.02-.02,0-.03-.01-.05-.02-.02,0-.03-.01-.05-.02-.02,0-.03-.01-.05-.02s-.03-.01-.05-.02c-.02,0-.03-.01-.05-.02-.02,0-.03-.01-.05-.02-.02,0-.03-.01-.05-.02-.02,0-.03-.01-.05-.02-.02,0-.03-.02-.05-.02-.02,0-.03-.02-.05-.02-.02,0-.03-.02-.05-.02s-.03-.02-.05-.03c-.02,0-.03-.02-.05-.03-.02,0-.03-.02-.04-.03s-.03-.02-.04-.03c-.01,0-.03-.02-.04-.03-.01,0-.03-.02-.04-.03-.01-.01-.03-.02-.04-.03-.01-.01-.03-.02-.04-.03-.01-.01-.03-.02-.04-.03-.01-.01-.03-.02-.04-.03s-.03-.02-.04-.03c-.01-.01-.03-.02-.04-.03-.01-.01-.03-.02-.04-.04s-.03-.02-.04-.04c-.01-.01-.03-.02-.04-.04-.01-.01-.03-.03-.04-.04-.01-.01-.02-.03-.04-.04s-.02-.03-.04-.04c-.01-.01-.02-.03-.04-.04-.01-.01-.02-.03-.04-.04s-.02-.03-.03-.04c-.01-.01-.02-.03-.03-.04-.01-.01-.02-.03-.03-.04-.01-.01-.02-.03-.03-.04-.01-.01-.02-.03-.03-.04-.01-.01-.02-.03-.03-.05-.01-.02-.02-.03-.03-.05,0-.02-.02-.03-.03-.05,0-.02-.02-.03-.03-.05,0-.02-.02-.03-.03-.05,0-.02-.02-.03-.03-.05,0-.02-.02-.03-.03-.05,0-.02-.02-.03-.03-.05,0-.02-.02-.03-.02-.05,0-.02-.02-.03-.02-.05,0-.02-.02-.03-.02-.05,0-.02-.02-.05-.03-.07,0-.02-.02-.05-.03-.07,0-.02-.02-.05-.02-.07,0-.02-.02-.05-.02-.07,0-.02-.01-.05-.02-.07,0-.02-.01-.05-.02-.07,0-.02-.01-.05-.02-.07,0-.02-.01-.05-.02-.07s0-.05-.01-.07c0-.02,0-.05-.01-.07,0-.02,0-.05,0-.07,0-.02,0-.05,0-.07,0-.02,0-.05,0-.07,0-.02,0-.05,0-.07,0-.02,0-.05,0-.07s0-.05,0-.07,0-.05,0-.07c0-.02,0-.05,0-.07,0-.02,0-.05,0-.07,0-.02,0-.05,0-.07,0-.02,0-.05,0-.07,0-.02,0-.05,0-.07s0-.05.01-.07c0-.02,0-.05.01-.07,0-.02,0-.05.01-.07,0-.02.01-.05.02-.07,0-.02.01-.05.02-.07,0-.02.01-.05.02-.07,0-.02.01-.04.02-.07,0-.02.01-.04.02-.07,0-.02.02-.04.02-.07,0-.02.02-.04.03-.07,0-.02.02-.04.03-.06,0-.02.02-.04.03-.06,0-.02.02-.04.03-.06.01-.02.02-.04.03-.06.01-.02.02-.04.03-.06.01-.02.02-.04.03-.06.01-.02.02-.04.04-.06.01-.02.02-.04.04-.06.01-.02.03-.04.04-.06.01-.02.03-.04.04-.06.01-.02.03-.04.04-.06.01-.02.03-.04.04-.06.01-.02.03-.04.04-.05.02-.02.03-.04.05-.05.02-.02.03-.04.05-.05s.03-.03.05-.05c.02-.02.03-.03.05-.05.02-.02.03-.03.05-.05.02-.02.04-.03.05-.05.02-.02.04-.03.05-.05s.04-.03.06-.05c.02-.01.04-.03.06-.04.02-.01.04-.03.06-.04.02-.01.04-.03.06-.04.02-.01.04-.03.06-.04.02-.01.04-.03.06-.04.02-.01.04-.03.06-.04.02-.01.04-.02.06-.04.02-.01.04-.02.07-.03.02-.01.04-.02.07-.03.02-.01.05-.02.07-.03.02-.01.05-.02.07-.03.12-.05.23-.1.35-.15.12-.05.23-.1.35-.16.12-.05.23-.11.34-.16.11-.06.23-.11.34-.17.11-.06.22-.12.34-.18.11-.06.22-.12.33-.18.11-.06.22-.12.33-.19.11-.06.22-.13.32-.19.11-.07.21-.13.32-.2.11-.07.21-.13.31-.2s.21-.14.31-.21c.1-.07.2-.14.31-.21.1-.07.2-.15.3-.22s.2-.15.3-.22c.1-.08.2-.15.29-.23.1-.08.19-.16.29-.23s.19-.16.28-.24c.09-.08.19-.16.28-.24.09-.08.18-.17.27-.25.09-.08.18-.17.27-.25.09-.09.18-.17.26-.26.09-.09.17-.17.26-.26.09-.09.17-.18.25-.27.08-.09.17-.18.25-.27.08-.09.16-.18.24-.28.08-.09.16-.19.24-.28.08-.09.16-.19.23-.28.08-.1.15-.19.23-.29.07-.1.15-.19.22-.29.07-.1.14-.2.22-.3.07-.1.14-.2.21-.3.07-.1.14-.2.21-.3.07-.1.13-.2.2-.31.07-.1.13-.21.19-.31.06-.1.13-.21.19-.31.06-.11.12-.21.18-.32.06-.11.12-.21.18-.32.06-.11.12-.22.17-.32.06-.11.11-.22.17-.33.05-.11.11-.22.16-.33.05-.11.1-.22.15-.33.05-.11.1-.22.15-.34.05-.11.1-.23.14-.34.05-.11.09-.23.14-.34.04-.11.09-.23.13-.35.04-.12.08-.23.12-.35.04-.12.08-.23.12-.35.04-.12.07-.24.11-.35.04-.12.07-.24.1-.36s.07-.24.1-.36c.03-.12.06-.24.09-.36.03-.12.06-.24.09-.36s.05-.24.08-.36c.03-.12.05-.24.07-.37s.04-.25.07-.37c.02-.12.04-.25.06-.37s.04-.25.05-.37c.02-.12.03-.25.05-.37s.03-.25.04-.38c.01-.13.02-.25.03-.38,0-.13.02-.25.02-.38,0-.13.01-.25.02-.38,0-.13,0-.25.01-.38,0-.13,0-.26,0-.38s0-.26,0-.38,0-.25-.01-.38c0-.13-.01-.25-.02-.38,0-.13-.02-.25-.02-.38,0-.13-.02-.25-.03-.38-.01-.13-.02-.25-.04-.38-.01-.12-.03-.25-.05-.37-.02-.12-.03-.25-.05-.37s-.04-.25-.06-.37c-.02-.12-.04-.25-.07-.37-.02-.12-.05-.24-.07-.37-.03-.12-.05-.24-.08-.36-.03-.12-.06-.24-.09-.36-.03-.12-.06-.24-.09-.36-.03-.12-.06-.24-.1-.36-.03-.12-.07-.24-.1-.36s-.07-.24-.11-.35c-.04-.12-.08-.23-.12-.35s-.08-.23-.12-.35c-.04-.12-.09-.23-.13-.35s-.09-.23-.14-.34-.09-.23-.14-.34c-.05-.11-.1-.23-.15-.34-.05-.11-.1-.22-.15-.33-.05-.11-.11-.22-.16-.33-.05-.11-.11-.22-.17-.33-.06-.11-.11-.22-.17-.32-.06-.11-.12-.21-.18-.32-.06-.11-.12-.21-.18-.32-.06-.11-.12-.21-.19-.31-.06-.1-.13-.21-.19-.31-.07-.1-.13-.21-.2-.31-.07-.1-.14-.2-.21-.3-.07-.1-.14-.2-.21-.3-.07-.1-.14-.2-.22-.3-.07-.1-.15-.2-.22-.29-.07-.1-.15-.19-.23-.29s-.15-.19-.23-.28c-.08-.09-.16-.19-.24-.28-.08-.09-.16-.18-.24-.28-.08-.09-.16-.18-.25-.27s-.17-.18-.25-.27c-.09-.09-.17-.18-.26-.26-.09-.09-.17-.17-.26-.26-.09-.09-.18-.17-.27-.25-.09-.08-.18-.17-.27-.25-.09-.08-.18-.16-.28-.24-.09-.08-.19-.16-.28-.24-.09-.08-.19-.16-.29-.23-.1-.08-.19-.15-.29-.23-.1-.08-.2-.15-.3-.22s-.2-.15-.3-.22c-.1-.07-.2-.14-.31-.21-.1-.07-.21-.14-.31-.21-.1-.07-.21-.14-.31-.2-.11-.07-.21-.13-.32-.2-.11-.07-.21-.13-.32-.19-.11-.06-.22-.13-.33-.19-.11-.06-.22-.12-.33-.18-.11-.06-.22-.12-.34-.18-.11-.06-.23-.11-.34-.17-.11-.06-.23-.11-.34-.16-.12-.05-.23-.11-.35-.16-.12-.05-.23-.1-.35-.15-.02,0-.05-.02-.07-.03-.02-.01-.05-.02-.07-.03-.02-.01-.04-.02-.07-.03-.02-.01-.04-.02-.07-.03-.02-.01-.04-.02-.06-.04-.02-.01-.04-.02-.06-.04-.02-.01-.04-.03-.06-.04-.02-.01-.04-.03-.06-.04-.02-.01-.04-.03-.06-.04-.02-.01-.04-.03-.06-.04-.02-.01-.04-.03-.06-.04-.02-.01-.04-.03-.06-.05-.02-.02-.04-.03-.05-.05s-.04-.03-.05-.05c-.02-.02-.03-.03-.05-.05-.02-.02-.03-.03-.05-.05-.02-.02-.03-.03-.05-.05s-.03-.03-.05-.05c-.02-.02-.03-.04-.05-.05-.02-.02-.03-.04-.04-.05-.01-.02-.03-.04-.04-.06-.01-.02-.03-.04-.04-.06-.01-.02-.03-.04-.04-.06-.01-.02-.03-.04-.04-.06-.01-.02-.03-.04-.04-.06-.01-.02-.02-.04-.04-.06-.01-.02-.02-.04-.03-.06-.01-.02-.02-.04-.03-.06-.01-.02-.02-.04-.03-.06-.01-.02-.02-.04-.03-.06,0-.02-.02-.04-.03-.06,0-.02-.02-.04-.03-.06s-.02-.04-.03-.07c0-.02-.02-.04-.02-.07,0-.02-.02-.04-.02-.07,0-.02-.01-.04-.02-.07,0-.02-.01-.04-.02-.07,0-.02-.01-.05-.02-.07,0-.02-.01-.05-.02-.07,0-.02,0-.05-.01-.07,0-.02,0-.05-.01-.07,0-.02,0-.05-.01-.07,0-.02,0-.05,0-.07,0-.02,0-.05,0-.07s0-.05,0-.07c0-.02,0-.05,0-.07,0-.02,0-.05,0-.07,0-.02,0-.05,0-.07s0-.05,0-.07,0-.05,0-.07,0-.05,0-.07c0-.02,0-.05,0-.07s0-.05,0-.07c0-.02,0-.05,0-.07,0-.02,0-.05.01-.07,0-.02,0-.05.01-.07s0-.05.02-.07c0-.02.01-.05.02-.07,0-.02.01-.05.02-.07,0-.02.01-.05.02-.07,0-.02.01-.05.02-.07,0-.02.02-.05.02-.07,0-.02.02-.05.03-.07,0-.02.02-.05.03-.07,0-.02.02-.05.03-.07.01-.02.02-.05.03-.07.01-.02.02-.04.03-.07.01-.02.02-.04.03-.07.01-.02.02-.04.04-.06.01-.02.02-.04.04-.06.01-.02.03-.04.04-.06.01-.02.03-.04.04-.06.01-.02.03-.04.04-.06s.03-.04.04-.06c.01-.02.03-.04.04-.06.01-.02.03-.04.05-.06.02-.02.03-.04.05-.05.02-.02.03-.04.05-.05.02-.02.03-.03.05-.05.02-.02.03-.03.05-.05.02-.02.03-.03.05-.05s.03-.03.05-.05c.02-.02.04-.03.05-.05.02-.02.04-.03.05-.04.02-.01.04-.03.06-.04.02-.01.04-.03.06-.04s.04-.03.06-.04c.02-.01.04-.03.06-.04.02-.01.04-.03.06-.04.02-.01.04-.02.06-.04.02-.01.04-.02.06-.03.02-.01.04-.02.06-.03.02-.01.04-.02.06-.03.02-.01.04-.02.06-.03.02,0,.04-.02.06-.03.02,0,.04-.02.06-.03.02,0,.04-.02.07-.03.02,0,.04-.02.07-.02s.04-.02.07-.02c.02,0,.04-.01.07-.02.02,0,.04-.01.07-.02s.05-.01.07-.02c.02,0,.05-.01.07-.02.02,0,.05,0,.07-.01s.05,0,.07-.01.05,0,.07-.01c.02,0,.05,0,.07,0,.02,0,.05,0,.07,0,.02,0,.05,0,.07,0,.02,0,.05,0,.07,0,.02,0,.05,0,.07,0s.05,0,.07,0,.05,0,.07,0c.02,0,.05,0,.07,0,.02,0,.05,0,.07,0,.02,0,.05,0,.07,0,.02,0,.05,0,.07,0,.02,0,.05,0,.07,0,.02,0,.05,0,.07.01.02,0,.05,0,.07.01s.05,0,.07.02c.02,0,.05.01.07.02.02,0,.05.01.07.02.02,0,.05.01.07.02.02,0,.05.01.07.02.02,0,.05.02.07.02.02,0,.05.02.07.03.02,0,.05.02.07.03.15.06.3.13.45.2.15.07.3.13.45.2.15.07.3.14.44.21.15.07.29.14.44.22.14.07.29.15.43.23.14.08.29.15.43.23.14.08.28.16.42.24.14.08.28.16.42.25.14.08.27.17.41.26.14.09.27.17.4.26.13.09.27.18.4.27.13.09.26.18.39.28s.26.19.39.28c.13.1.26.19.38.29.13.1.25.2.38.3.12.1.25.2.37.3.12.1.24.2.36.31.12.1.24.21.36.31.12.11.23.21.35.32.12.11.23.22.34.33.11.11.23.22.34.33.11.11.22.22.33.34.11.11.22.23.33.34.11.12.21.23.32.35.11.12.21.24.31.36.1.12.2.24.31.36.1.12.2.24.3.37s.2.25.29.37c.1.12.19.25.29.38.09.13.19.25.28.38.09.13.18.26.27.39.09.13.18.26.26.39.09.13.17.26.26.4.08.13.17.27.25.4.08.13.16.27.24.4.08.14.16.27.24.41.08.14.15.28.23.41.07.14.15.28.22.42.07.14.14.28.21.42.07.14.14.28.21.43.07.14.13.29.2.43.06.14.13.29.19.43.06.15.12.29.18.44.06.15.12.29.17.44.06.15.11.3.17.44.05.15.11.3.16.45s.1.3.15.45c.05.15.1.3.14.45.05.15.09.3.13.46s.09.31.13.46c.04.15.08.31.12.46s.07.31.11.47.07.31.1.47.06.31.09.47c.03.16.06.32.08.47.03.16.05.32.08.48s.05.32.07.48c.02.16.04.32.06.48.02.16.03.32.05.48.01.16.03.32.04.49.01.16.02.33.03.49,0,.16.02.33.02.49,0,.16.01.33.01.49,0,.16,0,.33,0,.49s0,.33,0,.49c0,.16,0,.33-.01.49,0,.16-.01.33-.02.49,0,.16-.02.33-.03.49-.01.16-.03.32-.04.49-.02.16-.03.32-.05.48-.02.16-.04.32-.06.48s-.04.32-.07.48c-.02.16-.05.32-.08.48-.03.16-.05.32-.08.47-.03.16-.06.32-.09.47s-.07.31-.1.47c-.04.16-.07.31-.11.47-.04.16-.08.31-.12.46-.04.15-.08.31-.13.46s-.09.31-.13.46c-.05.15-.09.3-.14.45-.05.15-.1.3-.15.45s-.1.3-.16.45c-.05.15-.11.3-.17.44-.06.15-.12.29-.17.44-.06.15-.12.29-.18.44-.06.15-.13.29-.19.43-.06.14-.13.29-.2.43-.07.14-.14.28-.21.43s-.14.28-.21.42c-.07.14-.15.28-.22.42-.07.14-.15.28-.23.41-.08.14-.16.27-.24.41-.08.14-.16.27-.24.41-.08.13-.17.27-.25.4-.08.13-.17.26-.26.4-.09.13-.17.26-.26.39-.09.13-.18.26-.27.39-.09.13-.18.26-.28.38-.09.13-.19.25-.29.38-.1.12-.19.25-.29.37s-.2.24-.3.37c-.1.12-.2.24-.31.36-.1.12-.21.24-.31.36-.11.12-.21.23-.32.35-.11.12-.22.23-.33.34-.11.11-.22.23-.33.34s-.22.22-.34.33c-.11.11-.23.22-.34.33s-.23.21-.35.32c-.12.11-.24.21-.36.31-.12.1-.24.21-.36.31-.12.1-.25.2-.37.3s-.25.2-.38.3c-.13.1-.25.19-.38.29-.13.1-.26.19-.39.28s-.26.19-.39.28c-.13.09-.26.18-.4.27-.13.09-.27.18-.4.26-.14.09-.27.17-.41.26-.14.08-.28.17-.42.25-.14.08-.28.16-.42.24-.14.08-.28.16-.43.23-.14.08-.29.15-.43.23-.14.07-.29.15-.44.22-.15.07-.29.14-.44.21-.15.07-.3.14-.45.2-.15.07-.3.13-.45.2,0,0-.01,0-.02,0,0,0-.01,0-.02,0,0,0-.01,0-.02,0,0,0-.01,0-.02,0s-.01,0-.02,0c0,0-.01,0-.02,0,0,0-.01,0-.02,0,0,0-.01,0-.02,0,0,0-.01,0-.02,0,0,0-.01,0-.02,0,0,0-.01,0-.02,0s-.01,0-.02,0-.01,0-.02,0h-.02s-.01,0-.02.01c0,0-.01,0-.02,0,0,0-.01,0-.02,0s-.01,0-.02,0h-.02s-.01,0-.02.01c0,0-.01,0-.02,0,0,0-.01,0-.02,0,0,0-.01,0-.02,0,0,0-.01,0-.02,0,0,0-.01,0-.02,0,0,0-.01,0-.02,0,0,0-.01,0-.02,0,0,0-.01,0-.02,0,0,0-.01,0-.02,0,0,0-.01,0-.02,0,0,0-.01,0-.02,0,0,0-.01,0-.02,0,0,0-.01,0-.02,0,0,0-.01,0-.02,0h-.02s-.01,0-.02,0c0,0-.01,0-.02,0s-.01,0-.02,0c0,0-.01,0-.02,0,0,0-.01,0-.02,0s-.01,0-.02,0c0,0-.01,0-.02,0h-.02s-.01,0-.02,0c0,0-.01,0-.02,0h-.02s-.01,0-.02,0-.01,0-.02,0c0,0-.01,0-.02,0,0,0-.01,0-.02,0,0,0-.01,0-.02,0,0,0-.01,0-.02,0,0,0-.01,0-.02,0,0,0-.01,0-.02,0,0,0-.01,0-.02,0,0,0-.01,0-.02,0,0,0-.01,0-.02,0,0,0-.01,0-.02,0,0,0-.01,0-.02,0,0,0-.01,0-.02,0,0,0-.01,0-.02,0s-.01,0-.02,0c0,0-.01,0-.02,0h-.02Z"/>
    <path class="cls-1" d="M109.82,108.87s-.04,0-.05,0c-.02,0-.04,0-.05,0-.02,0-.04,0-.05,0s-.04,0-.05,0c-.02,0-.04,0-.05,0-.02,0-.04,0-.05,0-.02,0-.04,0-.05,0-.02,0-.03,0-.05,0-.02,0-.03,0-.05,0-.02,0-.03,0-.05,0-.02,0-.03,0-.05,0-.02,0-.03,0-.05-.01-.02,0-.03,0-.05-.01-.02,0-.03,0-.05-.01-.02,0-.03,0-.05-.01s-.03,0-.05-.01-.03-.01-.05-.02c-.02,0-.03-.01-.05-.02-.02,0-.03-.01-.05-.02s-.03-.01-.05-.02-.03-.01-.05-.02c-.02,0-.03-.01-.05-.02s-.03-.01-.05-.02c-.02,0-.03-.01-.05-.02-.02,0-.03-.01-.05-.02-.02,0-.03-.02-.05-.02-.02,0-.03-.02-.05-.02s-.03-.02-.05-.03c-.02,0-.03-.02-.05-.03s-.03-.02-.05-.03c-.02,0-.03-.02-.04-.03-.01,0-.03-.02-.04-.03-.01,0-.03-.02-.04-.03-.01,0-.03-.02-.04-.03-.01-.01-.03-.02-.04-.03-.01-.01-.03-.02-.04-.03-.01-.01-.03-.02-.04-.03-.01-.01-.03-.02-.04-.03-.01-.01-.03-.02-.04-.03-.01-.01-.03-.02-.04-.03-.01-.01-.03-.02-.04-.04-.01-.01-.03-.02-.04-.04-.01-.01-.03-.02-.04-.04s-.03-.03-.04-.04c-.01-.01-.02-.03-.04-.04-.01-.01-.02-.03-.04-.04-.01-.01-.02-.03-.04-.04-.01-.01-.02-.03-.04-.04-.01-.01-.02-.03-.03-.04-.01-.01-.02-.03-.03-.04-.01-.01-.02-.03-.03-.04-.01-.01-.02-.03-.03-.04-.01-.01-.02-.03-.03-.04-.01-.01-.02-.03-.03-.05-.01-.02-.02-.03-.03-.05,0-.02-.02-.03-.03-.05,0-.02-.02-.03-.03-.05,0-.02-.02-.03-.03-.05,0-.02-.02-.03-.03-.05,0-.02-.02-.03-.03-.05,0-.02-.02-.03-.03-.05,0-.02-.02-.03-.02-.05,0-.02-.02-.03-.02-.05,0-.02-.02-.03-.02-.05,0-.02-.02-.05-.03-.07s-.02-.05-.03-.07c0-.02-.02-.05-.02-.07,0-.02-.02-.05-.02-.07,0-.02-.01-.05-.02-.07,0-.02-.01-.05-.02-.07,0-.02-.01-.05-.02-.07s-.01-.05-.02-.07c0-.02,0-.05-.01-.07,0-.02,0-.05-.01-.07,0-.02,0-.05,0-.07,0-.02,0-.05,0-.07,0-.02,0-.05,0-.07,0-.02,0-.05,0-.07,0-.02,0-.05,0-.07s0-.05,0-.07,0-.05,0-.07c0-.02,0-.05,0-.07,0-.02,0-.05,0-.07s0-.05,0-.07c0-.02,0-.05,0-.07,0-.02,0-.05,0-.07,0-.02,0-.05.01-.07,0-.02,0-.05.01-.07,0-.02,0-.05.01-.07,0-.02.01-.05.02-.07,0-.02.01-.05.02-.07,0-.02.01-.05.02-.07,0-.02.01-.04.02-.07,0-.02.01-.04.02-.07,0-.02.02-.04.02-.07,0-.02.02-.04.03-.07,0-.02.02-.04.03-.06,0-.02.02-.04.03-.06,0-.02.02-.04.03-.06.01-.02.02-.04.03-.06.01-.02.02-.04.03-.06.01-.02.02-.04.03-.06.01-.02.02-.04.04-.06.01-.02.02-.04.04-.06.01-.02.03-.04.04-.06.01-.02.03-.04.04-.06.01-.02.03-.04.04-.06.01-.02.03-.04.04-.06s.03-.04.04-.05c.02-.02.03-.04.05-.05.02-.02.03-.04.05-.05.02-.02.03-.03.05-.05.02-.02.03-.03.05-.05.02-.02.03-.03.05-.05.02-.02.04-.03.05-.05.02-.02.04-.03.05-.05.02-.02.04-.03.06-.05.02-.02.04-.03.06-.04.02-.01.04-.03.06-.04.02-.01.04-.03.06-.04.02-.01.04-.03.06-.04.02-.01.04-.03.06-.04.02-.01.04-.03.06-.04.02-.01.04-.02.06-.04.02-.01.04-.02.07-.03.02-.01.04-.02.07-.03.02-.01.05-.02.07-.03.02-.01.05-.02.07-.03.04-.02.09-.04.13-.06.04-.02.08-.04.13-.06.04-.02.08-.04.13-.06.04-.02.08-.04.12-.06.04-.02.08-.04.12-.06.04-.02.08-.04.12-.07.04-.02.08-.05.12-.07.04-.02.08-.05.12-.07.04-.02.08-.05.12-.07.04-.02.08-.05.11-.07.04-.03.08-.05.11-.08.04-.03.07-.05.11-.08s.07-.05.11-.08c.04-.03.07-.05.11-.08.04-.03.07-.06.11-.08.04-.03.07-.06.1-.09.03-.03.07-.06.1-.09.03-.03.07-.06.1-.09s.07-.06.1-.09c.03-.03.07-.06.1-.09.03-.03.06-.06.1-.09s.06-.06.09-.1c.03-.03.06-.06.09-.1s.06-.07.09-.1c.03-.03.06-.07.09-.1.03-.03.06-.07.09-.1.03-.03.06-.07.08-.1.03-.03.06-.07.08-.11.03-.04.05-.07.08-.11.03-.04.05-.07.08-.11.03-.04.05-.07.08-.11.03-.04.05-.07.07-.11.02-.04.05-.07.07-.11.02-.04.05-.08.07-.11.02-.04.05-.08.07-.11.02-.04.04-.08.07-.12s.04-.08.06-.12c.02-.04.04-.08.06-.12s.04-.08.06-.12c.02-.04.04-.08.06-.12.02-.04.04-.08.06-.12.02-.04.04-.08.05-.12.02-.04.03-.08.05-.12.02-.04.03-.08.05-.13.02-.04.03-.08.05-.13.02-.04.03-.08.04-.13.01-.04.03-.09.04-.13.01-.04.03-.09.04-.13s.03-.09.04-.13c.01-.04.02-.09.04-.13.01-.04.02-.09.03-.13.01-.04.02-.09.03-.13,0-.04.02-.09.03-.13s.02-.09.03-.13c0-.04.02-.09.02-.13,0-.04.01-.09.02-.14,0-.05.01-.09.02-.14,0-.05.01-.09.02-.14,0-.05,0-.09.01-.14,0-.05,0-.09.01-.14,0-.05,0-.09,0-.14,0-.05,0-.09,0-.14s0-.09,0-.14c0-.05,0-.09,0-.14s0-.09,0-.14c0-.05,0-.09,0-.14,0-.05,0-.09,0-.14,0-.05,0-.09,0-.14,0-.05,0-.09-.01-.14,0-.05,0-.09-.01-.14,0-.05-.01-.09-.02-.14,0-.05-.01-.09-.02-.14,0-.05-.01-.09-.02-.14,0-.04-.02-.09-.02-.13,0-.04-.02-.09-.03-.13,0-.04-.02-.09-.03-.13s-.02-.09-.03-.13c-.01-.04-.02-.09-.03-.13-.01-.04-.02-.09-.04-.13-.01-.04-.03-.09-.04-.13-.01-.04-.03-.09-.04-.13-.01-.04-.03-.09-.04-.13-.01-.04-.03-.08-.04-.13-.02-.04-.03-.08-.05-.13-.02-.04-.03-.08-.05-.13-.02-.04-.03-.08-.05-.12-.02-.04-.04-.08-.05-.12-.02-.04-.04-.08-.06-.12-.02-.04-.04-.08-.06-.12s-.04-.08-.06-.12c-.02-.04-.04-.08-.06-.12-.02-.04-.04-.08-.06-.12-.02-.04-.04-.08-.07-.12s-.05-.08-.07-.11c-.02-.04-.05-.08-.07-.11-.02-.04-.05-.07-.07-.11-.02-.04-.05-.07-.07-.11-.03-.04-.05-.07-.08-.11-.03-.04-.05-.07-.08-.11-.03-.04-.05-.07-.08-.11-.03-.04-.05-.07-.08-.11-.03-.03-.06-.07-.08-.1-.03-.03-.06-.07-.09-.1-.03-.03-.06-.07-.09-.1-.03-.03-.06-.07-.09-.1s-.06-.07-.09-.1c-.03-.03-.06-.06-.09-.1-.03-.03-.06-.06-.1-.09-.03-.03-.06-.06-.1-.09-.03-.03-.07-.06-.1-.09s-.07-.06-.1-.09c-.03-.03-.07-.06-.1-.09-.03-.03-.07-.06-.1-.09-.04-.03-.07-.06-.11-.08-.04-.03-.07-.05-.11-.08-.04-.03-.07-.05-.11-.08s-.07-.05-.11-.08c-.04-.03-.08-.05-.11-.08-.04-.03-.08-.05-.11-.07-.04-.02-.08-.05-.12-.07s-.08-.05-.12-.07c-.04-.02-.08-.05-.12-.07-.04-.02-.08-.04-.12-.07-.04-.02-.08-.04-.12-.06-.04-.02-.08-.04-.12-.06-.04-.02-.08-.04-.13-.06-.04-.02-.08-.04-.13-.06-.04-.02-.09-.04-.13-.06-.02,0-.05-.02-.07-.03-.02-.01-.05-.02-.07-.03-.02-.01-.04-.02-.07-.03-.02-.01-.04-.02-.07-.03-.02-.01-.04-.02-.06-.04-.02-.01-.04-.02-.06-.04-.02-.01-.04-.03-.06-.04-.02-.01-.04-.03-.06-.04-.02-.01-.04-.03-.06-.04-.02-.01-.04-.03-.06-.04-.02-.01-.04-.03-.06-.04-.02-.01-.04-.03-.06-.05-.02-.02-.04-.03-.05-.05-.02-.02-.04-.03-.05-.05-.02-.02-.03-.03-.05-.05-.02-.02-.03-.03-.05-.05-.02-.02-.03-.03-.05-.05-.02-.02-.03-.03-.05-.05-.02-.02-.03-.04-.05-.05-.02-.02-.03-.04-.04-.05-.01-.02-.03-.04-.04-.06-.01-.02-.03-.04-.04-.06-.01-.02-.03-.04-.04-.06-.01-.02-.03-.04-.04-.06-.01-.02-.03-.04-.04-.06-.01-.02-.02-.04-.04-.06-.01-.02-.02-.04-.03-.06-.01-.02-.02-.04-.03-.06-.01-.02-.02-.04-.03-.06-.01-.02-.02-.04-.03-.06,0-.02-.02-.04-.03-.06s-.02-.04-.03-.06c0-.02-.02-.04-.03-.07,0-.02-.02-.04-.02-.07,0-.02-.02-.04-.02-.07,0-.02-.01-.04-.02-.07,0-.02-.01-.04-.02-.07,0-.02-.01-.05-.02-.07,0-.02-.01-.05-.02-.07,0-.02,0-.05-.01-.07,0-.02,0-.05-.01-.07,0-.02,0-.05-.01-.07,0-.02,0-.05,0-.07,0-.02,0-.05,0-.07,0-.02,0-.05,0-.07s0-.05,0-.07c0-.02,0-.05,0-.07,0-.02,0-.05,0-.07s0-.05,0-.07c0-.02,0-.05,0-.07,0-.02,0-.05,0-.07,0-.02,0-.05,0-.07,0-.02,0-.05,0-.07,0-.02,0-.05,0-.07,0-.02,0-.05.01-.07,0-.02,0-.05.01-.07,0-.02,0-.05.02-.07s.01-.05.02-.07c0-.02.01-.05.02-.07,0-.02.01-.05.02-.07,0-.02.01-.05.02-.07s.02-.05.02-.07c0-.02.02-.05.03-.07,0-.02.02-.05.03-.07,0-.02.02-.05.03-.07.01-.02.02-.05.03-.07.01-.02.02-.04.03-.07.01-.02.02-.04.03-.07.01-.02.02-.04.04-.06.01-.02.02-.04.04-.06.01-.02.03-.04.04-.06s.03-.04.04-.06c.01-.02.03-.04.04-.06.01-.02.03-.04.04-.06.01-.02.03-.04.04-.06.01-.02.03-.04.05-.06.02-.02.03-.04.05-.05.02-.02.03-.04.05-.05.02-.02.03-.03.05-.05.02-.02.03-.03.05-.05.02-.02.03-.03.05-.05.02-.02.03-.03.05-.05.02-.02.04-.03.05-.05s.04-.03.05-.04c.02-.01.04-.03.06-.04.02-.01.04-.03.06-.04.02-.01.04-.03.06-.04.02-.01.04-.03.06-.04.02-.01.04-.03.06-.04.02-.01.04-.02.06-.04.02-.01.04-.02.06-.03.02-.01.04-.02.06-.03.02-.01.04-.02.06-.03.02-.01.04-.02.06-.03.02,0,.04-.02.06-.03.02,0,.04-.02.06-.03s.04-.02.07-.03c.02,0,.04-.02.07-.02.02,0,.04-.02.07-.02.02,0,.04-.01.07-.02s.04-.01.07-.02c.02,0,.05-.01.07-.02.02,0,.05-.01.07-.02.02,0,.05,0,.07-.01.02,0,.05,0,.07-.01.02,0,.05,0,.07-.01.02,0,.05,0,.07,0,.02,0,.05,0,.07,0,.02,0,.05,0,.07,0,.02,0,.05,0,.07,0,.02,0,.05,0,.07,0,.02,0,.05,0,.07,0,.02,0,.05,0,.07,0s.05,0,.07,0c.02,0,.05,0,.07,0,.02,0,.05,0,.07,0,.02,0,.05,0,.07,0,.02,0,.05,0,.07,0,.02,0,.05,0,.07.01s.05,0,.07.01c.02,0,.05,0,.07.02.02,0,.05.01.07.02.02,0,.05.01.07.02.02,0,.05.01.07.02.02,0,.05.01.07.02s.05.02.07.02.05.02.07.03c.02,0,.05.02.07.03.08.03.15.07.23.1.08.03.15.07.23.1.08.03.15.07.22.11.07.04.15.07.22.11.07.04.15.08.22.11.07.04.14.08.22.12.07.04.14.08.21.12.07.04.14.08.21.13.07.04.14.09.21.13.07.04.14.09.21.13.07.04.14.09.2.14.07.05.13.09.2.14.07.05.13.09.2.14.06.05.13.1.19.15.06.05.13.1.19.15.06.05.13.1.19.15.06.05.12.1.18.16.06.05.12.11.18.16.06.05.12.11.18.16.06.05.12.11.17.17.06.06.11.11.17.17s.11.11.17.17c.06.06.11.12.16.17.05.06.11.12.16.18s.11.12.16.18.1.12.15.18c.05.06.1.12.15.19.05.06.1.13.15.19.05.06.1.13.14.19.05.06.09.13.14.19.05.06.09.13.14.2.05.07.09.13.13.2.04.07.09.13.13.2.04.07.09.13.13.2.04.07.08.14.12.21.04.07.08.14.12.21.04.07.08.14.12.21.04.07.08.14.11.21.04.07.07.14.11.21.04.07.07.14.1.22.03.07.07.14.1.22s.06.15.1.22c.03.07.06.15.09.22.03.07.06.15.09.22.03.07.06.15.08.23.03.08.05.15.08.23.03.08.05.15.08.23.02.08.05.15.07.23.02.08.05.15.07.23.02.08.04.16.06.23.02.08.04.16.06.24.02.08.04.16.06.24.02.08.03.16.05.24.02.08.03.16.05.24.01.08.03.16.04.24.01.08.03.16.04.24s.02.16.03.24c.01.08.02.16.03.24,0,.08.02.16.03.25,0,.08.01.16.02.25s.01.16.02.25c0,.08,0,.17.01.25,0,.08,0,.17,0,.25,0,.08,0,.17,0,.25s0,.17,0,.25c0,.08,0,.17,0,.25,0,.08,0,.17-.01.25,0,.08,0,.17-.02.25s-.01.16-.02.25c0,.08-.02.16-.03.25,0,.08-.02.16-.03.24-.01.08-.02.16-.03.24s-.02.16-.04.24c-.01.08-.03.16-.04.24-.01.08-.03.16-.05.24-.02.08-.03.16-.05.24-.02.08-.04.16-.06.24-.02.08-.04.16-.06.24-.02.08-.04.16-.06.23-.02.08-.04.16-.07.23-.02.08-.05.15-.07.23-.02.08-.05.15-.08.23-.03.08-.05.15-.08.23-.03.08-.06.15-.08.23-.03.07-.06.15-.09.22-.03.07-.06.15-.09.22-.03.07-.06.15-.1.22-.03.07-.07.15-.1.22-.03.07-.07.14-.1.22-.04.07-.07.14-.11.21-.04.07-.07.14-.11.21-.04.07-.08.14-.12.21-.04.07-.08.14-.12.21-.04.07-.08.14-.12.21-.04.07-.08.14-.13.2-.04.07-.09.13-.13.2-.04.07-.09.13-.13.2-.05.07-.09.13-.14.2-.05.06-.09.13-.14.19-.05.06-.1.13-.14.19-.05.06-.1.13-.15.19-.05.06-.1.12-.15.19s-.1.12-.15.18c-.05.06-.1.12-.16.18-.05.06-.11.12-.16.18-.05.06-.11.12-.16.17-.06.06-.11.11-.17.17s-.11.11-.17.17c-.06.06-.12.11-.17.17-.06.05-.12.11-.18.16-.06.05-.12.11-.18.16-.06.05-.12.1-.18.16-.06.05-.12.1-.19.15-.06.05-.13.1-.19.15-.06.05-.13.1-.19.15-.06.05-.13.1-.2.14-.07.05-.13.09-.2.14-.07.05-.13.09-.2.14-.07.04-.14.09-.21.13-.07.04-.14.09-.21.13-.07.04-.14.08-.21.13-.07.04-.14.08-.21.12-.07.04-.14.08-.22.12-.07.04-.15.08-.22.11-.07.04-.15.07-.22.11-.07.04-.15.07-.22.11s-.15.07-.23.1c-.08.03-.15.07-.23.1,0,0-.01,0-.02,0h-.02s-.01.01-.02.01c0,0-.01,0-.02,0,0,0-.01,0-.02,0,0,0-.01,0-.02,0,0,0-.01,0-.02,0,0,0-.01,0-.02,0,0,0-.01,0-.02,0,0,0-.01,0-.02,0,0,0-.01,0-.02,0,0,0-.01,0-.02,0s-.01,0-.02,0c0,0-.01,0-.02,0,0,0-.01,0-.02,0,0,0-.01,0-.02,0,0,0-.01,0-.02,0s-.01,0-.02,0h-.02s-.01,0-.02.01c0,0-.01,0-.02,0s-.01,0-.02,0c0,0-.01,0-.02,0,0,0-.01,0-.02,0,0,0-.01,0-.02,0,0,0-.01,0-.02,0,0,0-.01,0-.02,0,0,0-.01,0-.02,0,0,0-.01,0-.02,0,0,0-.01,0-.02,0,0,0-.01,0-.02,0,0,0-.01,0-.02,0,0,0-.01,0-.02,0,0,0-.01,0-.02,0,0,0-.01,0-.02,0,0,0-.01,0-.02,0,0,0-.01,0-.02,0,0,0-.01,0-.02,0,0,0-.01,0-.02,0,0,0-.01,0-.02,0,0,0-.01,0-.02,0,0,0-.01,0-.02,0,0,0-.01,0-.02,0,0,0-.01,0-.02,0,0,0-.01,0-.02,0,0,0-.01,0-.02,0,0,0-.01,0-.02,0,0,0-.01,0-.02,0,0,0-.01,0-.02,0,0,0-.01,0-.02,0,0,0-.01,0-.02,0,0,0-.01,0-.02,0,0,0-.01,0-.02,0,0,0-.01,0-.02,0,0,0-.01,0-.02,0,0,0-.01,0-.02,0,0,0-.01,0-.02,0,0,0-.01,0-.02,0,0,0-.01,0-.02,0,0,0-.01,0-.02,0,0,0-.01,0-.02,0,0,0-.01,0-.02,0,0,0-.01,0-.02,0h-.02Z"/>
  </g>
</svg>