{
	"asset":{
		"version":"2.0",
		"generator":"Created using the official Cinema 4D glTF Exporter 1.000x284978"
	},
	"scenes":[{
		"nodes":[0]
	}],
	"nodes":[{
		"name":"메인몸톤",
		"translation":[0.0019093180308118463,
		-0.15242984890937806,
		0.06846644729375839],
		"rotation":[0.0,
		0.0,
		0.0,
		-1.0],
		"scale":[1.0,
		1.0,
		1.0],
		"mesh":0
	}],
	"buffers":[{
		"uri":"data:application/octet-stream;base64,",
		"byteLength":2644384
	}],
	"meshes":[{
		"name":"메인몸톤",
		"primitives":[{
			"attributes":{
				"POSITION":1,
				"NORMAL":2,
				"TEXCOORD_0":3
			},
			"indices":0,
			"material":0
		}]
	}],
	"accessors":[{
		"bufferView":0,
		"type":"SCALAR",
		"componentType":5123,
		"count":326064,
		"byteOffset":0,
		"min":[0],
		"max":[62257]
	},
	{
		"bufferView":1,
		"type":"VEC3",
		"componentType":5126,
		"count":62258,
		"byteOffset":0,
		"min":[-0.5107788443565369,
		-0.10161441564559937,
		-1.3117315769195557],
		"max":[0.5065805912017822,
		0.6762576103210449,
		1.154781699180603]
	},
	{
		"bufferView":1,
		"type":"VEC3",
		"componentType":5126,
		"count":62258,
		"byteOffset":12,
		"min":[-0.9999991655349731,
		-1.0,
		-1.0],
		"max":[0.9999992251396179,
		1.0,
		1.0]
	},
	{
		"bufferView":1,
		"type":"VEC2",
		"componentType":5126,
		"count":62258,
		"byteOffset":24,
		"min":[0.0,
		-0.181723952293396],
		"max":[1.3258380889892579,
		1.0652387142181397]
	}],
	"bufferViews":[{
		"buffer":0,
		"byteOffset":0,
		"byteLength":652128,
		"target":34963
	},
	{
		"buffer":0,
		"byteStride":32,
		"byteOffset":652128,
		"byteLength":1992256,
		"target":34962
	}],
	"materials":[{
		"alphaMode":"OPAQUE",
		"pbrMetallicRoughness":{
			"baseColorFactor":[0.74,
			0.0,
			0.0,
			1.0],
			"metallicFactor":1.0,
			"roughnessFactor":0.0
		},
		"emissiveFactor":[0.0,
		0.0,
		0.0],
		"doubleSided":true,
		"name":"chrome"
	}]
}