{
	"asset":{
		"version":"2.0",
		"generator":"Created using the official Cinema 4D glTF Exporter 1.000x284978"
	},
	"nodes":[{
		"name":"Object001_id_2.1",
		"translation":[-0.38609030842781069,
		-0.08753704279661179,
		1.228127121925354],
		"rotation":[0.0,
		0.0,
		0.0,
		-1.0],
		"scale":[1.0,
		1.0,
		1.0],
		"mesh":0
	},
	{
		"name":"Object001_id_2",
		"translation":[0.38456347584724429,
		-0.08753704279661179,
		1.228127121925354],
		"rotation":[0.0,
		0.0,
		0.0,
		-1.0],
		"scale":[1.0,
		1.0,
		1.0],
		"mesh":1
	}],
	"scenes":[{
		"nodes":[0,
		1]
	}],
	"meshes":[{
		"name":"Object001_id_2.1",
		"primitives":[{
			"attributes":{
				"POSITION":1,
				"NORMAL":2,
				"TEXCOORD_0":3
			},
			"indices":0
		}]
	},
	{
		"name":"Object001_id_2",
		"primitives":[{
			"attributes":{
				"POSITION":5,
				"NORMAL":6,
				"TEXCOORD_0":7
			},
			"indices":4
		}]
	}],
	"accessors":[{
		"bufferView":0,
		"type":"SCALAR",
		"componentType":5123,
		"count":672,
		"byteOffset":0,
		"min":[0],
		"max":[120]
	},
	{
		"bufferView":1,
		"type":"VEC3",
		"componentType":5126,
		"count":121,
		"byteOffset":0,
		"min":[-0.01660209894180298,
		-0.016602100804448129,
		-0.016098499298095704],
		"max":[0.01660209894180298,
		0.016602100804448129,
		0.016098499298095704]
	},
	{
		"bufferView":1,
		"type":"VEC3",
		"componentType":5126,
		"count":121,
		"byteOffset":12,
		"min":[-0.9993928074836731,
		-0.9993928074836731,
		-0.08575955778360367],
		"max":[0.9993928074836731,
		0.9993928074836731,
		1.0]
	},
	{
		"bufferView":1,
		"type":"VEC2",
		"componentType":5126,
		"count":121,
		"byteOffset":24,
		"min":[-0.9993988275527954,
		0.85699462890625],
		"max":[0.9993988275527954,
		2.0]
	},
	{
		"bufferView":2,
		"type":"SCALAR",
		"componentType":5123,
		"count":672,
		"byteOffset":0,
		"min":[0],
		"max":[120]
	},
	{
		"bufferView":3,
		"type":"VEC3",
		"componentType":5126,
		"count":121,
		"byteOffset":0,
		"min":[-0.01660209894180298,
		-0.016602100804448129,
		-0.016098499298095704],
		"max":[0.01660209894180298,
		0.016602100804448129,
		0.016098499298095704]
	},
	{
		"bufferView":3,
		"type":"VEC3",
		"componentType":5126,
		"count":121,
		"byteOffset":12,
		"min":[-0.9993928074836731,
		-0.9993928074836731,
		-0.08575955778360367],
		"max":[0.9993928074836731,
		0.9993928074836731,
		1.0]
	},
	{
		"bufferView":3,
		"type":"VEC2",
		"componentType":5126,
		"count":121,
		"byteOffset":24,
		"min":[-0.9993988275527954,
		0.85699462890625],
		"max":[0.9993988275527954,
		2.0]
	}],
	"bufferViews":[{
		"buffer":0,
		"byteOffset":0,
		"byteLength":1344,
		"target":34963
	},
	{
		"buffer":0,
		"byteOffset":1344,
		"byteLength":3872,
		"target":34962,
		"byteStride":32
	},
	{
		"buffer":1,
		"byteOffset":0,
		"byteLength":1344,
		"target":34963
	},
	{
		"buffer":1,
		"byteOffset":1344,
		"byteLength":3872,
		"target":34962,
		"byteStride":32
	}],
	"buffers":[{
		"uri":"data:application/octet-stream;base64,",
		"byteLength":5216
	},
	{
		"uri":"data:application/octet-stream;base64,",
		"byteLength":5216
	}]
}