{
	"asset":{
		"version":"2.0",
		"generator":"Created using the official Cinema 4D glTF Exporter 1.000x284978"
	},
	"nodes":[{
		"name":"capote_1.1",
		"translation":[-0.003056633984670043,
		0.18506880104541779,
		0.011323191225528717],
		"rotation":[0.0,
		0.0,
		0.0,
		-1.0],
		"scale":[1.0,
		1.0,
		1.0],
		"mesh":0
	}],
	"scenes":[{
		"nodes":[0]
	}],
	"meshes":[{
		"name":"capote_1.1",
		"primitives":[{
			"attributes":{
				"POSITION":1,
				"NORMAL":2,
				"TEXCOORD_0":3
			},
			"indices":0
		}]
	}],
	"accessors":[{
		"bufferView":0,
		"type":"SCALAR",
		"componentType":5123,
		"count":7860,
		"byteOffset":0,
		"min":[0],
		"max":[1414]
	},
	{
		"bufferView":1,
		"type":"VEC3",
		"componentType":5126,
		"count":1415,
		"byteOffset":0,
		"min":[-0.3874383568763733,
		-0.10953324288129807,
		-0.6924486756324768],
		"max":[0.3878737986087799,
		0.0852627232670784,
		0.31749069690704348]
	},
	{
		"bufferView":1,
		"type":"VEC3",
		"componentType":5126,
		"count":1415,
		"byteOffset":12,
		"min":[-0.9889829158782959,
		-0.9982722401618958,
		-0.9996628165245056],
		"max":[0.98906010389328,
		0.95728600025177,
		0.9997140169143677]
	},
	{
		"bufferView":1,
		"type":"VEC2",
		"componentType":5126,
		"count":1415,
		"byteOffset":24,
		"min":[0.0,
		0.0],
		"max":[0.9668244123458862,
		0.8714991807937622]
	}],
	"bufferViews":[{
		"buffer":0,
		"byteOffset":0,
		"byteLength":15720,
		"target":34963
	},
	{
		"buffer":0,
		"byteOffset":15720,
		"byteLength":45280,
		"target":34962,
		"byteStride":32
	}],
	"buffers":[{
		"uri":"data:application/octet-stream;base64,",
		"byteLength":61000
	}]
}