{
	"asset":{
		"version":"2.0",
		"generator":"Created using the official Cinema 4D glTF Exporter 1.000x284978"
	},
	"scenes":[{
		"nodes":[0]
	}],
	"nodes":[{
		"mesh":0,
		"name":"Object001_id_2",
		"translation":[-0.0003566133673302829,
		-0.053013984113931659,
		1.136043667793274],
		"rotation":[0.0,
		0.0,
		0.0,
		-1.0],
		"scale":[1.0,
		1.0,
		1.0]
	}],
	"meshes":[{
		"name":"Object001_id_2",
		"primitives":[{
			"attributes":{
				"POSITION":1,
				"NORMAL":2,
				"TEXCOORD_0":3
			},
			"indices":0
		}]
	}],
	"accessors":[{
		"type":"SCALAR",
		"bufferView":0,
		"componentType":5123,
		"byteOffset":0,
		"count":1344,
		"min":[0],
		"max":[241]
	},
	{
		"type":"VEC3",
		"bufferView":1,
		"componentType":5126,
		"byteOffset":0,
		"count":242,
		"min":[-0.2930707335472107,
		-0.01440605241805315,
		-0.0005989948404021561],
		"max":[0.2930707335472107,
		0.01440605241805315,
		0.027339134365320207]
	},
	{
		"type":"VEC3",
		"bufferView":1,
		"componentType":5126,
		"byteOffset":12,
		"count":242,
		"min":[-0.9993928074836731,
		-0.9993928074836731,
		-0.08576111495494843],
		"max":[0.9993928670883179,
		0.9993928670883179,
		1.0]
	},
	{
		"type":"VEC2",
		"bufferView":1,
		"componentType":5126,
		"byteOffset":24,
		"count":242,
		"min":[-0.9993988275527954,
		0.85699462890625],
		"max":[0.9993988275527954,
		2.0]
	}],
	"bufferViews":[{
		"buffer":0,
		"byteOffset":0,
		"byteLength":2688,
		"target":34963
	},
	{
		"buffer":0,
		"byteOffset":2688,
		"byteLength":7744,
		"target":34962,
		"byteStride":32
	}],
	"buffers":[{
		"uri":"data:application/octet-stream;base64,",
		"byteLength":10432
	}]
}