{
	"asset":{
		"version":"2.0",
		"generator":"Created using the official Cinema 4D glTF Exporter 1.000x284978"
	},
	"nodes":[{
		"name":"Subdivision Surface",
		"translation":[0.0,
		-1.005092740058899,
		0.0],
		"rotation":[0.0,
		0.0,
		0.0,
		-1.0],
		"scale":[1.0,
		1.0,
		1.0],
		"mesh":0
	}],
	"scenes":[{
		"nodes":[0]
	}],
	"meshes":[{
		"name":"Subdivision Surface",
		"primitives":[{
			"attributes":{
				"POSITION":1,
				"NORMAL":2,
				"TEXCOORD_0":3
			},
			"indices":0
		}]
	}],
	"accessors":[{
		"bufferView":0,
		"type":"SCALAR",
		"componentType":5123,
		"count":90480,
		"byteOffset":0,
		"min":[0],
		"max":[16447]
	},
	{
		"bufferView":1,
		"type":"VEC3",
		"componentType":5126,
		"count":16448,
		"byteOffset":0,
		"min":[-5.753684043884277,
		-0.6210565567016602,
		-5.753684043884277],
		"max":[5.753685474395752,
		0.6113520860671997,
		5.753684043884277]
	},
	{
		"bufferView":1,
		"type":"VEC3",
		"componentType":5126,
		"count":16448,
		"byteOffset":12,
		"min":[-1.0,
		-1.0,
		-1.0],
		"max":[1.0,
		1.0,
		1.0]
	},
	{
		"bufferView":1,
		"type":"VEC2",
		"componentType":5126,
		"count":16448,
		"byteOffset":24,
		"min":[0.0,
		0.0],
		"max":[1.0,
		1.0]
	}],
	"bufferViews":[{
		"buffer":0,
		"byteOffset":0,
		"byteLength":180960,
		"target":34963
	},
	{
		"buffer":0,
		"byteOffset":180960,
		"byteLength":526336,
		"target":34962,
		"byteStride":32
	}],
	"buffers":[{
		"uri":"data:application/octet-stream;base64,",
		"byteLength":707296
	}]
}